<?xml version="1.0" encoding="utf-8"?>
<!-- Generator: Adobe Illustrator 21.0.0, SVG Export Plug-In . SVG Version: 6.00 Build 0)  -->
<svg version="1.1" id="Layer_1" xmlns="http://www.w3.org/2000/svg" xmlns:xlink="http://www.w3.org/1999/xlink" x="0px" y="0px"
	 viewBox="0 0 1000 1000" style="enable-background:new 0 0 1000 1000;" xml:space="preserve">
<style type="text/css">
	.st0{fill:#8A8A8A;}
	.st1{fill:#CECECE;}
	.st2{fill:#CFCFCF;}
	.st3{fill:#ECECEC;}
	.st4{fill:#929293;}
	.st5{fill:#0C0C0C;}
	.st6{fill:#050505;}
	.st7{fill:#171718;}
	.st8{fill:#1B1B1C;}
	.st9{fill:#070707;}
	.st10{fill:#959698;}
	.st11{fill:#090909;}
	.st12{fill:#424242;}
	.st13{fill:#A8A8A8;}
	.st14{fill:#171717;}
	.st15{fill:#A9A9A9;}
	.st16{fill:#BFBFBF;}
	.st17{fill:#19191A;}
	.st18{fill:#232323;}
	.st19{fill:#222324;}
	.st20{fill:#080809;}
	.st21{fill:#2E2F31;}
	.st22{fill:#28292B;}
	.st23{fill:#F9F9FA;}
	.st24{fill:#1A1B1C;}
	.st25{fill:#1B1C1E;}
	.st26{fill:#202122;}
	.st27{fill:#EBEBEB;}
	.st28{fill:#F2F2F3;}
	.st29{fill:#CDD7E7;}
	.st30{fill:#7B8490;}
	.st31{fill:#CCDBF0;}
	.st32{fill:#F7F9FC;}
	.st33{fill:#929599;}
	.st34{fill:#EBF0F9;}
	.st35{fill:#7B8390;}
	.st36{fill:#ECEDF0;}
	.st37{fill:#BDBEC1;}
	.st38{fill:#9DA7B7;}
	.st39{fill:#B1B6BE;}
	.st40{fill:#7D8692;}
	.st41{fill:#F3F6FB;}
	.st42{fill:#DEE7F4;}
	.st43{fill:#9FAABA;}
	.st44{fill:#BFC0C2;}
	.st45{fill:#9FA9B9;}
	.st46{fill:#BBBEC2;}
	.st47{fill:#B6B8BB;}
	.st48{fill:#1D1D1D;}
	.st49{fill:#E8E8E8;}
	.st50{fill:#020202;}
	.st51{fill:#CCD6E6;}
	.st52{fill:#1A1A1C;}
	.st53{fill:#7C8491;}
	.st54{fill:#F5F5F5;}
	.st55{fill:#BBBEC0;}
	.st56{fill:#CBCBCB;}
	.st57{fill:#CACBCB;}
	.st58{fill:#95979A;}
	.st59{fill:#E8EEF8;}
	.st60{fill:#AFB4BD;}
	.st61{fill:#949698;}
	.st62{fill:#18191B;}
	.st63{fill:#C3CFE0;}
</style>
<g>
	<g>
		<path class="st0" d="M318.5,484.9c8-7.7,18.5-9,28.6-11.4c19.1-4.5,38.6-5.5,58-6.8c8.9-0.6,17.9-0.9,26.8-1.4
			c1.7-0.1,3.3-0.2,4.4-1.6c6.5-7.6,13-15.3,19.8-23.4c-9.9-0.5-19.4-0.6-28.9-1.4c-24.5-2-48.7-5.3-71.2-16.3
			c-27.8-13.6-48.2-34.3-60.7-62.8c-9.7-22.2-14.4-45.4-16.8-69.3c-2.1-20.6-2.4-41.3-1.7-61.9c0.7-19.8,2.4-39.5,4.4-59.3
			c1.8-17.9,3.5-35.9,5.2-53.8c0.7-7.8,1.2-15.6,2.4-23.3c0.5-3.2-0.5-3.7-3.1-3.6c-1.5,0.1-2.9,0-4.4,0c-3.6,0.1-5.2-1-6-5.1
			c-0.9-4.4-3.9-8.5-6-12.6c-0.8-1.4-2.2-1-3.5-0.8c-1.4,0.2-1.8,1.2-1.8,2.4c0,0.3,0,0.7,0,1c-0.5,9.3-0.5,9.3-10,9.3
			c-9.8,0-19.5-0.2-29.3,0.1c-3.9,0.1-5.5-1.1-4.8-5c0.8-4.4-1.2-5.7-5.4-5.4c-2.9,0.2-5.8-0.4-8.7-0.8c-4.8-0.7-7.9-4.2-8.1-8.9
			c-0.2-4.6,2.2-8.2,6.9-9.3c4.1-1,8.3-1.3,12.5-1.9c1.2-0.2,3,0,2.7-1.9c-0.8-4.5,2-4.1,5-4.1c11.7,0.1,23.4,0,35.1,0
			c2.1,0,3.7-0.3,4.4,2.9c0.9,4,5.2,1.6,7.9,2.5c2.1,0.7,2.6-1.3,2.5-3.1c-0.3-3.4,1.8-3.4,4.3-3.3c26,0.1,52.1,0,78.1,0
			c4,0,7.7-0.8,11.2-2.7c8.6-4.8,18-8.3,25.8-14.7c3.9-3.2,9-4.5,13.8-5.8c2.8-0.7,5.9-0.7,8.6,0.8c8.4,4.9,16.8,14.2,15.6,26.6
			c-0.9,10-7.4,17.7-18.1,21.3c-4.9,1.6-9.7,2.5-14.8,2.1c-7.1-0.5-9.8-2.8-11.2-9.9c-0.3-1.4-0.7-2.8-1.2-4.8
			c-10.3,6.2-20.1,12.4-29.1,19.8c-1.8,1.5-2.9,3.5-2.9,6c0,4.9-2.6,6.3-7.2,6.3c-6.7,0-13.3,0.5-20,0.6c-2.7,0-4,0.5-4.3,3.7
			c-1.7,18.8-3.8,37.5-5.6,56.2c-2,20-3.8,40.1-4.3,60.3c-0.9,38-3.5,76.2,9.1,113.1c4.8,14.2,10.5,28,18.5,40.8
			c15.2,24.1,37,38.2,64.8,43.6c20.4,4,40.9,4.7,61.7,3.3c12.3-0.8,24.7-1.3,37,0.5c5.4,0.8,8.9,3.5,10.8,8.5
			c1.9,5.1,3.1,10.3,2.9,15.7c-0.1,3.3,0.9,5.9,3.3,8.3c5,4.9,9.6,10.2,13.6,16c2.5,3.7,5.6,5.1,10.1,5.3
			c27.1,1.4,54.3,2.1,80.9,7.9c4.3,0.9,8.5,2.2,12.8,3.2c8.3,1.9,14.9,6.2,19.7,13.3c1,1.3,2,2.6,3,3.9c1,1.9,2,3.8,3,5.7
			c-0.8,3.5-3.6,2.1-5.6,2.1c-73.1,0.1-146.3-0.1-219.4,0.1c-42.1,0.1-84.1-1.8-126.1-1.1c-1.6,0-3.3,0.5-4.5-1.1
			c1.3-2.2,2.7-4.5,4-6.7C314.7,490.2,316.6,487.5,318.5,484.9z"/>
		<path d="M195.8,848c-5.4-14.8-8-30.1-9.9-45.6c0.4-2.9-0.1-5.8-0.4-8.7c-1.2-15.2-1.3-30.5,1.7-45.5c1.6-8,5.4-15,14.9-16.4
			c7.5-1.1,14.4,0.5,21,4.2c0.3,0.4,0.7,0.7,1,1.1c11.7,9.9,20.9,21.9,29.8,34.2c2,2.8,4.1,4,7.5,3.9c4.8,0,9.7-1.1,14.4,0.8
			c0.3,0,0.6,0.1,0.9,0.1c1.4,1.3,3.1,0.8,4.6,0.9c35.9,0.5,71.8,0.3,107.7,0.7c83.6,0.9,167.2,0.3,250.8,0.3c1.7,0,3.6,0.6,5.1-1
			c4.7,0,9.4,0,14.1,0c1.9,0,3.3-0.3,4.5-2.1c7.8-12.3,17-23.6,27.6-33.7c3.6-3.4,4.1-7.1,3.3-11.4c-0.9-5.4-1.8-10.8-1.7-16.3
			c0.4-0.9,1-1.6,1.9-1.9c0.5,3.7,1,7.3,1.4,11c0.5,3.8,1,7.6,1.5,11.4c0.2,1.3,0.5,2.4,1.9,0.7c5.2-3.3,11-3.6,16.9-3.2
			c6.5,0.5,11,3.9,13.8,9.9c3.8,8,3.9,16.7,4.4,25.2c0.8,12.2-0.1,24.3-1,36.4c-1,1.6-0.9,3.3-0.7,5.1c-0.1,1.2-0.2,2.4-0.3,3.7
			c-1.6,2.5-0.4,5.6-1.9,8c-1.5,1.3-0.8,3-0.9,4.6c-2,1.6,0.6,2.7,0.5,4.2c-4.4,2.2-1.6,6.7-3.4,9.8c-3.1,9.4-6.8,18.6-14.4,25.5
			c-3.1,1.8-5.7,4.2-8,6.9c0,0,0.1,0,0.1,0c-6.5,1.7-12.6,0-18.7-2.2c-2-0.2-3.3-5.4-6-0.9c-0.3,0-0.6,0-0.9,0
			c-0.6-1.7-0.7-3.7-1.8-5c-6.9-7.7-11.3-17-15.8-26.1c-1.9-3.8-4.2-4-7.6-4.2c-6.6-0.2-13.3,1.1-19.8-0.9
			c-31.8-0.7-63.7-0.1-95.5-0.7c-46.2-0.9-92.3-0.3-138.5-0.3c-11.5,0-23.1,0.1-34.6,0.2c-9.7,0-19.4,0-29.1,0c-0.8-1.1-1.9-1-3-1
			c-14.5,0-29,0-43.5,0c-1.5,0-2.9,0.3-4.2,1c-7,0-14,0.1-21-0.1c-2.4,0-3.9,0.8-4.9,3c-4.5,9.9-9.8,19.4-16.1,28.3
			c-1.2,0.5-1.1,2.6-2.7,2.4c-3.7-0.6-5.2,2.2-7.1,4.3c-6,2.3-12.2,3.9-18.7,2.3l0.1,0c-2.3-2.7-4.9-5.1-8-6.9
			C202.1,859.6,199.1,853.7,195.8,848z"/>
		<path class="st1" d="M195.8,848c3.3,5.7,6.2,11.6,11.3,16c1.8,3.3,4.3,5.8,8,6.9c0,0-0.1,0-0.1,0c7.1,4,13.6,1.1,20-2
			c4-2.9,5.5-1.9,7,2.9c5.3,17,12.1,33.4,18.9,49.8c1.1,6.2,5.6,5.3,9.9,4.9c1.8,0.1,3.6,0.2,5.3,0.3c49.1,0.4,98.2,0.8,147.4,1.2
			c76.6,0.6,153.2,1.2,229.8,1.9c1.4,0,2.6-0.1,3.4-1.4c0.6-0.5,1.4-1,1.6-1.6c6.2-15.2,12.9-30.2,17.8-45.9
			c1.2-3.2,2.6-6.4,3.6-9.7c0.8-2.8,2-4.1,4.8-2.2c6.4,3.1,12.9,6,20,2c0,0-0.1,0-0.1,0c3.7-1.1,6.2-3.6,8-6.9
			c7.6-6.9,11.3-16.1,14.4-25.5c1.2,0.7,0.7,2,1,3.1c-0.3,1.3-0.5,2.5-0.8,3.8c-6.9,25.9-15.6,51.2-26.9,76.6
			c9.8-4.2,15.6-11.9,22.7-18c4-2.2,6.7-5.7,9.7-8.9c2.1-1.1,2.4-3.6,3.7-5.2c1.8,2.4-0.3,4.8,0.2,7.2l0,0c-3.2,2.3-6.7,4.1-9.2,7.2
			c1.4,1.5,3.3-1.3,4,0.8c0.6,1.8-1,2.3-2.5,2.9c-2,0.7-3.3,2.3-4.7,4.6c1.7-0.2,3.7-0.8,3.8,1c0.1,1.8-1.3,2.2-3.2,2.5
			c-2.6,0.5-4.9,2.4-7.2,3.7c-1.1,0.6-1.8,1.7-1.1,2.8c0.8,1.3,2,0.6,3,0c0.7-0.4,1.1-1.1,1.7-1.6c0.9-0.8,1.3-2.8,2.9-1.5
			c1.4,1.1-0.1,2.3-0.5,3.5c-0.9,2.9-3.8,4.9-3.6,8.3c-4.7,10.2-11.2,18.9-20.4,25.5c-10.6,7.7-21.1,15.6-31.9,23.1
			c-6.8,4.8-14.5,7-22.9,7c-114.7,0-229.3,0-344,0c-10.7,0-21.3,0.5-32-0.8c-9.6-1.2-16.2-6.9-21.7-14.3c-11.1-15-18.6-32-25.8-49
			c-9.6-22.5-18.2-45.5-24.7-69.1C196.2,851.8,195.3,850,195.8,848z"/>
		<path class="st1" d="M223,735.9c-6.5-3.7-13.5-5.3-21-4.2c-9.5,1.4-13.3,8.4-14.9,16.4c-3,15-2.9,30.3-1.7,45.5
			c0.2,2.9,0.7,5.8,0.4,8.7c-2.2-6.5-2.1-13.4-2.7-20c-3-36.3,0.7-72.1,8.9-107.5c5.8-25,12.8-49.6,22-73.5
			c7.3-19,16.4-37.1,26.2-54.9c4.2-7.5,8.4-15,12.6-22.5c3.2-5.7,7.6-9.8,13.5-12.8c15.8-7.9,31.4-16.3,47.1-24.4
			c1.6-0.8,3.1-1.8,5-1.7c-1.9,2.6-3.8,5.2-5.8,7.9c-0.4-0.6-1-0.8-1.7-0.5c-12.5,6.4-25,12.9-38.3,19.7c4.8,0.5,8.6,1.2,12.4,1.3
			c35.4,0.7,70.9-0.1,106.3,0.8c49.7,1.2,99.5-0.1,149.3,1.2c37.4,0.9,74.8-1,112.2,1c2.6,0.1,5.2,0,7.8-0.2
			c5.8-0.5,8.6-5.4,12.3-8.9c4.3-4,8.4-8.3,13.3-13.3c-9.3,0-17.1,0-24.9,0c-1-1.3-2-2.6-3-3.9c11.2,0,22.4,0.1,33.5,0
			c6.6-0.1,11.1,2,14.3,8.4c6.1,12.3,13.2,24.1,19.8,36.2c1.1,2,1.8,4.1,2.7,6.2c-0.2,2.6,1.4,4.6,2.4,6.7c1.9,4.1,5.9,8.2-0.8,12.1
			c-4.3-9.3-8.7-18.7-13-28c-0.6-1.3-0.9-4.4-2.4-0.4c-2.7-5-5.5-9.9-8.4-15.3c-0.9,1.7-1.6,3-2.3,4.3c-2,1.7-3.6,3.7-4.8,5.9
			c-4.8,5.3-9.3,10.9-14.5,15.8c-3.2,3.1-3.8,5.2-1.5,9.3c16.6,29.3,28.9,60.3,37.9,92.8c10.7,38.4,18.6,77.2,17.7,117.2
			c-0.3,16.1-1.2,32.2-4.5,48c-1.8,1.7-1,3.9-1.1,5.9l0,0c-1.2-0.8-0.7-2.1-1.1-3.2c0.1-1.2,0.2-2.4,0.3-3.7
			c1.4-1.5,0.9-3.3,0.7-5.1c0.9-12.1,1.8-24.3,1-36.4c-0.6-8.5-0.6-17.2-4.4-25.2c-2.8-6-7.3-9.4-13.8-9.9
			c-5.8-0.5-11.7-0.2-16.9,3.2c-1-0.6-0.9-1.6-1-2.6c-1.1-11.6-2.7-23.2-4.9-34.6c-3.5-18.8-7.4-37.4-13.4-55.6
			c-0.1-0.8-0.2-1.6-0.4-2.4c-8.8-30.2-20.3-59.3-33.1-88c-0.7-1.6-1.8-2.7-3.4-3.2c-2-1-4.1-0.3-6.2-0.3
			c-98.2-0.4-196.4-0.7-294.6-1.1c-17.7-0.1-35.4-0.2-53.2-0.1c-4.2,0-8.6-0.2-12.6,1.6c-5.5,11.2-10.4,22.6-15,34.2
			c-7.7,19.4-15.1,39-20.2,59.3c-7.3,23.1-12.4,46.6-15.5,70.6C224,720.2,223.6,728,223,735.9z"/>
		<path class="st2" d="M715,531.1c1.5-4,1.8-0.9,2.4,0.4c4.3,9.3,8.7,18.7,13,28c6.7-3.9,2.7-8,0.8-12.1c-1-2.2-2.6-4.1-2.4-6.7
			c6.6,10.9,11.2,22.7,15.8,34.5c10.9,27.9,18.6,56.7,24.7,85.9c3.6,17.1,6.1,34.4,6.5,52c0.1,5.6,0.8,11.3,0.8,17
			c-0.1,32.8-5.5,64.8-14.3,96.3c-6.6,23.6-14.9,46.7-24.7,69.2c-0.2,0.6-0.7,1.1-1,1.6c-0.5-2.4,1.6-4.8-0.2-7.2
			c0.6-1.8,1.2-3.7,1.9-5.5c16.1-40,28.9-81,32.9-124.2c2.4-25.5,1.9-50.9-2.2-76.2c-2-12.4-4.5-24.8-8.1-36.8
			c-0.2-2.5-0.7-4.8-1.8-7c-1.5-1.9-0.9-4.3-1.5-6.4c-7.9-27.7-19.7-53.9-32.1-79.9C722,546.3,718.5,538.7,715,531.1z"/>
		<path class="st2" d="M720,931.3c-0.2-3.4,2.8-5.4,3.6-8.3c0.3-1.2,1.9-2.4,0.5-3.5c-1.6-1.3-2.1,0.7-2.9,1.5
			c-0.6,0.5-1.1,1.2-1.7,1.6c-1,0.6-2.2,1.2-3,0c-0.7-1.2,0.1-2.2,1.1-2.8c2.4-1.3,4.7-3.2,7.2-3.7c1.9-0.4,3.3-0.8,3.2-2.5
			c-0.1-1.9-2.1-1.2-3.8-1c1.4-2.3,2.7-3.9,4.7-4.6c1.5-0.5,3.1-1.1,2.5-2.9c-0.7-2.1-2.6,0.6-4-0.8c2.5-3.1,6-4.9,9.2-7.2
			C731.8,908.9,727.2,920.7,720,931.3z"/>
		<path class="st3" d="M661.4,493.8c7.8,0,15.6,0,24.9,0c-5,5-9,9.2-13.3,13.3c-3.7,3.5-6.4,8.4-12.3,8.9c-2.6,0.2-5.2,0.4-7.8,0.2
			c-37.4-2-74.8-0.1-112.2-1c-49.8-1.2-99.5,0-149.3-1.2c-35.4-0.8-70.9-0.1-106.3-0.8c-3.8-0.1-7.6-0.8-12.4-1.3
			c13.3-6.9,25.8-13.3,38.3-19.7c0.6-0.3,1.2-0.1,1.7,0.5c-1.3,2.2-2.7,4.5-4,6.7c-1.3,1.1-2.6,2.4-2,4.1c0.7,1.8,2.5,0.9,3.9,0.9
			c81.5,0.4,162.9-0.3,244.4,0.8c35.6,0.5,71.2,0.2,106.9,0.2c1.6,0,3.5,0.3,4.4-1.4c1-2-0.6-3.3-1.9-4.5
			C663.4,497.6,662.4,495.7,661.4,493.8z"/>
		<path class="st4" d="M664.4,499.5c1.3,1.2,2.9,2.5,1.9,4.5c-0.8,1.7-2.7,1.4-4.4,1.4c-35.6,0-71.2,0.3-106.9-0.2
			c-81.5-1.1-162.9-0.4-244.4-0.8c-1.4,0-3.2,0.9-3.9-0.9c-0.6-1.7,0.7-3,2-4.1c1.2,1.6,2.9,1.2,4.5,1.1
			c42.1-0.7,84.1,1.2,126.1,1.1c73.1-0.2,146.3-0.1,219.4-0.1C660.8,501.6,663.6,502.9,664.4,499.5z"/>
		<path class="st5" d="M692.7,713.5c-0.1,5.5,0.8,10.9,1.7,16.3c0.7,4.3,0.3,8-3.3,11.4c-10.6,10-19.7,21.3-27.6,33.7
			c-1.2,1.8-2.6,2.1-4.5,2.1c-4.7,0-9.4,0-14.1,0l0,0c0.8-11.8,1-23.5,0.3-35.4c-1.2-20.5-3.6-40.9-7.2-61.1
			c-1-5.7-1.5-11.5-3.7-16.9c-0.7-3.3-1.6-6.6-2.2-9.9c-2.5-12.7-8.3-24.6-8.6-37.8c-0.2-0.6-0.8-1.3-0.7-1.8
			c1.3-3.3,1.7-6.1-2.6-7.6c-1-0.3-0.6-1.7,0.1-2.5c0.9-1,1.3-2.2,1.2-3.5c1.9-0.1,3.9-0.2,5.8-0.2c9,0,18.1,0,27.1,0
			c3.4,0,5.6-1,3.2-4.9c-0.6-1.4-1.2-2.7-1.7-4.1l0,0.1c-0.3-2.4-0.5-4.7-2.2-6.7c-1-1.9-1.6-3.8-1.9-5.9c-0.2-2.9-1.4-5.5-2.7-8
			l0,0.1c-0.7-2.7-1.2-5.5-3.2-7.7c-0.5-0.6-1.1-1.1-0.6-2c0.8-0.7,1.4-0.4,1.8,0.5c3.5,8,6.8,16,11.3,23.6
			c3.9,6.4,4.5,14.3,6.9,21.4c5.8,17.5,11.5,35,16.1,52.9c0.8,3.3,1.4,6.6,2.4,9.8c0.6,2.1,2.1,7.9,2.2,9.2c0.1,1.7-0.1,4.2,1,5.1
			c2.8,2.4,2.3,5.5,2.8,8.4c1,3.4,2.6,6.8,1.5,10.3C690.2,706.4,691.5,709.9,692.7,713.5z"/>
		<path class="st5" d="M225.9,712.5c3.2-24,8.2-47.5,15.5-70.6c0.3,1.6-0.1,3.2-0.5,4.8c-5.6,20.1-10.6,40.4-12.7,61.1
			c-0.6,5.6-1.8,11.4-1,18.5c1.3-8.1,2.5-14.8,3.6-21.4c5-32.1,13.3-63.3,24.2-93.8c1.3-3.6,3.1-7.2,3.1-11.2c0-2.9,1-5.4,2.9-7.5
			c0,0.7,0,1.3,0,2c-0.7,0.8-1.3,1.6-1.1,2.7c-0.3,0.6-0.5,1.3-0.8,1.9c1.2,2.1,3.2,1.2,4.8,1.2c11.9,0.1,23.9,0,35.8,0.1
			c1.7,0,3.6-0.7,5.1,0.8c-0.5,0.6-1.5,1.1-1.5,1.8c-0.8,7.6-6.4,13.4-7.1,21.3c-0.7,8-4.9,15.4-6.3,23.5c-1,5.7-4.3,11.2-4.6,16.5
			c-0.7,11-4.2,21.5-5.6,32.3c-1.4,10.6-2.4,21.4-4.1,32c-1.1,7-0.8,14.7-0.9,22.1c-0.2,8.4-0.3,16.8,1,25.2
			c-4.7-1.9-9.6-0.9-14.4-0.8c-3.5,0-5.5-1.1-7.5-3.9c-8.9-12.3-18.1-24.4-29.8-34.2C225,728.8,226,720.7,225.9,712.5z"/>
		<path class="st5" d="M634.1,831.7c6.5,2,13.2,0.6,19.8,0.9c3.4,0.1,5.7,0.4,7.6,4.2c4.5,9.1,8.9,18.4,15.8,26.1
			c1.1,1.2,1.2,3.3,1.8,5c-1.9,6.2-5.7,11.5-8.1,17.6c-2.4,5.8-1.4,12.8-5.4,17.8c-4.3,5.3-6.1,11.6-8.1,17.6
			c-1.2,3.6-2.6,4.7-5.9,4.7c-15.9,0-31.8,0-47.6,0c-0.2-1.7,0.2-3.9,1.4-4.4c3.9-1.7,3.9-5.6,5.5-8.5c2-3.7,2.4-7.9,3-12
			c0.9-5.6,6.1-9.5,6.3-15c0.3-8.3,5.2-14.8,7.3-22.3c1-3.7,0-7.7,2.1-11.3C633.2,845.7,635.2,839,634.1,831.7z"/>
		<path class="st5" d="M243.5,861.9c6.3-8.9,11.5-18.4,16.1-28.3c1-2.3,2.5-3.1,4.9-3c7,0.1,14,0,21,0.1c0.3,1.1,0.9,2.2,0.8,3.3
			c-0.7,6.4,1.5,11.8,4.7,17.2c1.3,2.2,2.1,5.3,2,7.9c-0.2,4.8,1.4,8.8,3.8,12.6c1.9,3,2.8,6.2,2.9,9.5c0,3.7,0.9,7.5,2.9,10
			c2.6,3.3,4.3,7.1,4.6,10.8c0.5,6.4,3.2,11.7,5.6,17.3c0.7,1.7,1.2,3.3,1.1,5.2c-1.6-0.9-3.4-0.9-5.1-1
			c-11.7-0.4-23.5,0.9-35.2-0.9c-1.8-0.3-3.9-0.8-5.5,0.9c-1-0.3-2-0.6-3-1c-4.9-12.8-10-25.5-14.7-38.4
			C247.6,876.8,244.4,869.7,243.5,861.9z"/>
		<path class="st6" d="M267.9,923.4c1.6-1.6,3.7-1.1,5.5-0.9c11.7,1.8,23.5,0.5,35.2,0.9c1.8,0.1,3.5,0.1,5.1,1
			c1.4-0.3,2.7-0.7,4.1-1c5.4,0.1,10.9,0.2,16.3,0.2c2.9,1.1,6,0.1,8.9,0.7c4.2,2.6,8.8,0.8,13.1,0.9c41.5,0.9,83.1-0.8,124.6,1.1
			c10,0.5,20.1,0.1,30.2,0.1c28.7,0,57.4,0.1,86.1,0.1c2.3,0,4.6,0.3,6.6-1c15.9,0,31.8,0,47.6,0c3.3,0,4.7-1.1,5.9-4.7
			c2-6.1,3.8-12.3,8.1-17.6c4-4.9,3-11.9,5.4-17.8c2.4-6,6.2-11.4,8.1-17.6c0.3,0,0.6,0,0.9,0c-1.2,4.4-3.6,8.4-3.7,13.1
			c-4.9,15.7-11.6,30.7-17.8,45.9c-0.3,0.7-1.1,1.1-1.6,1.6c-31.3-0.7-62.7,0.2-94-0.9c-42-1.4-84.1,0.3-126.2-1
			c-44.5-1.3-89,0.8-133.5-1.1c-10.7-0.5-21.5-0.1-32.2-0.1C270.3,924.1,269.3,923.4,267.9,923.4z"/>
		<path class="st7" d="M603.8,925.4c-2,1.3-4.4,1-6.6,1c-28.7,0-57.4-0.1-86.1-0.1c0-0.4,0-0.7,0-1.1c1.6-0.1,3.2-0.3,4.8-0.3
			c23.6,0.2,47.2,0.4,70.8,0.5c16,0.1,16.2,0.2,21.9-15.1c8.9-23.9,16.5-48.3,23.4-72.9c1.1-4,0.7-5.1-3.8-5.1
			c-40.5,0.1-81-0.1-121.5-0.3c-32.4-0.1-64.7-0.2-97.1-0.3c-4.9,0-9.8,0-14.6,0c-9.8-0.1-19.5-0.2-29.3-0.3
			c-0.1-0.2-0.1-0.5-0.2-0.7c11.5-0.1,23.1-0.2,34.6-0.2c46.2,0,92.4-0.6,138.5,0.3c31.8,0.6,63.7,0.1,95.5,0.7
			c1.1,7.3-0.9,14-4.6,20.2c-2.1,3.6-1.1,7.5-2.1,11.3c-2.1,7.6-7,14.1-7.3,22.3c-0.2,5.5-5.4,9.4-6.3,15c-0.6,4.1-1,8.2-3,12
			c-1.6,3-1.7,6.8-5.5,8.5C604,921.5,603.6,923.7,603.8,925.4z"/>
		<path class="st5" d="M644.8,777c-1.4,1.6-3.4,1-5.1,1c-83.6,0-167.2,0.6-250.8-0.3c-35.9-0.4-71.8-0.2-107.7-0.7
			c-1.6,0-3.3,0.5-4.6-0.9c0.4-0.1,0.8-0.1,1.1-0.2c8.1,0,16.3,0,24.4,0c13.7,0,27.3,0,41,0c16.8,0.1,33.5,0.2,50.3,0.3
			c12.8,0,25.7-0.1,38.5-0.1c1,0,2,0,2.9,0c3.2,0.5,6.5,0.5,9.7,0c1.1,0.1,2.3,0.3,3.4,0.3c63.7,0.3,127.4,0.5,191.2,0.7
			c1.5,0,2.9-0.2,4.4-0.3C644,776.9,644.4,776.9,644.8,777L644.8,777z"/>
		<path class="st8" d="M277.8,775.9c-0.4,0.1-0.8,0.1-1.1,0.2c-0.3-0.1-0.6-0.1-0.9-0.1c-1.3-8.4-1.1-16.8-1-25.2
			c0.1-7.4-0.2-15.1,0.9-22.1c1.7-10.6,2.7-21.4,4.1-32c1.4-10.9,4.8-21.3,5.6-32.3c0.4-5.3,3.7-10.9,4.6-16.5
			c1.4-8.1,5.6-15.5,6.3-23.5c0.7-7.9,6.3-13.7,7.1-21.3c0.1-0.6,1-1.2,1.5-1.8l0.3,0.3c-0.1,0.3-0.1,0.6,0,0.9
			c-5.9,16.5-10.8,33.3-15,50.3c-3.6,14.3-7,28.6-8.6,43.3c-1.4,8.7-3,17.3-3.1,26.1c-2.5,16.4-2.4,32.9-1.7,49.4
			c0.1,1.2-0.3,2.6,0.8,3.7C277.6,775.4,277.7,775.7,277.8,775.9z"/>
		<path class="st7" d="M317.9,923.4c-1.4,0.3-2.7,0.7-4.1,1c0.1-1.8-0.4-3.5-1.1-5.2c-2.4-5.6-5.1-10.9-5.6-17.3
			c-0.3-3.7-2-7.4-4.6-10.8c-2-2.5-2.9-6.3-2.9-10c0-3.4-1-6.5-2.9-9.5c-2.4-3.8-4-7.9-3.8-12.6c0.1-2.6-0.7-5.6-2-7.9
			c-3.2-5.4-5.4-10.8-4.7-17.2c0.1-1.1-0.5-2.2-0.8-3.3c1.3-0.7,2.7-1,4.2-1c14.5,0,29,0,43.5,0c1.1,0,2.3-0.1,3,1
			c-8.1,0.9-16.3-0.8-24.4,0.9l0,0c-6.5-2-13.1-0.5-19.6-0.9c-1.5-0.1-3.6-1.1-4.8,1c3.7,16.6,8.7,32.8,14.5,48.9
			c1.4,6.1,3.4,12,5.9,17.7c0.3,2,1,3.9,2,5.7C311.6,910.8,314.9,917,317.9,923.4z"/>
		<path class="st9" d="M243.5,861.9c0.9,7.8,4.1,14.9,6.8,22.1c4.7,12.9,9.8,25.6,14.7,38.4c-1.3-0.6-2.6-1.1-4.1-0.9
			c-6.8-16.4-13.6-32.9-18.9-49.8c-1.5-4.8-3.1-5.8-7-2.9c-0.4-0.1-0.9-0.2-1.3-0.3c1.9-2.1,3.4-4.9,7.1-4.3
			C242.4,864.5,242.4,862.4,243.5,861.9z"/>
		<path class="st10" d="M311.9,831.6c8.1-1.7,16.3,0.1,24.4-0.9c9.7,0,19.4,0,29.1,0c0.1,0.2,0.1,0.5,0.2,0.7
			c0.1,0.2,0.1,0.3-0.1,0.5c-0.7,0-1.4,0-2,0c-2.2,0-4.4-0.1-6.5-0.1c-13.8,0-27.5,0-41.7,0c3,10.4,6.7,20.2,10.4,30
			c0.3,0.3,0.6,0.7,0.9,1c0,0.3,0,0.7-0.1,1c-1,0-2,0-3,0c-0.3,0-0.5,0-0.8-0.1C319.2,853.1,314.2,842.8,311.9,831.6z"/>
		<path class="st5" d="M680.1,641.9c6,18.2,9.8,36.8,13.4,55.6c2.2,11.5,3.8,23,4.9,34.6c0.1,1,0,2,1,2.6c-1.4,1.6-1.7,0.6-1.9-0.7
			c-0.5-3.8-1-7.6-1.5-11.4c-0.5-3.7-1-7.3-1.4-11c-1-6.9-1.5-13.9-3.9-20.5c-0.7-9.1-3.6-17.7-5.4-26.5
			C683.8,656.9,680.4,649.8,680.1,641.9z"/>
		<path class="st11" d="M690.7,691.1c2.3,6.6,2.9,13.6,3.9,20.5c-0.9,0.3-1.6,1-1.9,1.9c-1.1-3.6-2.5-7.2-1.4-11.2
			c1-3.6-0.6-7-1.5-10.3C690.1,691.7,690.4,691.4,690.7,691.1z"/>
		<path class="st12" d="M225.9,712.5c0.1,8.2-0.9,16.4-1.9,24.5c-0.3-0.4-0.7-0.7-1-1.1C223.6,728,224,720.2,225.9,712.5z"/>
		<path class="st5" d="M676.2,880.9c0.1-4.7,2.4-8.8,3.7-13.1c2.7-4.6,4,0.7,6,0.9c-0.5,0.1-0.9,0.2-1.4,0.3
			c-2.8-1.8-3.9-0.6-4.8,2.2C678.8,874.4,677.4,877.6,676.2,880.9z"/>
		<path class="st13" d="M727.9,841.6c-0.3-1,0.2-2.3-1-3.1c1.7-3.1-1-7.6,3.4-9.8c0,0,0,0,0,0C731.2,833.3,729.1,837.4,727.9,841.6z
			"/>
		<path class="st14" d="M233.7,868.6c0.4,0.1,0.9,0.2,1.3,0.3c-6.4,3.1-12.8,6-20,2C221.6,872.5,227.7,870.9,233.7,868.6z"/>
		<path class="st14" d="M684.5,868.9c0.5-0.1,0.9-0.2,1.4-0.3c6,2.3,12.1,3.9,18.7,2.2C697.4,874.9,691,871.9,684.5,868.9z"/>
		<path class="st15" d="M732.5,811.9c0.4,1,0,2.4,1.1,3.2c0,3.4-0.7,6.7-1.9,9.8c-0.2-1,0.2-2.2-0.9-3c-0.1-0.7-0.1-1.3-0.2-2
			C732.2,817.5,730.9,814.4,732.5,811.9z"/>
		<path class="st14" d="M215.1,870.9c-3.7-1.1-6.2-3.6-8-6.9C210.2,865.8,212.8,868.2,215.1,870.9z"/>
		<path class="st14" d="M712.5,864c-1.8,3.3-4.3,5.8-8,6.9C706.8,868.2,709.4,865.8,712.5,864z"/>
		<path class="st16" d="M730.8,821.9c1.1,0.8,0.7,2,0.9,3c-0.2,1.4,0.4,3.1-1.6,3.8c0,0,0,0,0,0c0.1-1.4-2.5-2.5-0.5-4.2
			C730.9,824,730.4,822.8,730.8,821.9z"/>
		<path class="st15" d="M733.5,803.1c0.2,1.8,0.7,3.6-0.7,5.1C732.6,806.5,732.6,804.7,733.5,803.1z"/>
		<path class="st5" d="M730.8,821.9c-0.4,0.9,0.1,2.1-1.1,2.7c0.2-1.6-0.5-3.3,0.9-4.6C730.7,820.6,730.8,821.3,730.8,821.9z"/>
		<path class="st5" d="M730.2,828.7c1.9-0.7,1.4-2.4,1.6-3.8c1.2-3.2,2-6.4,1.9-9.8l0,0c1.2-1.8,1.1-3.8,1.1-5.9
			c3.3-15.8,4.1-31.9,4.5-48c0.8-40.1-7-78.9-17.7-117.2c-9-32.4-21.3-63.5-37.9-92.8c-2.3-4.1-1.7-6.3,1.5-9.3
			c5.1-4.9,9.7-10.5,14.5-15.8c0.3,0.3,0.7,0.7,1,1c-0.4,0.6-0.7,1.2-1.1,1.8c-3,4-5.7,8.2-9.1,11.8c-3,3.1-3.2,5.7-0.5,8.7
			c2.6,5.2,5.2,10.4,7.7,15.7c6.8,14.4,13.5,28.8,20.2,43.2c0.4,1.2,0.9,2.4,1.3,3.6c1.9,5,3.7,9.9,5.6,14.9c0.8,4,2.2,7.9,3.9,11.6
			c2.5,9.6,4.8,19.2,7.6,28.7c6.4,21.4,10.6,43.3,11.7,65.5c1.2,26.8-1.2,53.6-6.1,80c-5.8,31-16.4,60.7-25.8,90.8
			c-0.4,1.2-1.1,2.3-1.7,3.4c-1.2,0.8-1.7,2.5-0.6,3c1.3,0.6,1.3-1.1,1.5-2.1c1.9-1.6,3.7-3.3,5.6-4.9c0.9,0.1,1.8,0.3,2.3,1.2
			c-7.1,6.1-12.9,13.8-22.7,18c11.3-25.4,20-50.7,26.9-76.6c0.3-1.2,0.5-2.5,0.8-3.8C729.1,837.4,731.2,833.3,730.2,828.7z"/>
		<path class="st9" d="M761,647.1c3.6,12.1,6.1,24.4,8.1,36.8c4,25.3,4.5,50.7,2.2,76.2c-4,43.2-16.8,84.2-32.9,124.2
			c-0.7,1.8-1.3,3.7-1.9,5.5c-1.3,1.7-1.6,4.1-3.7,5.2c-0.4-0.4-0.8-0.8-1.1-1.3c8-22.3,17.6-44,24-66.9
			c13.7-48.4,18-97.3,9.6-147.1c-1.7-9.9-3.5-19.7-5.3-29.6C760.3,649.2,759.7,647.8,761,647.1z"/>
		<path class="st5" d="M270.9,925.4c10.7,0,21.5-0.4,32.2,0.1c44.5,1.9,89-0.3,133.5,1.1c42.1,1.3,84.2-0.4,126.2,1
			c31.3,1,62.7,0.2,94,0.9c-0.8,1.2-2,1.4-3.4,1.4c-76.6-0.6-153.2-1.3-229.8-1.9c-49.1-0.4-98.2-0.8-147.4-1.2
			c-1.8,0-3.6-0.2-5.3-0.3C270.9,926.1,270.9,925.7,270.9,925.4z"/>
		<path class="st17" d="M731.5,893.8c0.4,0.4,0.8,0.8,1.1,1.3c-3,3.2-5.8,6.7-9.7,8.9c-0.5-0.9-1.4-1-2.3-1.2
			C724.3,899.8,727.9,896.8,731.5,893.8z"/>
		<path class="st18" d="M270.9,925.4c0,0.4,0,0.7,0,1.1c-4.3,0.4-8.9,1.3-9.9-4.9c1.5-0.3,2.8,0.2,4.1,0.9c1,0.3,2,0.6,3,1
			C269.3,923.4,270.3,924.1,270.9,925.4z"/>
		<path class="st6" d="M690.7,691.1c-0.3,0.3-0.6,0.6-1,1c-0.5-2.9,0-6-2.8-8.4c-1-0.9-0.8-3.3-1-5.1c-0.1-1.3-1.6-7.1-2.2-9.2
			c-1-3.2-1.6-6.6-2.4-9.8c-4.5-17.9-10.2-35.4-16.1-52.9c-2.4-7.1-3-14.9-6.9-21.4c-4.5-7.6-7.8-15.6-11.3-23.6
			c-0.4-1-1-1.2-1.8-0.5c-0.1-0.3-0.3-0.6-0.4-1c-0.2-2.4-0.7-4.6-2.8-6.1c-1.3-1.7-3.3-1-4.9-1.1c-11.6-0.1-23.2,0-34.8-0.1
			c-1.8,0-4,0.6-5.3-1.5c-1.5-2-3.6-1.1-5.4-1.1c-69.9-0.2-139.9,0.2-209.8-1c-1.4,0-2.9,0-4.3,0c5.5-1,11-1,16.4-1
			c66.4,0.1,132.8,0.1,199.2,0.2c16.7,0,33.5-0.2,50.2-0.3c1.6,0.5,2.8,1.6,3.4,3.2c12.8,28.7,24.3,57.8,33.1,88
			c0.2,0.8,0.3,1.6,0.4,2.4c0.2,7.9,3.7,15,5.2,22.6C687.1,673.4,690,682,690.7,691.1z"/>
		<path class="st19" d="M643.2,548.3c-16.7,0.1-33.5,0.3-50.2,0.3c-66.4,0-132.8-0.1-199.2-0.2c-5.5,0-11,0-16.4,1
			c1.4,0,2.9,0,4.3,0c69.9,1.1,139.9,0.8,209.8,1c1.8,0,4-0.9,5.4,1.1c-32.8-0.1-65.7-0.3-98.5-0.3c-49.1-0.1-98.2,0-147.2-0.2
			c-6.5,0-13,0.8-19.5-0.4c-2.9-0.6-6.5-1-9,1.8c0-0.7,0-1.3,0-2c1.9-1.2,4-1,6.1-1c9.3,0,18.6,0,27.9,0c0-0.3,0-0.6,0-0.9
			c-9.7,0-19.4,0-29.1,0c-1.5-1.6-3.3-0.8-5-0.8c-9.9,0-19.8-0.2-29.7-0.1c-5.4,0.1-10.6,3.2-16.2,0.8c4-1.8,8.4-1.6,12.6-1.6
			c17.7-0.1,35.4,0.1,53.2,0.1c98.2,0.3,196.4,0.7,294.6,1.1C639.1,548,641.2,547.3,643.2,548.3z"/>
		<path class="st6" d="M276.6,548.5c5.5,2.4,10.8-0.7,16.2-0.8c9.9-0.1,19.8,0,29.7,0.1c1.5,1.2,3.3,0.7,5,0.8c9.7,0,19.4,0,29.1,0
			c0,0.3,0,0.6,0,0.9c-9.3,0-18.6,0-27.9,0c-2.1,0-4.2-0.2-6.1,1c-1-0.3-2-0.7-2.9-1c-0.8-1.1-2-1-3.1-1c-7.4,0-14.9,0-22.3,0
			c-0.8,0-2-0.4-2.3,2c9.4-0.8,18.6,1.1,27.8-1.1c0.7,2.5-0.4,2.9-2.6,2.9c-11.1-0.1-22.3-0.1-33.4,0c-1.7,0-3.6-0.7-5,1
			c-2.9,3.8-4.6,8.1-5.9,12.6c-4.2,8.2-7.6,16.8-10.6,25.6c-0.4,0.3-0.7,0.6-1.1,1c-1.9,2.1-3,4.5-2.9,7.5c0,4-1.8,7.6-3.1,11.2
			c-11,30.5-19.2,61.7-24.2,93.8c-1,6.7-2.2,13.3-3.6,21.4c-0.8-7.1,0.4-12.9,1-18.5c2.1-20.8,7.1-41,12.7-61.1
			c0.4-1.6,0.8-3.1,0.5-4.8c5.2-20.3,12.5-39.9,20.2-59.3C266.3,571.1,271.1,559.6,276.6,548.5z"/>
		<path class="st20" d="M715,531.1c3.5,7.6,7,15.1,10.6,22.7c12.4,25.9,24.1,52.1,32.1,79.9c0.6,2.1,0,4.5,1.5,6.4
			c-0.3,1.1,0.1,2.5-1.3,3.2c-4.5-15.4-9.7-30.5-16.4-45.1c-0.9-3.4-2.4-6.6-4-9.7c-1.4-3.6-2.5-7.3-4.9-10.5
			c-1.2-1.5-0.3-3.8-2-5.1c-3.1-7.8-6.6-15.3-10.6-22.6c-4.5-9.9-9-19.8-14.6-29.1c-0.4-0.4-0.7-0.7-1.1-1.1
			c0.7-1.3,1.4-2.5,2.3-4.3C709.6,521.2,712.3,526.2,715,531.1z"/>
		<path class="st21" d="M704.3,520.1c0.4,0.4,0.7,0.7,1.1,1.1c-1.6,2-3.3,3.9-4.9,5.9c-0.3-0.3-0.7-0.7-1-1
			C700.8,523.8,702.4,521.8,704.3,520.1z"/>
		<path class="st15" d="M734.7,809.2c0,2,0.1,4.1-1.1,5.9C733.7,813.1,732.9,810.9,734.7,809.2z"/>
		<path class="st22" d="M757.9,643.3c1.4-0.7,1-2.1,1.3-3.2c1.2,2.2,1.6,4.6,1.8,7c-1.3,0.7-0.8,2.1-1.1,3.1
			C759.2,647.9,758.5,645.6,757.9,643.3z"/>
		<path class="st23" d="M272.7,565.9c1.4-4.5,3-8.8,5.9-12.6c12.8-0.1,25.6-0.1,38.4-0.2c1.9,0,3.9,0.7,5.6-0.7
			c2.6-2.8,6.1-2.3,9-1.8c6.5,1.2,13,0.4,19.5,0.4c49.1,0.2,98.2,0.1,147.2,0.2c32.8,0,65.7,0.2,98.5,0.3c1.3,2.1,3.4,1.5,5.3,1.5
			c11.6,0.1,23.2,0,34.8,0.1c1.7,0,3.6-0.7,4.9,1.1c0.2,2.4,1.2,4.4,2.8,6.1c0.1,0.3,0.3,0.6,0.4,1c-0.5,0.9,0.1,1.4,0.6,2
			c0.5,2.8,0.6,5.8,3.2,7.7c0,0,0-0.1,0-0.1c-0.2,3.1,0.7,5.7,2.7,8c0.3,2.1,0.9,4.1,1.9,5.9c-0.1,2.5,0.2,4.8,2.2,6.7l0-0.1
			c-0.8,2.5,0.9,4.7,0.8,7.1l0,0c-0.8,0-1.6,0-2.4,0c-129.2,0-258.5,0-387.7,0c-2.2,0-4.6,0.9-6.4-1.1c-0.2-1.1,0.3-2,1.1-2.7
			c0.6,0.3,1.2,0.7,1.9,1l0.1,0.1c1.5,1.5,3.4,0.9,5.1,0.9c10,0.1,20.1,0.1,30.1,0c2.9,0,5.8,0.8,8.6-0.6c0.7-0.1,1.4-0.2,2-0.3
			c2.9,0,5.9,0,8.8,0c0.4,0,0.7-0.1,1.1-0.1c0.9,0,1.9,0,2.8,0c14.6,0,29.3,0,43.9,0c16,0,31.9,0,47.9,0c12.4,0,24.8,0,37.2,0
			c0.6,0,1.2-0.1,1.8-0.1c0.6,0,1.2,0.1,1.9,0.1c0.4,0,0.7,0,1.1,0c25.4,0,50.8,0,76.1,0c24.9,0,49.9,0,74.8,0c1.8,0,4,0.8,5.4-1.2
			c0.6,0.4,1.2,0.8,1.8,1.2c0.4,0.3,0.8,0.8,1.2,0.8c12.3,0.1,24.7,0.1,37,0.1c1.6,0,3-0.8,2.4-2.7c-1-3.3-1-7.1-3.7-9.8l0,0.1
			c-0.3-4-0.9-7.9-4.1-10.8c-0.9-0.7-0.7-1.7-0.8-2.6c0.4-3.3-1.7-5.9-2.4-8.8c-1-4.3-3.4-5.5-7.7-5.4c-13.5,0.2-27,0.1-40.5,0.1
			c-44.9,0-89.8,0-134.7,0c-2.1,0-4.7-0.9-5.8,2.1c0,0.2,0,0.4,0,0.6c-0.1,1.7-0.1,3.4-0.2,5.1c-1.8,3.1-0.5,6.6-0.8,9.8
			c-0.6,6.5,1.1,13.1-1,19.5c-2-3.8-0.5-7.9-0.9-11.8c2-4.1,0.4-8.5,0.9-12.7c0-2.3,0.1-4.5,0.1-6.8c1.3-1.6,1.3-3.2,0-4.8l-0.1-0.1
			c-1.5-1.5-3.4-0.9-5.1-0.9c-19.3,0-38.7,0-58,0c-35.3,0-70.5,0-105.8,0c-2.1,0-4.8-0.9-5.7,2.3c-0.1,2.9-2.4,4.8-3,7.5
			C274.2,565.8,273.2,568.9,272.7,565.9z"/>
		<path class="st24" d="M304.9,601.1c-1.5-1.4-3.4-0.8-5.1-0.8c-11.9-0.1-23.9,0-35.8-0.1c-1.6,0-3.6,0.8-4.8-1.2
			c1.6,0.2,3.2,0.5,4.8,0.5c129.2,0,258.4,0,387.6,0c1.7,0,3.6,0.8,4.9-1.2l0,0c1.4-0.7,0.6-2,0.9-3c2.4,3.9,0.1,4.9-3.2,4.9
			c-9,0.1-18.1,0-27.1,0c-1.9,0-3.9,0.1-5.8,0.2c-1.9,0-3.9-0.9-5.7,0.6l-0.3,0.2c-1.5-0.1-2.9-0.2-4.4-0.2c-82,0-163.9,0-245.9,0.1
			c-20,0-40,0.1-60,0.2L304.9,601.1z"/>
		<path class="st25" d="M644.8,777c-0.4,0-0.8-0.1-1.3-0.1c1.5-23.1,0.1-46.1-2.8-69.1c-1.8-14-4.6-27.9-6.8-41.8
			c0.1-0.8,0.2-1.6,0.3-2.3c2.2,5.4,2.7,11.3,3.7,16.9c3.6,20.2,6,40.5,7.2,61.1C645.8,753.5,645.7,765.2,644.8,777z"/>
		<path class="st26" d="M634.2,663.6c-0.1,0.8-0.2,1.6-0.3,2.3c-0.9-2.7-1.8-5.4-2.7-8.1c0.3-2.1-0.6-3.9-1.2-5.8
			c-2.6-9.5-5.2-19-7.7-28.6c-0.3-1.1-0.8-1.7-1.9-1.9c0.1-6.9-3.3-12.8-5.1-19.2c0.1-0.3,0.1-0.6,0-0.9c0,0,0.3-0.2,0.3-0.2
			c3.2,3.9,3,9.2,5.4,13.5c0.6,1.1,0.8,2,2.2,1.3c0.3,13.2,6.1,25.1,8.6,37.8C632.6,657,633.5,660.3,634.2,663.6z"/>
		<path class="st5" d="M623.3,615.9c-1.4,0.7-1.6-0.2-2.2-1.3c-2.4-4.3-2.2-9.6-5.4-13.5c1.8-1.5,3.8-0.6,5.7-0.6
			c0.1,1.4-0.4,2.5-1.2,3.5c-0.6,0.8-1.1,2.2-0.1,2.5c4.3,1.5,3.9,4.3,2.6,7.6C622.5,614.6,623.1,615.3,623.3,615.9z"/>
		<path class="st27" d="M651.7,578.8c-2.1-2.3-2.9-5-2.7-8C650.3,573.3,651.5,575.9,651.7,578.8z"/>
		<path class="st27" d="M649,570.8c-2.6-1.9-2.7-4.9-3.2-7.7C647.8,565.3,648.3,568.1,649,570.8z"/>
		<path class="st27" d="M655.8,591.4c-2-1.8-2.2-4.2-2.2-6.7C655.3,586.6,655.5,589,655.8,591.4z"/>
		<path class="st27" d="M657.5,595.4c-0.3,1,0.5,2.3-0.9,3c0.1-2.4-1.6-4.6-0.8-7.1C656.3,592.6,656.9,594,657.5,595.4z"/>
		<path class="st27" d="M656.6,598.3c-1.2,1.9-3.2,1.2-4.9,1.2c-129.2,0-258.4,0-387.6,0c-1.6,0-3.2-0.3-4.8-0.5
			c0.3-0.6,0.5-1.3,0.8-1.9c1.8,2.1,4.3,1.1,6.4,1.1c129.2,0,258.5,0,387.7,0C655,598.3,655.8,598.3,656.6,598.3z"/>
		<path class="st28" d="M263,595.4c-0.6-0.3-1.2-0.7-1.9-1c0-0.7,0-1.3,0-2c0.4-0.3,0.7-0.6,1.1-1C263.5,592.5,262.9,594,263,595.4z
			"/>
		<path class="st29" d="M317.9,923.4c-3-6.3-6.3-12.5-8-19.4c2.5,1.2,3.9-1,5.4-2.1c5.8-4.1,11.4-8.4,17.1-12.6
			c0.3,0.3,0.6,0.7,0.9,1c0.2,0.8,0.4,1.6,0.8,2.3c4,8.9,8,17.7,12,26.6c1.3,2.9,1.2,4.5-2.7,4.2c-3-0.2-6.1,0.1-9.2,0.2
			C328.8,923.5,323.3,923.4,317.9,923.4z"/>
		<path class="st5" d="M511.1,925.2c0,0.4,0,0.7,0,1.1c-10.1,0-20.2,0.4-30.2-0.1c-41.5-2-83.1-0.2-124.6-1.1
			c-4.3-0.1-8.9,1.7-13.1-0.9c2.6-0.3,5.2-0.5,7.8-0.8c9.7,0.2,19.4,0.3,29.1,0.5c16.7,0.2,33.3,0.9,50,0.3
			c12.8,0.1,25.6,0.2,38.3,0.3C482.6,924.8,496.8,925,511.1,925.2z"/>
		<path class="st30" d="M350.9,923.5c-2.6,0.3-5.2,0.5-7.8,0.8c-2.9-0.7-6,0.4-8.9-0.7c3.1-0.1,6.2-0.5,9.2-0.2
			c3.9,0.3,4-1.3,2.7-4.2c-4-8.8-8-17.7-12-26.6c-0.3-0.7-0.5-1.5-0.8-2.3c0.1-1.4-0.1-2.9,2-2.9c4.1,6.6,6.4,14,9.7,21
			C347.3,913.2,350.3,917.9,350.9,923.5z"/>
		<path class="st31" d="M511.1,925.2c-14.2-0.2-28.5-0.4-42.7-0.6c-12.8-0.1-25.6-0.2-38.3-0.3c-1.4-1.2-3.1-0.8-4.7-0.8
			c-9.1-0.1-18.2-0.4-27.3,0c-4.4,0.2-6.2-1.6-7.9-5.4c-7.9-17.9-15.5-36-22.8-54.2c0-0.3,0-0.7,0.1-1c8.6-6.1,17.2-12.1,25.6-18.4
			c5.5-4.2,11.9-7.3,16.4-12.8c32.4,0.1,64.7,0.2,97.1,0.3c40.5,0.1,81,0.3,121.5,0.3c4.5,0,4.9,1.1,3.8,5.1
			c-6.8,24.6-14.5,49-23.4,72.9c-5.7,15.3-5.8,15.2-21.9,15.1c-23.6-0.2-47.2-0.4-70.8-0.5C514.3,925,512.7,925.1,511.1,925.2z"/>
		<path class="st32" d="M409.5,831.8c-4.5,5.5-10.9,8.6-16.4,12.8c-8.4,6.3-17.1,12.3-25.6,18.4c-1.7-2.3-2.1-5.2-3-7.8
			c0.2-1.9,1.9-2.5,3.2-3.4c9-6.7,18.2-13.3,27.2-20C399.7,831.7,404.6,831.8,409.5,831.8z"/>
		<path class="st31" d="M394.9,831.7c-9.1,6.7-18.2,13.3-27.2,20c-1.2,0.9-3,1.5-3.2,3.4c-0.3,0-0.6-0.1-0.9-0.1
			c-1.1-5.4-2.8-10.5-4.9-15.6c0-0.6,0-1.3,0-1.9c2.4-1.7,5.1-3.1,6.9-5.6c0.1-0.1,0.2-0.3,0.1-0.5
			C375.4,831.6,385.1,831.7,394.9,831.7z"/>
		<path class="st32" d="M615.4,602.3c1.8,6.4,5.2,12.3,5.1,19.2c0.2,0.7,0.5,1.4,0.7,2.2c-15.7,13.5-31.5,26.8-47.8,39.7
			c-18.3,14.4-36.6,28.8-54.7,43.5c-5.9,4.8-12.6,8.5-17.5,14.5c-0.3,0.3-0.7,0.6-1,1c-7,3.5-12.6,9-18.7,13.8
			c-10.5,8.3-21.2,16.3-31.1,25.3c-6.8,4.1-12.9,9.2-18.5,14.7c-12.8,0-25.7,0.2-38.5,0.1c-16.8,0-33.5-0.2-50.3-0.3
			c-0.3-0.3-0.6-0.6-1-0.9c-0.1-1.6,0-3.2-0.3-4.8c-1.8-12-3.1-23.9-2.6-36.1c2-1.8,3.9-3.9,6.1-5.5c15.9-11.9,32-23.6,47.9-35.6
			c33.2-25,67.3-48.9,101.2-73c8.2-5.8,16.7-11.1,24.3-17.7c13.3-0.1,26.6-0.2,40-0.2C577.7,602.1,596.5,602.2,615.4,602.3z"/>
		<path class="st31" d="M621.3,623.7c-0.2-0.7-0.5-1.4-0.7-2.2c1,0.2,1.6,0.8,1.9,1.9c2.5,9.5,5.1,19,7.7,28.6
			c-2.9-0.2-4.3,1.9-5.8,3.9c-7.3-1.1-8.3-0.5-10.8,6.5c-0.2,0.4-0.4,1.2-0.6,1.2c-4.8-0.2-6.7,4.1-10,6.2
			c-5.8,3.6-10,8.8-15.6,12.6c-4.4,2.9-8.3,6.5-12.1,10.2c-3.3,3.3-7.9,5.1-11.4,8.1c-8.4,7.4-17.4,13.8-26,20.8
			c-11.3,9.2-23.3,17.5-34.9,26.2c-10.1,7.5-19.8,15.5-30.6,22c-1.9,1.2-5.2,2.6-4.5,5.1c0.6,2.4,3.6,0.8,5.6,1
			c6.3-0.5,12.5,1.3,18.5-3.3c28.1-21.5,56.6-42.6,83.8-65.3c15.2-12.7,30.6-25,44.6-38.9c3.6-3.5,7.3-6.9,10.9-10.4
			c0.9,2.7,1.8,5.4,2.7,8.1c2.2,13.9,5.1,27.8,6.8,41.8c2.9,23,4.3,46,2.8,69.1c-1.5,0.1-2.9,0.3-4.4,0.3
			c-63.7-0.2-127.4-0.5-191.2-0.7c-1.1,0-2.3-0.2-3.4-0.3c0.2-0.3,0.2-0.7,0.5-0.8c18.1-14.4,36.2-28.8,54.3-43.2
			c14.8-11.8,29.7-23.5,44.5-35.3c15.4-12.3,30.9-24.6,46.2-37c10.2-8.2,20.3-16.6,30.2-25.1c2.3-2,3.8-5,1-8.1
			C621.3,625.6,621.3,624.7,621.3,623.7z"/>
		<path class="st31" d="M621.4,626.6c2.8,3.1,1.3,6.1-1,8.1c-9.9,8.5-20,16.9-30.2,25.1c-15.3,12.4-30.8,24.7-46.2,37
			c-14.8,11.8-29.7,23.5-44.5,35.3c-18.1,14.4-36.2,28.8-54.3,43.2c-0.2,0.2-0.3,0.6-0.5,0.8c-3.3,0.4-6.5,0.4-9.7,0
			c4.3-4.9,10.4-7.7,14.7-12.8c0.6-0.2,1.4-0.2,1.8-0.6c14.8-11.7,29.6-23.4,44.2-35.4c1.7-1.4,4.7-2,4.8-5.1c0.3-0.3,0.7-0.6,1-1
			c3.5,0.1,5.4-2.7,7.8-4.5c16.7-13.1,33.3-26.2,49.8-39.5c14.9-11.9,29.6-24.2,44.5-36.1C609.4,636.5,614.6,630.6,621.4,626.6z"/>
		<path class="st33" d="M342.2,775c0.3,0.3,0.6,0.6,1,0.9c-13.7,0-27.3,0-41,0c-8.1,0-16.3,0-24.4,0c-0.1-0.3-0.2-0.6-0.2-0.9
			c3.7,0,7.4-0.1,11.1,0c7.9,0.1,7.9,0.1,7.6-7.4c0-0.5,0-1,0-1.4c2.1,0.1,1.5-2.2,2.8-2.9c0.1,0.7,0.1,1.3,0.1,2
			c0.2,1.1,0.4,2.2,0.5,3.3c0.3,5.3,3,6.7,8.3,6.5C319.4,774.7,330.8,775,342.2,775z"/>
		<path class="st34" d="M449.5,763.3c-4.2,5-10.3,7.8-14.7,12.8c-1,0-2,0-2.9,0c5.7-5.5,11.7-10.6,18.5-14.7
			C450.2,762,449.9,762.7,449.5,763.3z"/>
		<path class="st29" d="M296.4,766.2c0,0.5,0,1,0,1.4c0.3,7.5,0.3,7.5-7.6,7.4c-3.7,0-7.4,0-11.1,0c-1.1-1-0.7-2.4-0.8-3.7
			c-0.7-16.5-0.8-33,1.7-49.4c0.9,3.1,2.4,1,3.5,0.2c4.1-2.9,8.2-5.9,12.2-8.8c0,2.6,0.1,5.2,0.1,7.8c-0.1,5.7-0.2,11.3-0.1,17
			C294.3,747.6,294.2,757,296.4,766.2z"/>
		<path class="st29" d="M281.7,695.9c1.6-14.7,5-29,8.6-43.3c4.2-17,9.1-33.8,15-50.3c2.1-0.1,4.2,0,6.3-0.2
			c3.4-0.3,4.6,0.5,3.4,4.3c-2.5,7.7-4.6,15.5-6.5,23.4c-3.7,14.8-7.3,29.5-9.1,44.7c-0.3,0.7-0.6,1.3-0.9,2
			c-7.1,3.9-15.2,6.8-15.6,16.9C282.7,694.3,282.6,695.3,281.7,695.9z"/>
		<path class="st35" d="M299.2,674.4c1.8-15.1,5.4-29.9,9.1-44.7c2-7.9,4.1-15.7,6.5-23.4c1.2-3.8,0.1-4.6-3.4-4.3
			c-2.1,0.2-4.2,0.1-6.3,0.2c-0.1-0.3-0.1-0.6,0-0.9c20-0.1,40-0.2,60-0.2c82,0,163.9,0,245.9-0.1c1.5,0,2.9,0.1,4.4,0.2
			c0.1,0.3,0.1,0.6,0,0.9c-18.8-0.1-37.7-0.2-56.5-0.2c-13.3,0-26.6,0.1-40,0.2c-24.4,0-48.8,0-73.2-0.1c-14.6,0-29.3,0-43.9,0.1
			c-13.3,0-26.6,0.1-39.9,0.1c-13-0.1-26,0-38.9-0.2c-2.9,0-3.7,1.2-4.5,3.8c-6.6,21.5-11.6,43.3-15.5,65.5
			C301.8,672.6,301.4,674.6,299.2,674.4z"/>
		<path class="st36" d="M281.7,695.9c0.9-0.6,1-1.6,1-2.6c0.4-10.1,8.5-13,15.6-16.9c-1.4,12.4-2.7,24.7-4.1,37.1
			c-4.1,2.9-8.1,5.9-12.2,8.8c-1.1,0.8-2.6,2.9-3.5-0.2C278.6,713.2,280.2,704.6,281.7,695.9z"/>
		<path class="st36" d="M311.9,831.6c2.3,11.2,7.3,21.5,10.7,32.3c0,1.5-0.3,2.7-1.6,3.8c-5.3,4.2-10.5,8.5-15.5,13
			c-1.6,1.4-2.4,0.8-3.5-0.1c-5.7-16-10.8-32.2-14.5-48.9C295.6,831.6,303.8,831.6,311.9,831.6L311.9,831.6z"/>
		<path class="st29" d="M302,880.5c1.1,0.9,1.9,1.5,3.5,0.1c5-4.5,10.3-8.8,15.5-13c1.3-1.1,1.6-2.3,1.6-3.8c0.3,0,0.5,0.1,0.8,0.1
			c0.8,5.7,3.5,10.6,5.9,15.7c0,0.3,0,0.6-0.1,0.9c-7.4,3.5-13,9.6-19.9,13.8c-1.4,0.9-1.3,2.5-1.5,4
			C305.4,892.5,303.4,886.6,302,880.5z"/>
		<path class="st36" d="M307.8,898.3c0.2-1.4,0.1-3.1,1.5-4c6.9-4.2,12.5-10.3,19.9-13.8c1,2.9,3.1,5.5,3.2,8.7
			c-5.7,4.2-11.3,8.5-17.1,12.6c-1.6,1.1-2.9,3.3-5.4,2.1C308.8,902.2,308.1,900.3,307.8,898.3z"/>
		<path class="st10" d="M311.9,831.6c-8.1,0-16.3,0-24.4,0.1c1.2-2.1,3.2-1,4.8-1C298.8,831.1,305.4,829.6,311.9,831.6z"/>
		<path class="st37" d="M325.6,861.9c-3.7-9.8-7.4-19.6-10.4-30c14.2,0,28,0,41.7,0c-0.5,1.4,0.3,2.5,0.8,3.7c0,0.6,0,1.3,0.1,1.9
			c-1.7-1-2.6,0.3-3.7,1.2C344.6,846.4,335.1,854.1,325.6,861.9z"/>
		<path class="st38" d="M358.7,839.5c2.1,5.1,3.7,10.3,4.9,15.6c-10.8,7-20.9,14.9-31.2,22.5c-0.3,0-0.6,0-0.9,0
			c-1.7-4.5-3.3-9.1-5-13.6c0-0.3,0-0.7,0.1-1c7.6-4.6,13.6-11.2,20.9-16.3C351,844,353.3,839.2,358.7,839.5z"/>
		<path class="st39" d="M358.7,839.5c-5.4-0.2-7.7,4.6-11.3,7.1c-7.2,5.1-13.2,11.7-20.9,16.3c-0.3-0.3-0.6-0.7-0.9-1
			c9.5-7.7,19-15.4,28.5-23.2c1.1-0.9,2-2.2,3.7-1.2c0.3,0,0.6,0.1,0.8,0.1C358.7,838.2,358.7,838.8,358.7,839.5z"/>
		<path class="st40" d="M326.4,863.9c1.7,4.5,3.3,9.1,5,13.6c-0.4,1-1.1,1.7-2.1,2.1c-2.4-5-5.1-10-5.9-15.7
			C324.4,863.9,325.4,863.9,326.4,863.9z"/>
		<path class="st41" d="M357.8,835.6c-0.6-1.2-1.3-2.3-0.8-3.7c2.2,0,4.4,0.1,6.5,0.1C361.9,833.7,360.1,835.1,357.8,835.6z"/>
		<path class="st42" d="M357.8,835.6c2.4-0.5,4.1-1.9,5.7-3.6c0.7,0,1.4,0,2,0c-1.7,2.6-4.4,3.9-6.9,5.6c-0.3,0-0.6-0.1-0.8-0.1
			C357.8,836.8,357.8,836.2,357.8,835.6z"/>
		<path class="st43" d="M757.9,643.3c0.7,2.3,1.4,4.6,2,6.9c1.8,9.9,3.6,19.7,5.3,29.6c8.4,49.8,4.1,98.7-9.6,147.1
			c-6.5,22.9-16,44.6-24,66.9c-3.6,3-7.2,6-10.8,9c-1.9,1.6-3.7,3.3-5.6,4.9c-0.3-0.3-0.6-0.6-0.9-0.9c0.6-1.1,1.3-2.2,1.7-3.4
			c9.4-30,20-59.7,25.8-90.8c5-26.4,7.3-53.2,6.1-80c-1-22.2-5.3-44.1-11.7-65.5c-2.8-9.5-5.1-19.1-7.6-28.7c1.7-0.1,2-1.3,2.4-2.6
			c4-12.4,7.9-24.8,10.5-37.6C748.2,612.8,753.4,628,757.9,643.3z"/>
		<path class="st38" d="M720,550.4c4,7.3,7.6,14.8,10.6,22.6c-4.3,11.8-8.5,23.6-12.8,35.4c-6.7-14.4-13.4-28.8-20.2-43.2
			c-2.5-5.3-5.2-10.5-7.7-15.7c3.3-1.1,3.4-4.8,5.7-6.8c2.1-1.6,2-4.8,4.5-6.4c1,1.6,1.9,3.1,2.9,4.5c3.3,4.6,6.3,9.4,10,13.7
			c2.5,3,4.4,2.4,5-1.4C718.1,551.3,719.2,551.1,720,550.4z"/>
		<path class="st44" d="M741.5,598.2C739,611,735,623.4,731,635.8c-0.4,1.3-0.7,2.5-2.4,2.6c-1.7-3.7-3-7.6-3.9-11.6
			c3.1-10.1,6.1-20.3,9.4-30.4c0.9-2.7,0.1-6.2,3.3-7.9C739.1,591.7,740.6,594.8,741.5,598.2z"/>
		<path class="st43" d="M720,550.4c-0.8,0.8-1.9,0.9-2.2,2.7c-0.6,3.8-2.5,4.4-5,1.4c-3.6-4.3-6.7-9.1-10-13.7c-1-1.4-1.9-3-2.9-4.5
			c-2.5,1.6-2.3,4.8-4.5,6.4c-0.2-2.2,1.4-3.9,1.9-5.9c0.6-2.6,3.3-4.7,2-7.8c0.4-0.6,0.7-1.2,1.1-1.8c1.6-2,3.3-3.9,4.9-5.9
			C711,530.6,715.6,540.5,720,550.4z"/>
		<path class="st45" d="M737.5,588.5c-3.3,1.7-2.5,5.2-3.3,7.9c-3.3,10.1-6.3,20.2-9.4,30.4c-1.9-5-3.7-9.9-5.6-14.9
			c0.6-1.1,1.3-2.2,1.8-3.4c3.9-10.2,7.8-20.3,11.7-30.5C735,581.2,736.1,584.9,737.5,588.5z"/>
		<path class="st46" d="M732.6,578c-3.9,10.2-7.7,20.3-11.7,30.5c-0.5,1.2-1.2,2.2-1.8,3.4c-0.4-1.2-0.9-2.4-1.3-3.6
			c4.3-11.8,8.5-23.6,12.8-35.4C732.4,574.2,731.4,576.6,732.6,578z"/>
		<path class="st47" d="M699.4,528.9c1.4,3.1-1.3,5.2-2,7.8c-0.5,2-2.1,3.6-1.9,5.9c-2.2,2-2.4,5.7-5.7,6.8
			c-2.8-3.1-2.5-5.6,0.5-8.7C693.8,537.2,696.4,532.9,699.4,528.9z"/>
		<path class="st17" d="M714.3,906.8c0.3,0.3,0.6,0.6,0.9,0.9c-0.2,1-0.2,2.7-1.5,2.1C712.5,909.3,713.1,907.6,714.3,906.8z"/>
		<path class="st27" d="M644.8,560.2c-1.6-1.7-2.6-3.7-2.8-6.1C644.1,555.6,644.6,557.9,644.8,560.2z"/>
		<path class="st48" d="M322.6,552.4c-1.7,1.4-3.7,0.7-5.6,0.7c-12.8,0.1-25.6,0.2-38.4,0.2c1.4-1.7,3.3-1,5-1
			c11.1-0.1,22.3-0.1,33.4,0c2.3,0,3.4-0.4,2.6-2.9l0,0c1,0.3,2,0.7,2.9,1C322.6,551.1,322.6,551.8,322.6,552.4z"/>
		<path class="st48" d="M327.5,548.5c-1.7-0.1-3.5,0.5-5-0.8C324.2,547.7,326,546.9,327.5,548.5z"/>
		<path class="st49" d="M263,595.4c-0.1-1.3,0.6-2.8-0.8-3.9c3-8.8,6.4-17.3,10.6-25.6c0.5,3,1.4-0.1,2.1,0.2
			c-1.4,5.6-4.8,10.5-6.6,16c-1.4,4.4-4.1,8.3-4,13.2c-0.4,0.1-0.8,0.1-1.2,0.2L263,595.4z"/>
		<path class="st50" d="M319.7,549.5c-9.2,2.2-18.4,0.3-27.8,1.1c0.3-2.4,1.5-2,2.3-2c7.4,0,14.9,0,22.3,0
			C317.7,548.5,318.9,548.4,319.7,549.5C319.7,549.5,319.7,549.5,319.7,549.5z"/>
		<path class="st31" d="M452.6,562.1c0,2.3-0.1,4.5-0.1,6.8c-0.3,0.3-0.7,0.7-1,1c-0.3,0-0.6,0-0.9,0c-2-0.6-3.1,1.1-4.4,2
			c-11,7.4-21.8,14.9-32.7,22.4c-14.3,0-28.5,0-42.8,0c-1.7,0-3.6-0.6-5.1,0.9c-14.6,0-29.3,0-43.9,0c0.3-0.3,0.6-0.7,1-1
			c12.9,0,25.9,0.1,38.8,0.2c2.2,0,3.5-0.6,4.3-2.9c3.5-10.4,7.2-20.7,10.8-31.1c1.9-0.1,3.9-0.2,5.8-0.3c21.4,0,42.8,0,64.2-0.1
			c1.7,0,3.6,0.8,5-0.9c-0.1-0.6-0.1-1.2-0.2-1.8c0.4-0.1,0.8-0.1,1.1-0.2l0.1,0.1C452.5,558.9,452.6,560.5,452.6,562.1z"/>
		<path class="st32" d="M611.7,594.1c-1.4,2-3.6,1.2-5.4,1.2c-24.9,0-49.9,0-74.8,0c0-0.3,0-0.7,0-1c0.5-1.1,1.6-1.6,2.5-2.2
			c14.5-10.5,29-21.1,43.5-31.7c7.5-0.1,14.9-0.2,22.4-0.3c4.5,9.5,7.7,19.4,11.2,29.2C611.7,591,612.3,592.5,611.7,594.1z"/>
		<path class="st5" d="M264.3,595.2c-0.1-4.8,2.6-8.8,4-13.2c1.8-5.5,5.1-10.3,6.6-16c0.6-2.7,2.9-4.6,3-7.5
			c0.6-0.1,1.2-0.2,1.9-0.3c12,0,23.9,0,35.9,0.1c1.7,0,3.6-0.6,5.1,0.9c-0.2,0.3-0.2,0.6-0.1,0.9c-4.6,9.9-7.9,20.3-11.6,30.6
			c-0.7,1.8-1,3.8-3.2,4.5C292,595.2,278.1,595.2,264.3,595.2z"/>
		<path class="st5" d="M611.7,594.1c0.6-1.7-0.1-3.1-0.6-4.7c-3.5-9.8-6.7-19.8-11.2-29.2c0.1-0.3,0.1-0.6-0.1-0.9
			c1.4-1.6,3.3-1,5-1c11.7-0.1,23.5-0.1,35.2-0.2c2.9,3.6,3.1,8.4,5.5,12.2c0.1,0.9-0.1,1.9,0.8,2.6c1.4,3.6,2.7,7.2,4.1,10.8
			c0,0,0-0.1,0-0.1c0.6,2.2,0.9,4.5,1.7,6.5c1.6,4,0.3,4.9-3.7,4.8c-11.6-0.1-23.2,0.1-34.8,0.2C613,594.9,612.3,594.5,611.7,594.1z
			"/>
		<path class="st32" d="M455.4,595.4c-0.4,0-0.7,0-1.1,0c0.1-3.6,0.1-7.2,0.2-10.7c1.6-1.8,0.6-3.9,0.9-5.9c0-1.3,0-2.6-0.1-3.9
			c0.1-3.2,0.1-6.4,0.2-9.6c2.6-1.6,5.3-3.2,7.9-4.8c10.9,0,21.9,0,32.8,0c-4,5.3-9.2,9.5-14.2,13.7c-8,6.6-15.9,13.6-24.6,19.3
			C456.4,593.8,455.8,594.4,455.4,595.4z"/>
		<path class="st32" d="M413.4,594.4c10.9-7.5,21.8-15,32.7-22.4c1.3-0.9,2.4-2.6,4.4-2c0,8.4,0,16.9,0,25.3c-12.4,0-24.8,0-37.2,0
			C413.4,595,413.4,594.7,413.4,594.4z"/>
		<path class="st51" d="M305.8,595.2c2.1-0.8,2.5-2.7,3.2-4.5c3.7-10.3,7-20.7,11.6-30.6c1.5,0,2.9,0.1,4.4,0.1c5.6,0,5.5,0,3.6,5.3
			c-3.4,9.9-7.7,19.5-9.8,29.8c-0.4,0-0.7,0.1-1.1,0.1c-2.9-1.6-5.9-1.5-8.8,0c-0.7,0.1-1.4,0.2-2,0.3
			C306.5,595.5,306.2,595.4,305.8,595.2z"/>
		<path class="st52" d="M640.1,558.2c-11.7,0-23.5,0.1-35.2,0.2c-1.7,0-3.6-0.6-5,1c-32.5,0-65,0.1-97.6,0.1
			c-15.9,0-31.9-0.2-47.8-0.3c0-0.2,0-0.4,0-0.6c2-1.1,4.1-0.9,6.2-0.9c58.2,0,116.5,0,174.7,0C637,557.6,638.7,557,640.1,558.2z"/>
		<path class="st53" d="M318.8,595.3c2-10.3,6.3-19.9,9.8-29.8c1.9-5.3,2-5.3-3.6-5.3c-1.5,0-2.9,0-4.4-0.1c-0.1-0.3,0-0.6,0.1-0.9
			c43.6,0,87.2,0,130.9,0c-1.4,1.6-3.3,0.9-5,0.9c-21.4,0.1-42.8,0-64.2,0.1c-1.9,0-3.9,0.2-5.8,0.3c-13-0.1-26-0.1-39-0.2
			c-1.9,0-3.4,0.1-4.2,2.3c-3.9,10.5-8.1,20.8-10.8,31.7c-0.3,0.3-0.6,0.7-1,1C320.7,595.3,319.7,595.3,318.8,595.3z"/>
		<path class="st27" d="M640.1,558.2c-1.4-1.2-3.1-0.6-4.7-0.6c-58.2,0-116.5,0-174.7,0c-2.1,0-4.2-0.1-6.2,0.9
			c1.1-3,3.7-2.1,5.8-2.1c44.9,0,89.8,0,134.7,0c13.5,0,27,0.2,40.5-0.1c4.3-0.1,6.7,1.1,7.7,5.4c0.7,2.9,2.8,5.5,2.4,8.8
			C643.2,566.6,643,561.8,640.1,558.2z"/>
		<path class="st54" d="M279.7,558.3c-0.6,0.1-1.2,0.2-1.9,0.3c0.9-3.2,3.6-2.3,5.7-2.3c35.3,0,70.5,0,105.8,0c19.3,0,38.7,0,58,0
			c1.7,0,3.6-0.6,5.1,0.9c-0.4,0.1-0.8,0.1-1.1,0.2c-55.5,0-111.1,0.1-166.6,0.1C283.1,557.6,281.2,556.7,279.7,558.3z"/>
		<path class="st55" d="M454.5,559.1c15.9,0.1,31.9,0.3,47.8,0.3c32.5,0,65,0,97.6-0.1c0.1,0.3,0.2,0.6,0.1,0.9
			c-7.5,0.1-14.9,0.2-22.4,0.3c-27.1,0-54.2,0-81.3,0c-10.9,0-21.9,0-32.8,0c-3.4,0.3-8.6-2.3-7.9,4.8c-0.1,3.2-0.1,6.4-0.2,9.6
			c-0.3-0.3-0.6-0.7-0.9-1c0-3.2,0-6.4-0.1-9.7C454.4,562.5,454.4,560.8,454.5,559.1z"/>
		<path class="st28" d="M455.4,595.4c0.4-0.9,1-1.6,2-1.9c1.3,1.5,3,1,4.6,1c23.2,0,46.4,0,69.6,0c0,0.3,0,0.7,0,1
			C506.2,595.4,480.8,595.4,455.4,595.4z"/>
		<path class="st27" d="M613.6,595.3c11.6-0.1,23.2-0.3,34.8-0.2c4,0.1,5.3-0.9,3.7-4.8c-0.8-2.1-1.2-4.3-1.7-6.5
			c2.7,2.7,2.6,6.4,3.7,9.8c0.6,2-0.8,2.7-2.4,2.7c-12.3,0-24.7,0-37-0.1C614.3,596.1,614,595.6,613.6,595.3z"/>
		<path class="st28" d="M413.4,594.4c0,0.3,0,0.6,0,1c-16,0-31.9,0-47.9,0c1.5-1.5,3.4-0.9,5.1-0.9
			C384.9,594.4,399.1,594.4,413.4,594.4z"/>
		<path class="st28" d="M305.8,595.2c0.4,0.1,0.7,0.3,1.1,0.4c-2.8,1.4-5.7,0.6-8.6,0.6c-10,0.1-20.1,0.1-30.1,0
			c-1.7,0-3.6,0.6-5.1-0.9c0.4-0.1,0.8-0.1,1.2-0.2C278.1,595.2,292,595.2,305.8,595.2z"/>
		<path class="st56" d="M454.4,573.8c0.3,0.3,0.6,0.7,0.9,1c0,1.3,0,2.6,0.1,3.9c-1.6,1.8-0.7,3.9-0.9,5.9
			c-0.1,3.6-0.1,7.2-0.2,10.7c-0.6,0-1.2-0.1-1.9-0.1c0-0.6,0-1.1,0-1.7c2.1-6.4,0.5-13,1-19.5C453.8,573.9,454.1,573.9,454.4,573.8
			z"/>
		<path class="st57" d="M452.5,593.5c0,0.6,0,1.2,0,1.7c-0.6,0-1.2,0.1-1.8,0.1c0-8.4,0-16.9,0-25.3c0.3,0,0.6,0,0.9,0
			c0,3.9,0.1,7.8,0.1,11.7C451.9,585.6,450.5,589.7,452.5,593.5z"/>
		<path class="st27" d="M650.5,583.9c-1.4-3.6-2.7-7.2-4.1-10.8C649.6,576,650.1,579.9,650.5,583.9z"/>
		<path class="st54" d="M451.6,581.7c0-3.9-0.1-7.8-0.1-11.7c0.3-0.3,0.7-0.7,1-1C452,573.2,453.5,577.6,451.6,581.7z"/>
		<path class="st54" d="M454.4,573.8c-0.3,0-0.6,0.1-0.9,0.2c0.3-3.3-0.9-6.7,0.8-9.8C454.3,567.4,454.4,570.6,454.4,573.8z"/>
		<path class="st28" d="M308.9,595.4c2.9-1.5,5.9-1.5,8.8,0C314.8,595.4,311.8,595.4,308.9,595.4z"/>
		<path class="st54" d="M452.6,562.1c0-1.6,0-3.2,0-4.8C453.9,558.9,453.9,560.5,452.6,562.1z"/>
		<path class="st32" d="M624.3,655.9c1.4-2,2.8-4.1,5.8-3.9c0.6,1.9,1.4,3.7,1.2,5.8c-3.6,3.5-7.3,6.9-10.9,10.4
			c-14.1,13.9-29.5,26.3-44.6,38.9c-27.2,22.7-55.7,43.8-83.8,65.3c-6.1,4.6-12.3,2.8-18.6,3.3c7-5.3,14.1-10.7,21.2-16
			c19-14.3,38.1-28.4,56.9-43c17.7-13.7,35.1-27.6,52.2-41.9C610.7,668.9,618.2,663.1,624.3,655.9z"/>
		<path class="st58" d="M329.3,879.6c1-0.4,1.7-1.1,2.1-2.1c0.3,0,0.6,0,0.9,0c0.2,3.2,2,5.8,3,8.8c0,0.3,0,0.7-0.1,1
			c-2,0.1-1.9,1.6-2,2.9c-0.3-0.3-0.6-0.7-0.9-1c-0.1-3.3-2.2-5.8-3.2-8.7C329.3,880.2,329.3,879.9,329.3,879.6z"/>
		<path class="st38" d="M335.3,887.3c0-0.3,0-0.7,0.1-1c1.2,0,2-0.8,3-1.5c9.7-6.9,18.9-14.7,29.1-20.9c7.3,18.2,15,36.2,22.8,54.2
			c1.6,3.7,3.5,5.5,7.9,5.4c9.1-0.3,18.2,0,27.3,0c1.6,0,3.3-0.5,4.7,0.8c-16.7,0.5-33.3-0.1-50-0.3c-9.7-0.1-19.4-0.3-29.1-0.5
			c-0.6-5.6-3.6-10.3-5.9-15.2C341.7,901.3,339.4,893.9,335.3,887.3z"/>
		<path class="st37" d="M367.4,864c-10.2,6.2-19.4,13.9-29.1,20.9c-0.9,0.7-1.7,1.5-3,1.5c-1-2.9-2.8-5.5-3-8.8
			c10.4-7.6,20.5-15.5,31.2-22.5c0.3,0,0.6,0,0.9,0.1c0.9,2.6,1.4,5.4,3,7.8C367.5,863.3,367.4,863.6,367.4,864z"/>
		<path class="st31" d="M445.6,602.2c24.4,0,48.8,0,73.2,0.1c-7.6,6.6-16.1,11.9-24.3,17.7c-34,24-68,48-101.2,73
			c-15.9,12-32,23.7-47.9,35.6c-2.2,1.6-4.1,3.7-6.1,5.5c-0.1-0.7-0.1-1.4-0.2-2c0.1-16.4,2.1-32.6,4-48.8c2.4-2.9-0.5-6.8,1.8-9.8
			c1.3,5.3,3.6,0.4,4.2-0.1c23-16.6,45.9-33.2,68.6-50.1C427.1,616.3,437,610.1,445.6,602.2z"/>
		<path class="st37" d="M339.1,732c0.1,0.7,0.1,1.4,0.2,2c-0.5,12.1,0.8,24.1,2.6,36.1c0.2,1.6,0.2,3.2,0.3,4.8
			c-11.4,0-22.8-0.3-34.1,0.1c-5.2,0.2-7.9-1.2-8.3-6.5c-0.1-1.1-0.3-2.2-0.5-3.3c0.9-0.4,1.8-0.7,2.5-1.3
			c8.3-6.7,16.7-13.3,25.2-19.8c4-3,8.9-5.3,11.2-10.3C338.5,733.4,338.8,732.7,339.1,732z"/>
		<path class="st59" d="M621.4,626.6c-6.7,4-11.9,9.9-18,14.7c-14.9,11.9-29.6,24.1-44.5,36.1c-16.5,13.3-33.1,26.4-49.8,39.5
			c-2.3,1.8-4.3,4.6-7.8,4.5c4.8-6,11.6-9.8,17.5-14.5c18.1-14.7,36.4-29,54.7-43.5c16.3-12.8,32.1-26.2,47.8-39.7
			C621.3,624.7,621.3,625.6,621.4,626.6z"/>
		<path class="st59" d="M449.5,763.3c0.3-0.7,0.6-1.3,1-2c9.9-9,20.6-17,31.1-25.3c6.1-4.8,11.7-10.2,18.7-13.8
			c-0.1,3-3,3.7-4.8,5.1c-14.6,11.9-29.4,23.6-44.2,35.4C450.9,763.1,450.2,763.1,449.5,763.3z"/>
		<path class="st31" d="M624.3,655.9c-6.1,7.2-13.6,13-20.7,19c-17.1,14.3-34.5,28.3-52.2,41.9c-18.8,14.6-37.9,28.7-56.9,43
			c-7.1,5.3-14.1,10.7-21.2,16c-2-0.1-5,1.4-5.6-1c-0.6-2.6,2.6-4,4.5-5.1c10.8-6.5,20.5-14.5,30.6-22c11.7-8.7,23.7-17,34.9-26.2
			c8.6-7,17.7-13.4,26-20.8c3.4-3,8-4.8,11.4-8.1c3.8-3.7,7.7-7.3,12.1-10.2c5.6-3.7,9.8-9,15.6-12.6c3.3-2,5.2-6.4,10-6.2
			c0.2,0,0.5-0.8,0.6-1.2C616,655.4,617,654.8,624.3,655.9z"/>
		<path class="st35" d="M296.4,766.2c-2.2-9.2-2.1-18.6-2.1-27.9c0-5.7,0.1-11.3,0.1-17c2.3-2.6-0.6-6.4,2.9-9.9c0,3.9,0,6.9,0,9.9
			c-0.2,11.7,0,23.4,1,35.1c0.2,1.7-0.6,3.5,0.9,4.9c0,0.7,0.1,1.3,0.1,2l-0.1,0C297.9,764,298.5,766.3,296.4,766.2z"/>
		<path class="st60" d="M338.2,734c-2.3,4.9-7.2,7.3-11.2,10.3c-8.5,6.4-16.9,13-25.2,19.8c-0.7,0.6-1.7,0.9-2.5,1.3
			c0-0.7-0.1-1.3-0.1-2c0,0,0.1,0,0.1,0c3.6-2.8,7-5.6,10.7-8.3C319.5,748.2,328,740,338.2,734z"/>
		<path class="st61" d="M297.3,721.3c0-3,0-6,0-9.9c-3.5,3.5-0.6,7.3-2.9,9.9c0-2.6-0.1-5.2-0.1-7.8c1.4-12.4,2.7-24.7,4.1-37.1
			c0.3-0.7,0.6-1.3,0.9-2c2.2,0.2,2.5-1.9,3.7-2.9c0,0,0.2,0.1,0.2,0.1c-2.4,12.9-4.2,25.9-5,39
			C297.7,714.1,299.3,717.9,297.3,721.3z"/>
		<path class="st32" d="M445.6,602.2c-8.7,7.8-18.5,14.1-27.8,21c-22.7,16.9-45.6,33.6-68.6,50.1c-0.6,0.5-2.9,5.4-4.2,0.1
			c2.2-12.4,4.3-24.9,8-37c1-0.5,2-0.9,2.9-1.6c15.3-10.8,30.5-21.7,45.8-32.6C416.3,602.3,431,602.3,445.6,602.2z"/>
		<path class="st38" d="M303,671.5c3.9-22.1,8.9-44,15.5-65.5c0.8-2.6,1.6-3.9,4.5-3.8c13,0.1,26,0.1,38.9,0.2c-3,11-6,22-9,33
			c-2.1,3-4.8,5.2-7.7,7.3c-6.8,4.7-13.4,9.7-20.2,14.3c-7.2,4.8-13.9,10.6-21.7,14.6L303,671.5z"/>
		<path class="st31" d="M352.8,635.4c3-11,6-22,9-33c13.3,0,26.6-0.1,39.9-0.1c-15.3,10.9-30.5,21.7-45.8,32.6
			c-0.9,0.6-2,1.1-2.9,1.6C352.9,636.1,352.9,635.8,352.8,635.4z"/>
		<path class="st38" d="M322.6,594.3c2.6-10.9,6.9-21.2,10.8-31.7c0.8-2.2,2.4-2.4,4.2-2.3c13,0.1,26,0.1,39,0.2
			c-3.6,10.4-7.3,20.7-10.8,31.1c-0.8,2.3-2.1,3-4.3,2.9C348.5,594.4,335.5,594.4,322.6,594.3z"/>
		<path class="st62" d="M279.7,558.3c1.5-1.6,3.4-0.7,5-0.7c55.5-0.1,111.1-0.1,166.6-0.1c0.1,0.6,0.1,1.2,0.2,1.8
			c-43.6,0-87.2,0-130.9,0c-1.5-1.5-3.4-0.9-5.1-0.9C303.6,558.3,291.7,558.3,279.7,558.3z"/>
		<path class="st31" d="M531.5,594.4c-23.2,0-46.4,0-69.6,0c-1.6,0-3.3,0.5-4.6-1c8.7-5.8,16.6-12.7,24.6-19.3
			c5.1-4.2,10.3-8.3,14.2-13.7c27.1,0,54.2,0,81.3,0c-14.5,10.6-29,21.1-43.5,31.7C533.1,592.8,532,593.3,531.5,594.4z"/>
		<path class="st63" d="M455.5,565.2c-0.7-7.1,4.5-4.5,7.9-4.8C460.7,562,458.1,563.6,455.5,565.2z"/>
		<path class="st54" d="M454.5,584.6c0.1-2-0.8-4.1,0.9-5.9C455.1,580.7,456.1,582.8,454.5,584.6z"/>
		<path class="st38" d="M297.3,721.3c2-3.5,0.4-7.2,1-10.8c14.7-10.6,29.5-21.2,44.9-32.3c0,2.4,0,3.7,0,5c-2,16.2-3.9,32.4-4,48.8
			c-0.3,0.7-0.6,1.3-0.9,2c-10.2,6-18.7,14.2-28.3,21c-3.7,2.6-7.1,5.5-10.7,8.3c0-0.7-0.1-1.3-0.1-2c-0.1-1.7,0.7-3.5-0.9-4.9
			C297.2,744.8,297.1,733.1,297.3,721.3z"/>
		<path class="st37" d="M343.1,683.2c0-1.3,0-2.6,0-5c-15.4,11.1-30.2,21.7-44.9,32.3c0.8-13.1,2.5-26.1,5-39
			c7.8-4.1,14.4-9.8,21.7-14.6c6.9-4.6,13.4-9.6,20.2-14.3c3-2,5.7-4.3,7.7-7.3c0.1,0.4,0.1,0.7,0.2,1.1c-3.7,12.1-5.8,24.6-8,37
			C342.7,676.4,345.5,680.3,343.1,683.2z"/>
		<path class="st33" d="M298.2,756.5c1.6,1.4,0.8,3.2,0.9,4.9C297.6,760,298.4,758.1,298.2,756.5z"/>
	</g>
</g>
</svg>
