<?xml version="1.0" encoding="utf-8"?>
<!-- Generator: Adobe Illustrator 21.0.0, SVG Export Plug-In . SVG Version: 6.00 Build 0)  -->
<svg version="1.1" xmlns="http://www.w3.org/2000/svg" xmlns:xlink="http://www.w3.org/1999/xlink" x="0px" y="0px"
	 viewBox="0 0 1200 1600" style="enable-background:new 0 0 1200 1600;" xml:space="preserve">
<style type="text/css">
	.st0{fill:#FFFFFF;}
	.st1{opacity:0.5;}
	.st2{fill:#AAA097;}
	.st3{fill:#CEC5BB;}
	.st4{fill:#AAA198;}
	.st5{display:none;}
	.st6{display:inline;}
	.st7{fill:#FEFEFE;}
	.st8{fill:#ACA299;}
	.st9{fill:#ABA198;}
</style>
<g id="Layer_4">
	<g>
		<g>
			<path class="st0" d="M494.6,806c-0.9-5.8,2-11.9,6.9-15.1c-3.3-3.3-6.7-6.7-10-10c-8.8,19-16.1,38.8-22.4,58.8
				c-6.1,19.6-11.7,40.5-13.7,61.1c-0.9,9.5,2.2,19.2,11.4,23.4c8.8,4,18.3-0.4,24.3-7.3c6.5-7.4,9.6-17,13.2-26
				c3.8-9.6,7.2-19.3,10.4-29.1c7.3-22.6,12.7-45.7,17.2-69c2.4-12.4-15.5-17.7-19.1-5.3c-10.4,35.2-21.1,70.4-30.9,105.8
				c-3.4,12.4,13.2,18.5,20,8.4c24.3-35.9,40.7-76.1,49.6-118.4c1.1-5-1.1-10.2-6-12.2c-4.3-1.7-10.8-0.5-12.9,4.2
				c-18.6,41.8-34.6,85.1-46.2,129.4c-2.6,10.1,10.8,19.2,18.3,10.6c15.8-18,29-38.1,38.9-59.9c9.9-22,16-44.8,19.5-68.6
				c0.8-5.4-1.3-10.8-7-12.4c-5.4-1.5-10.7,1.8-12.4,7c-9,28.6-17.7,57.3-26,86.2c-4,13.9-8.8,27.9-11.9,42
				c-2.7,12.6,1.5,26.9,16.2,27.9c4,0.3,7.8-2.4,9.8-5.6c24.1-37.7,38.3-81.3,43.2-125.6c0.6-5.3-4.6-10.1-9.5-10.7
				c-5.7-0.7-10,2.6-12,7.8c-13.8,37.3-26.4,75.2-35.8,113.9c-3.1,12.8,14,20,21.1,8.9c21.8-34.1,34.6-73.2,37.8-113.5
				c0.4-5.5-4.6-10.4-9.7-11c-5.9-0.7-10.1,2.7-12.3,8c-12.8,31.5-26.1,62.7-39.3,94.1c-2.2,5.3,1.9,11.8,6.7,13.7
				c5.7,2.3,11,0.1,14.5-4.7c9.1-12.4,15.6-27,18.6-42.2c3.1-15.4,4-32.8-7-45.5c-9.9-11.5-27.8-13.7-41.5-8.8
				c-14.6,5.2-26.9,15.9-37.7,26.7c-10.3,10.3-19.5,21.9-27.2,34.2c-3.9,6.2-7.4,12.7-10.5,19.4c-3.3,7.1-8.5,16-6.7,24
				c2.1,9.1,10.9,13.8,19.8,11.8c7.5-1.6,12.9-7,17.9-12.4c10.2-10.8,19.3-22.9,26.8-35.7c7.4-12.6,13.4-26.2,17.8-40.1
				c4-12.7,8.5-27.2,5-40.5c-4.1-15.8-20.9-22.6-34.5-12.9c-11.4,8.2-20.6,20.2-27.8,32.1c-14.6,24.1-22.1,51.8-28.5,79
				c-1.9,8.1-4.2,16.6,2.7,23.1c6.8,6.4,16.7,3.7,23.1-1.8c5.9-5,9.3-13.2,13-19.8c3.8-7.1,7.5-14.3,10.9-21.5
				c3.6-7.6,6.9-15.3,10.1-23.1c2.8-6.9,6.1-13.9,7.3-21.3c1.3-7.9,0.1-16.3-6-22.1c-6-5.7-14.6-6.9-22.2-4.4
				c-14.2,4.7-25.4,18.5-35.1,29.3c-10.6,11.7-20.3,24.2-29.1,37.2c-4.2,6.3-8.2,12.7-12,19.2c-5.5,9.5,5.8,21.8,15.5,15.5
				c12.5-8,23-18.5,31-31c7.2-11.4,19.8-36.4-0.2-42.3c-15.4-4.6-28.3,13.1-37.3,22.6c-11.2,11.8-21.8,24.1-32,36.7
				c-11.9,14.9-23.1,30.2-33.6,46.1c-7.1,10.8,9.3,23.6,18,13.9c16-18,33.2-34.8,51.4-50.6c10.2-8.8-2.8-24-13.9-18.1
				c-16.5,8.8-31.7,19.8-45.4,32.5c5.4,5.4,10.8,10.8,16.2,16.2c6.5-6.9,12.9-13.8,19.4-20.6c10-10.7-5.8-26.6-16.1-16.1
				c-12.4,12.7-27.8,21.4-45,25.7c4.6,4.6,9.3,9.3,13.9,13.9c3.5-8.8,9.2-16.3,16.2-22.5c-5.3-5.3-10.5-10.5-15.8-15.8
				c-6.3,8-11.1,16.7-13.3,26.7c-2.3,10.1,10.9,19.8,18.6,10.8c11.4-13.3,22.8-26.5,34.2-39.8c-5.9-4.5-11.8-9.1-17.6-13.6
				c-4.5,8.5-9.1,16.9-13.6,25.4c-6.9,12.8,11.9,23.8,19.5,11.4c16.2-26.7,32.4-53.4,48.6-80.1c6.6-10.9-9.2-23.8-18-13.9
				c-18.5,20.9-34.8,43.6-48.6,67.9c-2.8,5-1.6,11.5,3,14.9c4.9,3.7,10.6,2.9,15.2-0.9c26.1-21.4,47.9-47.8,64.3-77.2
				c6.5-11.8-8.6-23.2-18.4-14.2c-11,10.2-20.4,22-27.8,35c-6.9,12.1,8.6,22.7,18.5,14.3c17.5-14.9,29.8-35.7,34.5-58.2
				c1.2-5.7-1.2-11.6-6.8-13.9c-4.9-2-12.4-0.6-14.7,4.8c-1.9,4.4-3.7,8.8-5.6,13.2c-2.3,5.4-2.1,11.4,3,15.2
				c4.6,3.4,11.3,3.4,15.5-0.9c8.2-8.5,12.4-19.1,16.9-29.8c0.8-1.9-0.1,0.2,0.7-1.6c0.6-1.3,1.1-2.5,1.7-3.7
				c1.1-2.2,2.2-4.4,3.5-6.5c0.6-0.9,1.2-1.8,1.8-2.7c-1.3,1.7,0.9-0.8,1.2-1.2c0.4-0.4,0.7-0.7,1.1-1.1c-0.1,0.1-1.5,1-0.4,0.3
				c1-0.7,2-1.3,3.2-1.8c-2,0.9,1.1-0.2,1.2-0.2c0.5-0.1,2.3-0.1,2.8-0.1c2.2,0.3,4.7,1.4,6.8,2.8c4.6,3.2,7.6,8.3,9.6,13.4
				c5.9,14.9,8.5,31.7,11.4,47.4c3.3,18.1,6.1,36.5,7.5,54.8c0.5,6.1,4.9,11.3,11.3,11.3c5.8,0,11.8-5.2,11.3-11.3
				c-1.4-19.3-3.3-38.3-6.6-57.3c-3.1-17.5-6.1-36.1-12.7-52.7c-6.7-16.6-20.5-32.2-39.9-32c-14.4,0.1-25.5,9.7-31.9,21.9
				c-1.5,2.8-2.7,5.6-3.9,8.5c-1,2.2-1.9,4.5-2.8,6.7c0,0-0.8,1.8-0.3,0.8c0.4-1-0.7,1.7-0.8,1.9c-1.3,2.9-2.6,5.8-4.2,8.6
				c-0.9,1.5-1.8,3-2.8,4.4c-0.8,1.1-0.1,0.1,0.1-0.1c-0.7,0.9-1.5,1.7-2.3,2.5c6.2,4.8,12.3,9.5,18.5,14.3
				c1.9-4.4,3.7-8.8,5.6-13.2c-7.2-3-14.4-6.1-21.5-9.1c-4,18.9-13.7,35.2-28.5,47.8c6.2,4.8,12.3,9.5,18.5,14.3
				c6.5-11.4,14.4-21.4,24-30.4c-6.1-4.7-12.3-9.5-18.4-14.2c-15.4,27.9-35.9,52.4-60.5,72.7c6.1,4.7,12.1,9.4,18.2,14
				c12.7-22.6,27.6-43.8,44.8-63.3c-6-4.6-12-9.3-18-13.9c-16.1,26.7-32.2,53.5-48.3,80.2c6.5,3.8,13,7.6,19.5,11.4
				c4.5-8.5,9-17,13.5-25.5c2.6-4.9,1.7-11.1-2.9-14.5c-4.2-3.1-11.1-3.4-14.7,0.9c-11.4,13.3-22.7,26.6-34.1,40
				c6.2,3.6,12.4,7.2,18.6,10.8c1.4-6.1,3.6-11.9,7.6-16.8c9-11-4.9-25.5-15.8-15.8c-10.1,8.9-17.2,19.9-22.2,32.3
				c-3.4,8.4,6.3,15.8,13.9,13.9c20.9-5.2,40-16.1,55.1-31.4c-5.4-5.4-10.7-10.7-16.1-16.1c-6.5,6.9-12.9,13.7-19.4,20.6
				c-10.1,10.7,5.3,26.1,16.2,16.2c12.4-11.4,26-20.9,40.8-28.8c-4.6-6-9.3-12-13.9-18.1c-18.2,15.7-35.3,32.6-51.3,50.6
				c6,4.6,12,9.3,18,13.9c12.3-18.8,25.7-36.9,40.2-54.2c7.2-8.5,14.6-16.8,22.3-24.9c3.9-4.1,7.9-8.2,12-12.3c1-1,1.9-2,3-2.9
				c1.5-1.2-1.5,1.9,1.1-0.6c-0.9,0.9,0.1-0.7,0.6-0.2c-0.8,0.2-1.6,0-2.4-0.4c-2-0.4-3.6-1.6-4.7-3.4c0-2,0-4,0-6
				c-1.2,8.4-6.7,17.2-11.8,23.8c-5.3,7-12,13-19.3,17.7c5.2,5.2,10.4,10.4,15.5,15.5c8.8-15.3,18.8-29.9,30.1-43.3
				c5.6-6.7,11.5-13.1,17.7-19.3c4.8-4.8,9.8-10.8,16.2-13.1c-0.8-0.1-0.5-0.1,0.9-0.1c-0.8,0.1-1.5-0.2-2.1-1
				c-0.5-0.2,0.2-3.2-0.1,0.3c-0.2,2.4-1,5.2-2,8c-3,8.4-6.5,16.6-10.2,24.8c-3.8,8.5-8,16.8-12.3,25c-2.3,4.4-4.8,8.7-7.2,13
				c-0.8,1.3-2.4,3.2-2.5,3.8c0.6-0.4,0.4-0.3-0.8,0.4c2.9-0.4,3.5-0.7,1.7-0.8c1.9,0.5,3.8,1,5.7,1.6c0.5,1.1,1.1,2.2,1.6,3.3
				c1,3.8,1.7,4.4,2,1.8c0.3-0.7,0.4-1.6,0.5-2.3c0.4-1.8,0.8-3.6,1.3-5.3c0.9-3.8,1.9-7.7,2.9-11.5c2-7.6,4.1-15.3,6.6-22.8
				c4.5-13.8,10.2-27.2,18.1-39.5c3.8-5.9,8.1-11.2,13-16.2c0.6-0.6,7.2-6.2,7.2-6.2c0,0.2-1.5-0.3-1.7-0.4
				c-0.8-0.5-0.3-0.4-0.1,0.4c-0.5-1.7,0.4,1.6,0.5,2.1c0.3,1.3,0.1,0.2,0,0c0.1,0.8,0.1,1.7,0.1,2.5c0,0.6,0,1.2,0,1.8
				c0,0.2-0.2,2.7,0,1.5c0,0.1-0.7,3.6-1,4.8c-1.7,7.8-3.9,15.4-6.5,22.9c-5.2,14.5-12.5,28.3-21.4,40.9
				c-4.5,6.4-9.4,12.4-14.7,18.1c-2.2,2.3-5.2,4.9-6.5,6.4c0,0-1.3,1.1-1,0.5c1-1.8,8.6,8,4.3,3.5c5.3,5.6,2.5,4.5,4,2.1
				c0.5-0.9,0.9-2.2,1.3-3.2c6-14.1,14-27.8,23.7-39.6c9.6-11.8,20.9-23.7,34-31.5c6.5-3.9,13.3-6.1,19.9-3.9
				c5.7,1.9,7.7,7.6,7.7,14.1c0,17.7-7.4,35.1-17.5,49.2c7.1,3,14.1,6,21.2,8.9c12.8-31.5,25.4-63,38.4-94.3c-7.3-1-14.6-2-21.9-3
				c-3.2,36.3-15.6,71.3-35.4,101.8c7,3,14.1,5.9,21.1,8.9c9.6-38.7,20.5-76.9,34.6-114.2c-7.1-1-14.3-1.9-21.4-2.9
				c-4.8,40.8-19.5,79.4-41.1,114.2c3.3-1.9,6.6-3.8,9.8-5.6c2.4,0.1,4,1.7,5.5,3.4c0.6,0.7,0-1.6,0,0.2c0-0.8,0-1.5,0-2.3
				c0.1-3.4-0.3,0.8,0.1-0.9c1.3-6,3.1-11.8,4.7-17.7c3.3-12.4,6.7-24.8,10.1-37.2c6.8-24.5,13.6-48.9,20.6-73.3
				c-6.6-0.9-13.2-1.8-19.7-2.7c-2.6,21-9.5,42.2-18.4,61.3c-9.2,19.7-21.1,38.1-35.6,54.4c6.1,3.5,12.2,7.1,18.3,10.6
				c11.5-42.6,25.4-84.3,43-124.8c-6.3-2.7-12.6-5.3-18.9-8c-8.1,40.5-25.2,78.9-48.6,112.8c6.7,2.8,13.4,5.6,20,8.4
				c10.1-35.3,19.3-70.9,28.9-106.3c-6.4-1.8-12.8-3.5-19.1-5.3c-5.9,35-16.6,69.5-30.1,102.2c-1.3,3.1-2.5,6.3-4.2,9.2
				c-0.2,0.4-4.9,6.4-5,5.9c0-0.1,1.2,0,1.4,0.1c1.8,1,0.7,1.6,0.9-0.1c0.3-2.5,0.2-5.3,0.6-7.9c2.7-17.6,6.3-35.1,10.5-52.4
				c4.8-19.7,11-39,18-58.1c2.1-5.7-5.7-12.1-10.7-8.2c-9.7,7.5-14.5,18.9-11.5,31C484.5,817.3,495.8,813.8,494.6,806L494.6,806z"/>
		</g>
	</g>
	<g>
		<g>
			<path class="st0" d="M461,824.4c-2.4-7.6,1-15.8-3.7-23c-6.4-9.8-20-7.3-28.6-2.4c-9.3,5.3-18.6,11.9-22.5,22.4
				c-3.4,9.2-1.3,20.6,6.3,27.1c9.2,7.9,22.5,6.2,31.4-1.3c8.4-7,12.3-18.7,14-29.2c1.9-11.2,3.3-27.3-11.1-30.5
				c-12-2.7-22.1,8.2-27.4,17.6c-5,8.7-9.6,22.1-4.5,31.7c2.7,5.2,7.9,8.6,13.9,8.6c6.8,0,12.2-4.8,16.7-9.3
				c7.8-7.8,13.7-17.1,17.8-27.2c3.9-9.6,7.5-23.4-3.4-30c-11.2-6.8-22.7,3.1-29.5,11.5c-6.6,8-11.6,17.2-13.9,27.3
				c-2.6,11.2-3.5,24.9,8.2,31.2c11.3,6.1,23.1-0.4,31-8.7c8.5-9,16.4-21.2,12.7-34.1c-2.8-9.9-11.6-16.9-21.5-19
				c-11.4-2.3-22.2,0.9-31,8.3c-8.8,7.4-13.9,18.1-18.3,28.5c-2.2,5.2-2,10.9,2.9,14.6c4.2,3.2,11.1,3.4,14.8-0.9
				c10.6-12.2,16.5-28.3,14.3-44.5c-0.6-4.6-2.3-8.4-6.9-10.3c-4.1-1.6-9.1-1-12.3,2.3c-11.5,12.2-20.1,26-26.3,41.5
				c-2.1,5.1,1.8,11.4,6.5,13.2c5.5,2.2,10.6,0.1,14-4.6c5.1-7.1,8.6-15.5,9.8-24.1c0.8-5.5-0.9-11-6.5-13.2c-5.2-2.1-11-0.3-14,4.6
				c-5,8-13.3,17.3-13.1,27.2c0.2,8.7,7.9,15.3,9,24c0.5,4.4,3,8.2,7.7,8.7c4.4,0.5,8.5-2,9.8-6.4c2.8-9.2,1.9-17.8-2.9-26.2
				c-0.5-0.8-1-1.7-1.5-2.5c0.1,0.5,0.2,1.1,0.2,1.6c-0.4,1.8-0.2,1.8,0.7,0c0.7-1.1,1.4-2.2,2.1-3.4c2.5-3.9,4.9-7.9,7.4-11.8
				c-6.8-2.9-13.6-5.7-20.5-8.6c-1,7.1-3.4,13-7.6,18.7c6.8,2.9,13.7,5.8,20.5,8.6c4.7-11.7,11.9-22.4,20.6-31.6
				c-6.4-2.7-12.8-5.3-19.2-8c1.4,10.3-0.8,20.6-7.8,28.6c5.9,4.6,11.8,9.1,17.7,13.7c2.6-6.1,5.2-12.4,9.1-17.8
				c1.4-2.1,3.1-4,5.1-5.6c0.8-0.6,1.7-1.2,2.6-1.7c2-1.2-0.5-0.1,1.5-0.7c2.2-0.7,2.2-0.8,5.6-0.6c0.8,0.1,0.8,0-0.1,0
				c0.7,0.1,1.5,0.3,2.2,0.5c2.1,0.6-0.6-0.6,1.4,0.6c0.3,0.1,2.6,2,1.2,0.8c2.3,2-0.9-1.4,0.9,1.1c-1.2-1.7,0.2,0.9,0.2,0
				c0,1.5,0,2.4-0.5,3.8c-1.9,5-6.3,8.8-10,12.5c-0.5,0.3-1,0.6-1.4,0.9c-0.2,0.1-0.1,0.2,0.4,0.1c-2.7,2.2-0.7-1.1-0.4,0.1
				c1.4,2.8,2,3.6,2.1,2.2c0-0.5,0-1.1,0-1.6c0.3-1.2,0.2-2.6,0.4-3.9c1-5.9,3.2-11.4,6.4-16.5c1.4-2.3,3-4.3,4.8-6.2
				c1-1.1,2.1-2.2,3.3-3.2c0.4-0.3,0.9-0.7,1.2-1.1c2.7-1.4,1.5-1.6-3.8-0.5c-1.3-1.3-2.6-2.6-4-4c1,1.5,1,1.1-0.1-1.2
				c0.3-0.8,0.2-0.5-0.1,0.8c-1,1.6-1.2,4.3-1.9,6.1c-1.2,3.1-2.7,6-4.3,8.9c-1.7,2.9-3.5,5.6-5.7,8.1c-1.4,1.6-2.9,3.1-4.4,4.6
				c-0.8,0.7-1.6,1.5-2.4,2.1c-0.8,0.4-0.5,0.2,0.9-0.6c1.9,0.5,3.7,1,5.6,1.5c-2-0.9,2.9,2.9,2,3.1c-0.1,0,0.4-2.9,0.4-3.3
				c0.6-2.7,1.5-5.2,2.8-7.7c1.4-2.6,4-4.8,5.3-7.2c-0.1,0.2,1-1.1,1-0.7c-2.3-1.7-4.6-3.3-6.9-5c0,1.1,0,2.2-0.1,3.3
				c-0.4,8.2-2.4,22.9-10.9,25.1c0.5-0.1-0.8-0.7-0.5-0.5c1,0.6-0.1-0.5-0.1-0.5c0-2-0.3-3.6,0.7-5.6c2-4.6,7.4-8.1,11.3-10.9
				c1.3-1,2.7-1.8,4.1-2.7c0.2-0.1,2.6-2.1,3-2.2c1.6-0.1,1.9,1.7,2.3,2.9c1.8,5.2,2.1,10.4,5.4,15
				C455.6,831.7,462.6,829.6,461,824.4L461,824.4z"/>
		</g>
	</g>
	<g>
		<g>
			<path class="st0" d="M463.6,793.9c-3.1,2.4-6.5,0.4-7.7-3.3c-0.8-2.6,1.1-5.1,3.5-6.7c10-6.5,22,1.9,30.6,7
				c9.8,5.9,21.8-8.6,12.6-16.3c-10.9-9.1-23.3-14.2-37.4-15.4c0.9,6.9,1.9,13.8,2.8,20.7c5.2-1.1,10.8,0.8,16.2,3.5
				c6.4,3.2,12.4,7.2,18.8,10.3c16.4,8.1,33.2,8.9,49.8,0.5c16.2-8.1,27.3-23.1,38.1-37.2c10.9-14.3,21.5-29.4,25.2-47.4
				c2.4-11.5-10-17.8-18.7-10.9c-28.4,22.4-55.5,46.5-81.2,72c5.8,4.5,11.7,9,17.5,13.5c14.4-20.6,29.2-41.4,39.3-64.6
				c1.9-4.4,1.9-9.2-1.6-12.8c-3-3-9.1-4.4-12.8-1.6c-21.1,15.9-38.9,35-53.5,57c-3,4.5-1.3,11.1,2.8,14.2c4.8,3.6,10,2.6,14.5-0.9
				c19.1-14.9,34.1-35.6,43.9-57.6c2-4.5,2-9.6-1.7-13.3c-3.3-3.3-9.3-4.4-13.3-1.7c-14.4,9.8-26.3,22.1-35.6,36.8
				c-2.9,4.6-1.4,11.1,2.9,14.3c4.8,3.6,10,2.6,14.5-0.9c12.5-9.6,23.2-21,32.6-33.7c6.9-9.4,12.9-22.4,22-28.7
				c2.3-1.6,3.1-2,5.5-2.6c1.6-0.4,4.2-0.4,6.7,0.7c5.5,2.3,9,7.7,11.6,12.8c3.5,6.9,5.5,14.6,8,21.9c2.8,8.5,5.7,16.9,8.5,25.4
				c6.4,19.2,12,39.2,22,57c2.2,3.9,7.4,5.5,11.4,3.7c4.5-2,5.9-6.1,5.3-10.8c-2.7-19.6-10.1-38.4-16.4-57.1
				c-3.1-9.4-6.3-18.8-9.4-28.2c-2.9-8.5-5.6-17.3-10.1-25.2c-8.8-15.4-25.9-27-44.2-21.9c-14.9,4.1-24.3,17.7-32.3,30
				c-10.2,15.7-21.9,29.4-36.7,41c5.8,4.5,11.6,8.9,17.4,13.4c7.1-11.5,16.4-21.4,27.5-29c-5-5-10-10-15-15
				c-9.2,21.1-23.1,38.3-40.5,53.1c5.8,4.5,11.5,8.9,17.3,13.4c11.7-19.2,27.2-36.3,45.1-49.9c-4.8-4.8-9.6-9.6-14.4-14.4
				c-11.8,22.4-25.9,43.2-40.4,63.9c-7.4,10.6,8.7,22.2,17.5,13.5c25.8-25.5,52.9-49.4,81.2-72c-6.2-3.6-12.5-7.3-18.7-10.9
				c-3.3,16.1-13.1,29.3-22.8,42.2c-8.8,11.6-18.4,24.8-32.5,30.5c-13.2,5.3-24-0.3-35.5-6.7c-12.9-7.2-26.2-13.6-41.3-10.1
				c-5.1,1.2-8.3,6.6-7.5,11.6c0.8,5.4,5,8.7,10.3,9.1c8.2,0.6,16.4,3.8,22.8,9c4.2-5.4,8.4-10.9,12.6-16.3
				c-10-5.8-21.3-11.8-33.3-11.3c-10.5,0.4-21.2,5.8-26.2,15.3c-4.8,9.1-2.7,20.4,6.3,26.1c6.8,4.3,16.6,4.9,22.4-1.3
				C473.3,797.8,468.3,790.2,463.6,793.9L463.6,793.9z"/>
		</g>
	</g>
	<g>
		<g>
			<path class="st0" d="M595.7,759c-2-9.1-5.1-17.4-10.5-25c-4.1-5.8-11.7-4.4-14.3,1.9c-13.2,32.2-18.5,73.2,9.2,99.7
				c3.3,3.2,8.1,3.7,12.2,1.6c7.6-4,10.3-11.9,11.2-19.9c1-9.1,0.6-18.4,0.5-27.5c-0.3-19.8-1.8-39.5-4.3-59.1
				c-6.6,0.9-13.1,1.8-19.7,2.7c8.1,34.4,17.2,70.7,43.6,96.1c7.8,7.5,20.2-0.1,17.8-10.4c-7.5-31.9-15.4-63.6-23.1-95.5
				c-6.9,1.9-13.7,3.8-20.6,5.7c21.4,51.1,42.8,103,74.4,148.8c2.8,4,7.3,6.3,12.2,5c4.2-1.2,8.5-5.8,7.9-10.4
				c-3.1-26.4-18.8-49.8-31-72.9c-13-24.7-26.1-49.3-39.1-74c-2.6-5-9.5-6.5-14.2-3.7c-5.1,3-6.2,9.2-3.7,14.2
				c28.9,58.5,61.4,115.1,97.8,169.2c4.8,7.2,17.2,6.9,19.4-2.5c3.4-14.2-3.1-27.1-9.6-39.5c-6.6-12.6-13.4-25-20.5-37.2
				c-14-24.3-28.9-48-44.8-71.1c-2.8-4.1-7.8-6.3-12.6-4.1c-4.2,1.9-7.7,7.2-5.9,11.9c22.4,57.7,58.5,109.7,96.2,158.4
				c2.5,3.2,8.1,3.7,11.5,2.2c4-1.8,6.2-5.3,6.5-9.7c1.1-14.3-5.1-27.7-11.7-39.9c-6.8-12.6-14-25-21.4-37.2
				c-15-24.8-31-48.9-46.7-73.3c-7.2-11.1-23.3-1.5-17.6,10.3c19.5,40.2,41.9,78.9,66.6,116.1c7.7,11.6,23.9,1.6,18.3-10.7
				c-15-33.2-34.9-63.8-58.5-91.5c-3.4-4-10.1-3.9-14-0.8c-4.4,3.5-5,8.8-2.7,13.8c11.9,26.2,26.1,51.3,42.4,75
				c3.3,4.7,9.4,6.9,14.6,3.8c4.7-2.8,7.1-9.8,3.8-14.6c-16.3-23.7-30.5-48.8-42.5-75c-5.6,4.3-11.2,8.6-16.7,12.9
				c22.5,26.3,40.9,55.7,55.2,87.1c6.1-3.6,12.2-7.1,18.3-10.7c-24.8-37.1-47.2-75.8-67.4-115.6c-5.9,3.4-11.7,6.8-17.6,10.3
				c15.4,23,30.7,46.2,45,69.9c7.1,11.7,13.9,23.6,20.4,35.6c5.9,10.9,12.4,21.9,10.9,34.7c6.6-1.8,13.1-3.6,19.7-5.3
				c-34.3-48.5-71.2-95.3-93.3-151c-6.2,2.6-12.3,5.2-18.5,7.8c14.8,21.5,28.9,43.5,42.2,66.1c6.5,11.1,12.9,22.4,19,33.7
				c5,9.2,14.1,21.1,10.6,32.1c6.5-0.8,13-1.7,19.4-2.5c-36.6-53.9-69.6-110.4-98.2-169c-6,3.5-12,7-17.9,10.5
				c12.3,23.5,24.7,47.1,37,70.6c6,11.5,12.1,22.9,18,34.4c5,9.8,10.2,20.2,11.4,31.3c6.7-1.8,13.4-3.6,20.2-5.5
				c-30.4-44.6-51.7-94-72.5-143.6c-2.2-5.3-7.1-9.1-13.1-7.5c-5.7,1.6-8.8,7.5-7.5,13.1c7.7,31.8,15.3,63.7,23.2,95.4
				c5.9-3.5,11.9-6.9,17.8-10.4c-23.8-22.4-32.1-55.7-39.3-86.4c-2.5-10.7-21.2-8.7-19.7,2.7c2.2,17,3.6,34.1,4.1,51.2
				c0.3,8.6,0.3,17.1,0.1,25.7c-0.1,2.7,0,6.1-0.2,8.4c-0.2,1.3-0.7,2.5-0.9,3.7c0-0.2,2.1-1.2-0.5,0.3c4.1,0.5,8.1,1,12.2,1.6
				c-22.5-21.2-15.3-55-8.3-81.3c-4.4,1.1-8.7,2.3-13.1,3.4c5.4,5.9,10.9,12,15.4,18.7C590.9,765.9,596.7,763.6,595.7,759L595.7,759
				z"/>
		</g>
	</g>
	<g>
		<g>
			<path class="st0" d="M574.4,782c-0.2-4.8,0.2-9.4,1.3-14.1c0.5-2.2,1.1-4.5,1.9-6.7c0.3-1.2,0.9-2.3,1.6-3.3
				c1-1.1,0.9-1.3-0.3-0.6c-1.2-0.3-2.5-0.7-3.7-1c2.6,1.3,4.6,5.2,6.4,7.5c2.4,3,4.7,6.1,7.1,9.1c4.5,5.6,9,11.3,13.5,16.9
				c9.1,11.3,18.1,22.7,26.8,34.3c17.7,23.5,34.3,47.7,51.3,71.7c6,8.5,18,5.1,19-5.1c2.7-28.6-3.9-57.5-19.8-81.5
				c-2.7-4.1-7.7-6.1-12.3-4c-4.2,1.8-7.4,6.9-5.7,11.6c5.7,16,11.9,31.8,18.9,47.3c3.3,7.3,6.8,14.6,10.5,21.8
				c3.2,6.2,6.1,14.6,11.4,19.4c7.2,6.5,18,3,22.2-5c4-7.8,0-16.6-3.5-23.8c-6.5-13.6-16.7-24.8-28.7-33.8c-7-5.2-14.7,2.1-15.5,8.9
				c-2.6,22.7,1.7,45,11,65.8c3.6,8,18.3,6.4,19.5-2.6c3.7-26.2-4.4-52.4-23.5-71c-6.8-6.6-18.3-1.7-18.5,7.7
				c-0.3,19.4,2.5,38.8,8.3,57.2c3.1,9.8,18.9,11.2,21.4,0c2.7-12.3,2.2-25.6-7.9-34.4c-3.2-2.8-8.7-1.9-9.8,2.6
				c-2.1,8.6-1.9,17.3-3.7,26c7.1,0,14.2,0,21.4,0c-5.5-16.7-8.2-33.7-8-51.3c-6.2,2.6-12.3,5.1-18.5,7.7
				c13.2,12.7,20.7,31.7,18.2,50c6.5-0.9,13-1.7,19.5-2.6c-7.8-17.2-10.5-36.3-8.8-55c-5.2,3-10.3,5.9-15.5,8.9
				c5.5,4.1,10.6,9.3,14.5,14.8c2.1,3,4.1,6.2,5.7,9.4c0.7,1.3,1.4,2.6,1.9,4c0.4,1,0.8,2,1.1,2.9c0.7,4,3,2.8,7.1-3.6
				c1.5,0.9,3,1.8,4.5,2.6c0.3,0.8,0.2,0.7-0.4-0.4c-0.3-0.5-0.6-1.1-0.9-1.6c-0.9-1.6-1.8-3.3-2.7-4.9c-1.8-3.3-3.5-6.6-5.2-9.9
				c-3.5-6.9-6.9-13.9-10.1-20.9c-6.3-13.6-12-27.3-17.1-41.4c-6,2.5-12,5.1-18,7.6c13.1,20,20.2,45,16.8,68.9
				c6.2-0.8,12.4-1.6,18.6-2.4c-16.9-26.5-36.2-51.8-55.7-76.4c-9.9-12.5-20.1-24.8-30.5-36.9c-5.1-5.9-10.4-11.7-15.8-17.3
				c-4.7-4.8-10.3-12.6-17.7-12.5c-8.8,0.2-10.3,9.5-11.9,16.3c-1.9,8.1-1.7,16-0.1,24.1C567,787.8,574.6,786.7,574.4,782L574.4,782
				z"/>
		</g>
	</g>
	<g>
		<g>
			<path class="st0" d="M621.9,774.5c-3.9-4.3-7.7-8.5-11-13.3c-3.9-5.6-14.9-4.3-14.2,3.8c0.4,4.5,1,8.2,2.7,12.4
				c1.6,4,3.3,8,5.3,11.9c3.6,7.1,7.9,13.8,12.8,20.1c9.9,12.7,22.2,23.5,36.1,31.7c3.7,2.2,8.6,1.5,11.6-1.5
				c13.5-13.3,3.4-31.7-5.2-44.5c-11.1-16.4-21.8-33.3-33.3-49.4c-4.6-6.5-9.7-12.7-16.6-17c-3.4-2.2-7.3-3.6-11.3-4.3
				c-0.3,0-7.4-0.8-7.4-0.5c0.8,0.2,1.4,0.6,1.9,1.4c0.3,0.7,0.2,0.4-0.1-0.8c0.5-1.3,0.3-5.2,0.5-7.4c0.4-3.8,0-7.6-1.4-11.2
				c-3-8-11.1-15.2-20.2-11.6c4,4,8.1,8.1,12.1,12.1c0.8-3.6,2.6-5.2,5.6-6.3c4.5-1.7,8.7-1.6,12.6-0.6c12.5,3.3,22,16,30,25.4
				c22.9,27.1,45.8,54.3,68.8,81.3c13.1,15.4,26.3,30.8,39.4,46.2c8,9.4,22.2-0.8,19.7-11.4c-6.7-27.7-25.8-50.8-47-68.9
				c-12.2-10.4-25.3-19.6-38.3-29c-6.3-4.6-12.5-9.2-18.5-14.1c-3.2-2.6-12.2-7.7-11.6-12.5c-5.2,3-10.4,6-15.6,8.9
				c37.7,26.6,71.3,58,102.9,91.5c8.5,9,24.9-3,17.5-13.5c-16.3-23.5-35.2-44.9-56.7-63.7c-10.5-9.1-21.5-17.5-32.8-25.6
				c-10-7.1-20-14.6-26.1-25.6c-6.1,3.6-12.2,7.1-18.2,10.7C651.3,747,699,785.2,728,837.4c7.6,13.7,13.9,28.5,20.2,42.9
				c3.2,7.3,15.8,3.7,15.1-4.1c-0.7-7.5-1.7-14.8-4.1-22c-2.3-7-5.4-13.7-8.7-20.2c-6.5-12.8-14.4-24.9-22.9-36.4
				c-18.2-24.6-39.4-46.5-60-69.1c-11.6-12.8-23.1-25.8-33.3-39.8c-3.4-4.6-9.2-6.9-14.5-3.8c-5.1,3-6.5,9.4-3.8,14.5
				c6.6,12.1,16.9,21,27.8,29.1c10.7,7.9,21.5,15.5,31.7,24.2c21,18.1,39.5,39.2,55,62.2c5.8-4.5,11.7-9,17.5-13.5
				c-32.3-35.2-69.5-65.8-108.3-93.6c-7.2-5.1-14.7,2.1-15.6,8.9c-1,7.9,3.8,15,9.3,20.2c5.9,5.6,12.6,10.6,19,15.5
				c12.8,9.8,25.9,19,38.3,29.3c21.1,17.5,40.2,38.3,46.7,65.7c6.6-3.8,13.1-7.6,19.7-11.4c-25.8-30.3-51.5-60.7-77.5-90.8
				c-12.5-14.5-24.8-29.4-37.8-43.5c-11-12-24.5-22.7-41.4-23.7c-15-0.9-32.6,7.3-35.4,23.4c-1.5,8.8,6.4,14.8,14.5,11.1
				c-2.7,1.2-4.8,0.9-6.3-1.1c0.1,0.9,0.3,1.2,0.6,1c0,0,0.5,2.3,0.5,2.4c0.1,2.5-0.6,5-0.7,7.5c-0.2,6.8,1.6,14,7.5,18
				c5.6,3.9,12.1,1.6,17.8,4.5c4.7,2.4,8.3,7.1,11.2,11.3c9.4,13.3,18.3,27.1,27.4,40.6c4.2,6.2,9.1,12.4,12.4,19.1
				c1.5,3.1,3.8,7.9,1.4,10.2c3.9-0.5,7.7-1,11.6-1.5c-12.2-7.1-22.7-16.3-31.6-27.2c-4.3-5.3-8.1-11.1-11.4-17.1
				c-3.4-6.3-5.9-12.9-9.5-19c-3.5,3.5-6.9,6.9-10.4,10.4c5.1,3,9.7,6.4,14.3,10.1C619.8,785.5,626.4,779.4,621.9,774.5L621.9,774.5
				z"/>
		</g>
	</g>
	<g>
		<g>
			<path class="st0" d="M710.6,793.4c6.7,7.8,13.8,15.2,21,22.5c7.2,7.3,14.1,15,21.5,22.1c6.8,6.6,18.4,0,15.9-9.3
				c-4.7-17.1-21.9-26.2-36.3-34.1c-13.9-7.6-34.9-21.3-49.9-9.2c-14.1,11.4-10.2,34.1-0.3,46.8c5.2,6.7,12.5,12.5,21.1,13.9
				c10.2,1.6,20-4.9,20.5-15.7c0.4-9.7-6-18.1-12-25c-6.6-7.6-14.8-13.9-23.6-18.6c-8.4-4.5-16.5,2.9-15.1,11.6
				c1.7,10.4,4.1,20.7,7.6,30.7c3.4,9.7,8.5,20.9,16.7,27.5c4,3.2,11.8,1.6,11.3-4.7c-0.9-10-4.8-19.8-8.1-29.2
				c-3.4-9.7-6-19.6-7.7-29.7c-5,3.9-10.1,7.7-15.1,11.6c6,3.2,11.3,7,16.1,11.9c2.4,2.5,4.7,5.1,6.7,7.9c0.6,0.9,2.4,4.8,2.7,4.9
				c-1.3-0.5,3.6-4.2,4.1-3.1c0,0-3.6-1.5-3.7-1.6c-2-1.2-3.9-2.8-5.5-4.7c-3.4-4.1-5.5-10.2-4.7-15.5c0.7-5,3.7-4.5,8-3.1
				c6.8,2.2,13.4,6,19.7,9.3c6.5,3.5,13.1,7.1,19.3,11.3c4.4,3,8.6,6.8,10.1,12.1c5.3-3.1,10.6-6.2,15.9-9.3
				c-14.8-14.1-30.5-28-46.5-40.7C713.4,778.6,704.9,786.7,710.6,793.4L710.6,793.4z"/>
		</g>
	</g>
	<g>
		<g>
			<path class="st0" d="M696,802c-3.7-3.4-7.2-6.9-8.5-11.8c-2.3-8.8-17.2-7.3-16.3,2.2c2.5,26.9,10.6,52.5,21.8,77
				c3.4,7.4,16.3,5.7,17.7-2.3c3.2-18.1,4.1-36.4,2.1-54.7c-6.2,0.8-12.5,1.7-18.7,2.5c7.1,23.2,13.9,46.6,20.9,69.9
				c6-2.5,12-5.1,18-7.6c-23-32.4-46.5-64.9-71.6-95.6c-6-7.3-16-9.4-23.3-2.6c-6.1,5.7-7.1,14.3-7.6,22.1c-1,17.3,1,34.9,5.6,51.5
				c5.1,18.5,12.8,38.8,28.3,50.9c4.7,3.7,13.8,0.5,11.3-6.6c-4.7-13.2-12-25.2-16.8-38.4c-4.8-13.3-7.9-27.3-8.6-41.5
				c-0.3-6.7-0.9-14.3,0.4-20.9c0,0.2,0.7-2,0.8-2.3c0,0,0.7-1,0.7-1c0.6,1.7-4.9,0.8-3.9,0.9c-4.3-0.4-1.8,0.7-0.1,2.8
				c1.4,1.8,2.8,3.6,4.2,5.4c10,12.9,19.9,26,29.8,39.1c11.5,15.4,22.7,30.9,34,46.4c2.9,4,7.5,6.1,12.3,4c4.3-1.9,7.2-6.9,5.7-11.6
				c-7.2-23.2-14.5-46.4-21.5-69.7c-3-9.8-19.8-8.6-18.7,2.5c1.7,16.5,1.2,33.2-1.8,49.6c5.9-0.8,11.8-1.5,17.7-2.3
				c-10.3-22.2-16.9-45.6-22.3-69.4c-2.7,3.5-5.3,7-8,10.5c4.8,0.3,9,3.3,12.8,6.1C695.1,808.9,698.5,804.3,696,802L696,802z"/>
		</g>
	</g>
	<g>
		<g>
			<path class="st0" d="M448.6,765.4c2.1-1,3.3-1,4.8,0.3c3.1,2.5,5.6,5.6,8.6,8c4.2,3.4,9.7,4.4,14.2,0.8c4.1-3.3,5.7-9.3,2.8-14
				c-4.8-7.6-15-15.9-24.4-16.4c-9.7-0.5-17.6,7.6-15.7,17.3C439.9,765.9,445,767,448.6,765.4L448.6,765.4z"/>
		</g>
	</g>
	<g>
		<g>
			<path class="st0" d="M595.6,680c8.4,3.9,15.4,9,22.9,14.4c7.2,5.2,14.3,10.8,19.8,17.8c5.2,6.8,8.8,14.6,11.5,22.7
				c1.4,4.2,2.7,8.5,4.1,12.7c0.9,2.7,2.1,5.3,3.3,7.8c1.1,2.2,2.7,3.9,3.9,6c3.8,7,13.7,3.2,14.1-3.8c0.2-2.7,1-5.3,1-8.1
				c0-2.9-0.3-5.8-0.8-8.7c-1-5.2-2.3-10.3-4.1-15.2c-3.8-10.7-8.8-20.8-16.1-29.6c-7.1-8.4-16.3-14.9-25.4-20.9
				c-9.2-6.1-20.9-13-32.3-9.6C591.5,667.4,589.1,677,595.6,680L595.6,680z"/>
		</g>
	</g>
	<g>
		<g>
			<path class="st0" d="M589,691.6c0.1-0.3,0.3-0.5,0.4-0.8c0.7-1.4-0.8-2.9-2.2-2.2c-0.3,0.1-0.5,0.3-0.8,0.4
				c-1.1,0.6-1.2,2.1-0.4,2.9C586.8,692.8,588.4,692.7,589,691.6L589,691.6z"/>
		</g>
	</g>
	<g>
		<g>
			<path class="st0" d="M587.4,681.1c-6.8,3-12.7,7.1-18.7,11.4c-8.7,6.2-3.3,18.4,7.1,16.8c5.1-0.8,10.1-2.6,15-4.2
				c2.5-0.8,4.9-1.6,7.4-2.3c1.2-0.4,2.5-0.8,3.7-1.2c-1.5-0.1-2.8-0.6-3.9-1.7c-0.9-1.5-1.7-3-2.6-4.5c0.1,0.3,0.2,0.6,0.2,0.9
				c0-1.8,0-3.6,0-5.4c-0.1,0.5-0.3,0.9-0.4,1.4c0.9-1.5,1.7-3,2.6-4.5c-4.6,5.9-11.1,11-17.2,15.3c-11.9,8.4-1.8,25.9,11.4,19.6
				c10.9-5.2,21.9-9.7,33.6-12.7c-4.7-2.7-9.5-5.4-14.2-8.1c-1.7-8.7,3-4.6-0.3-3.5c-1.7,0.6-3.4,2.4-4.8,3.4c-3.5,2.5-7,5-10.5,7.4
				c-6.7,4.8-13.4,9.5-20.1,14.3c-12.3,8.7-1.9,26.9,11.8,20.3c11.6-5.6,23.5-10.5,35.7-14.8c-4.4-5.8-8.9-11.6-13.3-17.4
				c-2.6,6-11.6,10-17.2,13.7c-8.1,5.4-16.2,10.8-24.3,16.2c-5.3,3.5-7.6,10.4-4.2,16.2c3.1,5.3,10.8,7.7,16.2,4.2
				c14.1-9.1,29-16.2,45-21.2c-4.8-4.8-9.7-9.7-14.5-14.5c-0.5,2.3,0.4,0.3-1.2,2.1c-1.4,1.6-3.3,2.8-4.9,4.1
				c-4.1,3.3-8.3,6.6-12.4,9.9c-8.3,6.6-16.6,13.2-24.9,19.8c-4.5,3.6-4.2,11.4-0.9,15.5c3.6,4.5,10.1,6.2,15.2,3
				c16.8-10.4,33.8-21,52.6-27.4c-3.8-6.6-7.7-13.1-11.5-19.7c-18.1,15.3-37.9,28.6-58.8,39.9c4.8,6.2,9.6,12.4,14.3,18.6
				c7.4-5.9,15.2-11.3,23-16.5c8.5-5.7,16.3-11.4,23.8-18.3c6.3-5.8-0.4-15.2-7.9-13.6c-21.3,4.7-38.9,18.3-55.7,31.7
				c-4.5,3.6-4.2,11.4-0.9,15.5c3.7,4.7,10,5.9,15.2,3c22.6-12.3,43.8-27,63.5-43.6c9-7.6-0.6-23.4-11.5-19.7
				c-20.8,7-39.6,18.2-58.2,29.7c4.8,6.2,9.5,12.4,14.3,18.6c9.3-7.4,18.7-14.9,28-22.3c8.2-6.5,19.3-13,21.5-24.1
				c1.7-8.4-5.4-17.4-14.5-14.5c-17.8,5.5-34.9,13.4-50.6,23.5c4,6.8,7.9,13.6,11.9,20.4c9.2-6.1,18.4-12.3,27.5-18.4
				c8.1-5.4,18.4-10.7,22.4-20c1.9-4.5,2.3-9.1-0.9-13.1c-2.8-3.5-7.9-5.8-12.4-4.2c-14.1,5-27.9,10.8-41.3,17.3
				c3.9,6.8,7.9,13.5,11.8,20.3c9.4-6.7,18.7-13.5,28.1-20.2c9.9-7.1,21-14,18.1-27.9c-1.3-6.2-8.5-9.6-14.2-8.1
				c-13.4,3.6-26.8,8.6-38.9,15.5c4.6,5.9,9.1,11.9,13.7,17.8c8.7-7.2,29.5-24.1,17.3-36c-5.8-5.7-13.9-3.1-20.6-0.8
				c-7.5,2.5-15.3,4.7-22.3,8.4c4.2,4.2,8.4,8.4,12.6,12.6c3-5.3,7.6-9.6,12.4-13.2C600.2,687,594.8,677.9,587.4,681.1L587.4,681.1z
				"/>
		</g>
	</g>
	<g>
		<g>
			<path class="st0" d="M639,714.8c-4.8-2-9.9-3.3-15.1-4.1c-5.2-0.7-10.4-0.2-15.5-0.8c-6.8-0.8-10.7,9.4-5.7,13.7
				c11.2,9.5,27.2,5.7,40.5,9.4c0.8,0.2,2.4,1.2,3.1,1.1c0.2,0.1,0.5,0.2,0.6,0.4c-0.7-0.7-0.8-1.5-0.5-2.5c0.3-1.7,0.1-1.7-0.7,0
				c-0.3,0.2-0.6,0.4-0.9,0.8c-1.1,1.2-2.4,2.1-3.7,3.1c-6,5-12,10-17.9,15c-4.3,3.6-4.2,11-0.9,15.1c3.7,4.6,9.5,5.6,14.8,3
				c7.2-3.6,14.5-6.9,22-9.7c4-1.5,8-2.8,12-4c1.7-0.5,3.5-1,5.2-1.5c1.2-0.3,2.3-0.6,3.5-0.9c3.1-0.5,2.3-0.9-2.3-1.2
				c-1.4-1.4-2.8-2.8-4.2-4.2c0.2,0.4,0.5,0.7,0.7,1.1c-0.5-2-1.1-3.9-1.6-5.9c-0.2-1.9,2-3.4-0.9-0.8c-1,0.9-2,1.8-2.9,2.7
				c-2.7,2.5-5.4,4.9-8.1,7.4c-5.2,4.7-10.3,9.4-15.5,14.2c-8.5,7.8,0.3,23.8,11.5,19.8c8.2-3,16.5-5.2,25.1-6.9
				c-3.9-6.6-7.7-13.3-11.6-19.9c-4.4,4.2-8.7,8.4-13,12.7c-7.5,7.3-1.7,20.1,8.4,20.2c3.1,0.1,6.2,0.1,9.4,0.2
				c-3.8-5-7.6-10-11.4-15c-1.3,3.3-3.8,6.1-6.4,8.6c-3.4,3.2-4.3,8.7-2.4,12.9c2,4.6,5.9,6.7,10.8,7.2c6.9,0.8,13.8-0.5,19.9-3.6
				c-3.9,0-7.8,0-11.7,0c0.7,0.4,1.4,0.8,2.2,1.1c6.7,3.5,15.3-0.8,15.2-8.7c0-0.8,0-1.6,0-2.4c0-7.4-7.4-13.3-14.6-11.1
				c-4.1,1.2-6.7,1.8-11,1.2c2.8,6.7,5.5,13.4,8.3,20.1c5.8-5.4,9.5-11.7,12.5-18.9c3.1-7.4-4.5-14.8-11.4-15
				c-3.1-0.1-6.2-0.2-9.4-0.2c2.8,6.7,5.6,13.5,8.4,20.2c4.4-4.2,8.7-8.4,13.1-12.6c9-8.8-0.5-22-11.6-19.9c-8.5,1.7-16.9,4-25,7
				c3.8,6.6,7.7,13.2,11.5,19.8c8.3-7.7,16.6-15.4,24.9-23.1c4.3-4,8.4-8.2,9.2-14.4c0.8-6.9-3.4-13.9-10.3-15.8
				c-5.1-1.4-10.4,0.2-15.4,1.6c-4.9,1.4-9.8,2.9-14.6,4.7c-10.3,3.7-20.4,8.1-30,13.3c4.6,6,9.3,12,13.9,18
				c11.4-10.4,39.5-29.7,21.7-46.9c-6.7-6.5-17.4-7.4-26.3-7.7c-4.5-0.2-9.1-0.1-13.6-0.4c-4.4-0.4-8.6-1.7-12.9-2.2
				c1.9,4.6,3.8,9.2,5.7,13.7c5.5-4.8,16.6-2.2,22.5,0C642.1,725.8,644.3,717.1,639,714.8L639,714.8z"/>
		</g>
	</g>
	<g>
		<g>
			<path class="st0" d="M675.5,760.8c-6.1-8.5-10.5-17.9-15.9-26.8c-5.4-9-11.4-17.4-18-25.5c-6.4-7.9-13.3-15.2-20.6-22.2
				c-7.6-7.1-15.8-13.3-23.7-20.1c-7.6-6.5-17.6,1.5-13.5,10.4c6.4,14.1,18.2,25.6,28.7,36.7c12,12.7,24.1,25.4,36.2,37.9
				c7.9,8.2,21.4-2.3,15.7-12.1c-11.8-20.2-27.2-38.3-45.4-53c-6.2-5-16-2.1-16.2,6.7c-0.2,9.6,6.5,17.5,12,24.8
				c5.7,7.6,11.7,14.9,18.3,21.7c6.3,6.5,12.9,12.8,20.1,18.4c7.6,5.9,15.2,11.4,24.9,12.5c5,0.5,7.8-5.8,5.5-9.7
				c-4-6.8-10.4-11.3-16.5-16.2c-6.3-5.1-12.4-10.4-18.2-16.1c-5.6-5.5-10.8-11.3-15.8-17.4c-2.3-2.9-4.5-5.8-6.7-8.8
				c-1.9-2.6-4.9-5.9-4.8-9.2c-5.4,2.2-10.8,4.5-16.2,6.7c16.8,14,30.7,30.6,41.6,49.6c5.2-4,10.5-8.1,15.7-12.1
				c-11.8-12-23.6-24-35.6-35.8c-10.6-10.5-20.7-20.6-28.6-33.4c-3.9,3.9-7.9,7.9-11.8,11.8c16.7,9.9,31.4,24.8,44.4,39.1
				c6.6,7.2,13,14.8,18.8,22.6c6.2,8.2,11.5,17,18.2,24.8C671.6,770.3,678.5,765,675.5,760.8L675.5,760.8z"/>
		</g>
	</g>
	<g>
		<g>
			<path class="st0" d="M671.1,755.2c13,21.9,26.2,43.5,40.7,64.4c2.5,3.7,7,5.6,11.2,3.7c3.8-1.7,6.8-6.4,5.2-10.6
				c-10.2-26.8-23.4-54.2-45.8-72.9c-5.2-4.3-11.6-8.5-18.6-6.4c-7.2,2.2-10.3,10.1-11.3,16.9c-2.2,15.3,4.4,32.2,10.9,45.8
				c6.8,14.1,16.2,31.7,31.7,37.4c8.3,3,13.5-7,10.4-13.6c-5.1-10.7-10.6-21.2-16.2-31.7c-5.6-10.5-12.1-20.5-17.6-31
				c-3.9-7.4-15.4-3.8-15.4,4.2c0,17.1,3.5,32.9,10.7,48.4c3.1,6.5,7.4,17.5,15.1,19.6c4.9,1.3,10-1,12.4-5.4
				c2.2-4.1,1.2-8.8,0.3-13.1c-1.4-6.6-9.5-6.1-12.9-1.7c-1.3,1.8-2.4,3.5-3.6,5.4c1.1-1.1,2.2-2.2,3.3-3.3
				c-0.3,0.2-0.6,0.4-0.9,0.6c1.6-0.4,3.2-0.9,4.8-1.3c-0.3,0-0.7,0-1-0.1c1.6,0.4,3.2,0.9,4.9,1.3c1.4,1,0.2-0.3-0.2-1
				c-0.6-1-1.2-2-1.8-3c-1.2-2-2.3-4-3.4-6.1c-2.1-4.2-3.9-8.5-5.4-13c-2.9-8.7-5.3-18.2-6-27.4c-5.1,1.4-10.2,2.8-15.4,4.2
				c12.3,20.1,21.8,42.4,32,63.7c3.5-4.5,6.9-9,10.4-13.6c-5.3-1.9-9-8.7-12-13c-4.2-6.1-8-12.6-11.2-19.3
				c-3.2-6.6-6.2-13.5-8.2-20.6c-1-3.4-1.7-6.9-1.5-10.5c0.1-1.6,1-3.6,0.8-5.1c0.7-1.2,0.6-1.3-0.5-0.5c-0.2,0.3,0,0.4,0.6,0.5
				c10.9,7.6,18.3,20.6,24.8,31.9c7.2,12.3,12.5,25.4,18,38.5c5.5-2.3,11-4.6,16.5-6.9c-15.2-20.4-30.4-41-44.5-62.2
				C678.1,741.1,666.6,747.6,671.1,755.2L671.1,755.2z"/>
		</g>
	</g>
	<g>
		<g>
			<path class="st0" d="M494.2,828.7c2.6-6.1,7.6-11.4,11.6-16.7c3.6-4.9-2.4-10.6-7.3-9.5c-7.1,1.6-13.9,3.4-20.6,6.4
				c-6.6,3-12,7.3-18.1,11c-6.9,4.2-5,13.8,2.1,16.4c9.5,3.3,21.3-3,29.9-6.6c9.7-4.1,19.2-8.7,28.6-13.5
				c-3.2-5.5-6.5-11.1-9.7-16.6c-16.9,10.1-33.9,20.1-50.8,30.2c-10.7,6.4-1.1,23,9.8,16.8c6.7-3.8,13.4-7.7,20.3-11.1
				c3-1.5,6-2.9,9-4.1c1.6-0.7,3.3-1.3,5-1.9c1.1-0.4,2.2-0.8,3.3-1.2c1.9-0.5,2.3-0.7,1-0.5c-2.6-1.5-5.3-3-7.9-4.6
				c0.2,0.3,0.4,0.5,0.6,0.8c-0.4-1.5-0.8-3-1.2-4.6c-0.1,1.2-3.8,5.9-4.7,7.5c-2.3,4.1,1.5,8.5,5.8,7.6c6.5-1.4,15.1-5.7,16.7-12.7
				c1-4.2-0.8-9-4.6-11.2c-3.7-2.3-7.6-1.7-11.6-0.5c-14.7,4.2-28.3,12.2-41.5,19.8c3.3,5.6,6.5,11.2,9.8,16.8
				c16.9-10.1,33.8-20.2,50.8-30.3c10.7-6.4,1.3-22.3-9.7-16.6c-7.8,4-15.6,8-23.6,11.5c-6.6,3-15.3,7.9-22.7,7.6
				c2.6,4.5,5.2,9,7.7,13.5c3.1-4.2,9.1-7.6,13.5-10.2c5.1-3,10.6-5.6,16.4-7c-2.1-3.6-4.2-7.2-6.3-10.8
				c-3.6,4.5-7.2,10.7-11.8,14.2C472.6,827,490,838.6,494.2,828.7L494.2,828.7z"/>
		</g>
	</g>
</g>
<g id="Layer_1">
	<g>
		<g class="st1">
			<path class="st2" d="M1125.6,1504.2c-10.1-0.5-20.2-1.3-30.3-1.3c-17.4,0-34.7,0.5-52.1,1.9c-9,0.7-18,1.4-27,1.8
				c-24.6,1.3-49.2,2.4-73.8,3.6c-19.1,0.9-38.2,2.2-57.4,2.4c-16.3,0.2-32.4,3-48.5,5.2c-10.1,1.4-20.3,2.6-30.6,3
				c-38.2,1.3-76.4,0.8-114.6,0.6c-30.7-0.2-61.3-1-92-1.6c-18.3-0.4-36.7-1-55-1.6c-23.1-0.8-46.2-1.6-69.3-2.5
				c-22.1-0.8-44.3-1.7-66.4-2.5c-23-0.8-45.9-1.5-68.9-2.5c-24.7-1-49.5-1.8-74.3-2.5c-17.5-0.5-35-1.1-52.5-1.6
				c-20.5-0.6-41-1.3-61.6-1.6c-18.7-0.3-37.5-0.8-56.2-1.6c-21.7-0.9-43.5-1.5-65.2-3.2c-4.3-0.4-8.6-1-12.6-3.3
				c-2.5-1.4-3.1-2.9-2.5-5.6c4.9-21.8,10.6-43.3,16.5-64.8c14.3-52.6,30.4-104.6,51.5-154.9c11.4-27.3,23.2-54.4,35.5-81.2
				c14.6-31.9,28.3-64.1,41.6-96.5c9.2-22.4,21.2-43.2,36.7-61.9c7.1-8.5,15.9-15.1,24-22.4c13.8-12.3,27.6-24.6,41.5-36.8
				c8.9-7.9,18-15.6,27.1-23.3c4.5-3.8,8.5-7.9,8.6-14.2c0.1-4.9,2.8-8.2,6.4-10.9c4.5-3.4,9.1-6.5,13.6-9.9
				c11.8-8.9,19.1-21.3,26.4-33.7c15.5-26.3,29.5-53.5,43.9-80.4c9.9-18.5,22-35,40.1-46.4c8.1-5.1,16.3-9.6,26.3-9
				c7.4,0.4,14.2,2.7,20.6,6.4c6.5,3.7,12.8,3.5,20,1.7c19.8-5,30.5-19.2,39.4-35.8c6.8-12.6,13.5-25.4,23.1-36.3
				c8.9-10.1,18.9-19,30.8-25.6c6.4-3.6,13.2-4.6,20.2-2.2c15.7,5.3,29.4,13.8,40.5,26.3c16,18,32.2,35.8,48.5,53.6
				c7.5,8.2,16.5,14.8,24.4,22.5c16.6,16.3,32.7,33.1,47.6,51c6.9,8.2,9.2,18.2,10.5,28.5c0.5,4.1,2.2,7.3,5.3,9.8
				c13.8,11.3,26.3,24,41.4,33.6c15.8,10.1,29.9,22.7,44.4,34.4c24.8,20,46.5,42.9,61,71.7c14.4,28.5,27.5,57.5,35,88.7
				c2.4,10,2.9,20.3,6.1,30.1c2.8,8.7,7,16.2,14.2,22c6.9,5.6,13.3,11.9,19,18.7c4.7,5.6,8,12.2,7.8,19.4c-0.5,18,4.5,34.6,10.7,51
				c10.1,26.7,20.5,53.4,33,79.2c4.5,9.3,10.3,17.7,15.7,26.5c9,14.4,14.5,30.3,20.7,45.9c6.3,15.8,8.6,32.4,13.1,48.6
				c6.4,23.4,15.3,45.9,25,68.2c2,4.6,4,9.4,4.5,14.4c0.6,5.4-0.6,6.7-6,6.8C1129.4,1504.1,1127.5,1504.1,1125.6,1504.2
				C1125.6,1504.1,1125.6,1504.2,1125.6,1504.2z M960.4,1336.3c-1.7,1.8-2.1,3.1-2.5,4.4c-1.9,6.3-3.9,12.5-5.7,18.8
				c-3.4,12.2-6.6,24.4-8.3,37.1c-1,7.8-1.3,15.7-3.1,23.5c-1.4,6.1-4.2,11.6-6.6,17.2c-5.3,12.1-9.2,24.9-16.2,36.3
				c-3.4,5.5-5.8,11.5-7.5,17.7c-1.4,5-0.8,5.7,4.5,6.5c7.4,1.1,14.6,0.7,22,0.1c10.6-0.8,21.2-1.6,31.8-2.5
				c17.6-1.4,35.3-3.1,52.9-4.9c15.3-1.6,30.4-4.4,45.8-5.2c3.7-0.2,7.3-1.1,10.7-3.5c7.2-5.1,11.1-11.9,13.3-20.4
				c3.1-12,4.6-23.7-0.1-35.6c-0.9-2.3-1.3-4.7-1.9-7.1c-4.3-17.5-11.2-34-20.3-49.5c-7.4-12.6-14.1-25.6-19.7-39.2
				c-5.7-13.9-11.5-27.8-19.4-40.7c-6.2-10.1-11.6-20.8-17.3-31.2c-6.6-12.1-11.2-24.6-11.6-38.8c-0.2-7.4-1.5-15.1-5.2-22.1
				c-4-7.7-7.6-15.8-11.1-23.8c-2.5-5.8-5.1-11.5-8.8-16.6c-0.5-0.6-0.8-1.6-1.8-1.3c-0.8,0.2-0.6,1.1-0.7,1.7
				c-0.4,5.6-1.3,11.1-1.9,16.6c-0.5,4.3-0.1,8.7-1.3,13c-0.5,1.9-1.4,3.7-3.1,3.9c-2.1,0.2-3.2-1.8-3.7-3.8
				c-0.8-3.2-1.5-6.4-1.5-9.7c0.1-20.6,0.4-41.2-4-61.6c-2.9-13.6-5.2-27.3-11-40.1c-3.5-7.7-7.6-15.1-11.2-22.6
				c-3.7-7.8-6.5-16.2-10.1-24.2c-3.7-8.3-6-17.5-11.1-25c-13-19.3-29.9-34.9-50.2-46.2c-13.6-7.6-28.4-12.3-44.3-11.3
				c-10.2,0.6-20.4,1.6-30.5,2.6c-4.3,0.4-8.4,1.8-12.4,3.7c-5.9,2.9-12,5.4-18.7,5.9c-2.7,0.2-6.6,1.5-7.6-2.7
				c-0.9-3.9,2.5-5.4,5.3-6.9c8-4.2,16-8.4,24.1-12.5c7-3.6,12.5-8.8,17-15.1c2-2.9,2.5-5.7,0.7-9.2c-6.4-11.8-13.4-23.2-19-35.4
				c-3.7-8.1-6.6-16.5-7.6-25.4c-1.2-10.6-8.2-14.9-17.8-11.1c-0.8,0.3-1.5,0.6-2.3,1c-8.3,4.6-16,3.8-23.8-1.6
				c-5.1-3.5-9.6-7.6-14.4-11.4c-0.6-0.5-1.2-1.4-2.1-0.6c-0.7,0.7-0.2,1.5,0.3,2.2c1,1.3,2.1,2.5,3,3.9c4.1,6.1,9.5,11.6,11.6,18.7
				c3.2,10.7-0.5,20.7-4.7,30.5c-0.3,0.8-0.9,1.5-1.8,1.5c-3.7-0.1-3.5,2.6-3.9,5c-1.6,8.5-1.5,17.1-2.5,25.6
				c-0.6,5.1-2.5,9.3-7.7,11.7c-10.3,4.8-24.4,2.5-32.6-8.3c-10.5-13.9-17.3-29.4-21.7-46c-3.6-13.4-7-26.9-7.7-40.9
				c-0.4-7.7-3.3-14-9.6-18.1c-11.5-7.6-21.6-16.7-31.1-26.5c-5.2-5.3-9.2-4.6-12.7,2.1c-2,3.8-3.9,7.5-6,11.2
				c-2.6,4.7-3.9,9.4-2.5,14.9c2.1,8,2.4,16.1,0.2,24.2c-2.8,10.4-5.3,20.9-8.3,31.2c-4.2,14.8-7.5,29.8-9.9,45.1
				c-1.2,7.8-4.3,15.1-6.6,22.7c-3.5,11.8-6.6,23.7-10.3,35.4c-5.3,16.7-12.3,32.7-17.7,49.4c-1.4,4.4-1,7.8,2.7,11
				c4.9,4.1,10.4,6.3,16.8,6.7c11.4,0.7,21.7-3.7,32.1-7.4c8.2-2.9,16.2-6.5,24.7-8.6c1.8-0.4,3.7-1.1,4.7,0.9c1,2,0.1,3.7-1.6,5
				c-1.5,1.2-3,2.4-4.6,3.4c-15.4,10.3-32.1,18.8-47.3,29.5c-8.3,5.8-17.3,11.2-21.1,21.6c-0.6,1.7-2.1,3-3.7,3.8
				c-5,2.4-9.3,5.7-13.9,8.6c-11.1,7-23.5,4.8-35.5,4.4c-6-0.2-11.9-1.6-17.5-3.8c-8.3-3.3-9.6-6.9-6.1-14.9
				c4.4-9.9,9.8-19.2,14.8-28.8c4.2-8.1,9.4-14.5,18.2-17.8c4.8-1.8,8.4-5.5,11.3-9.8c5.7-8.6,10.1-17.8,14.5-27.1
				c7.3-15.3,14.8-30.5,21.3-46.2c2.3-5.6,4.6-11.1,6.9-16.7c-2.9,4-6.9,4.8-11.4,4.4c-2.4-0.2-4.9,0-7.4-0.1
				c-7.5-0.1-11.6-4-11.9-11.7c-0.5-12.7,0.4-25.4,3.5-37.8c0.9-3.4-0.1-5.5-2.8-7.3c-3.1-2-6.3-3.9-9.3-5.9
				c-3.9-2.7-6.2-6.3-5.2-11.1c0.7-3.3,0.6-6.4-0.1-9.7c-1-4.6-3.9-5.8-7.7-2.9c-1.7,1.3-2.6,3.1-3.2,5.1c-1,3.7-3.5,6-7.2,7.3
				c-10.1,3.4-16.6,10.4-19.6,20.5c-1.7,5.7-4.9,9.5-10.1,12.2c-3.3,1.7-6.1,4.1-6.6,8.3c-0.8,7.9-1.5,15.7-2.6,23.5
				c-2.9,20.9-7.5,41.5-9.1,62.6c-1.2,15.8-7.9,30.3-12,45.4c-0.3,1.2-0.6,2.7-2.2,2.5c-1.8-0.2-1.3-1.9-1.3-3
				c0-7.4,1.3-14.6,3-21.8c1.7-7.3,4.5-14.6,4.2-22c-0.6-14.4,3-28.1,4.8-42.2c0.9-7.4,3.6-15-1.4-22.1c-3.4-4.8-5.1-10.6-7.9-15.7
				c-1.2-2.1-2.2-4.4-3.3-6.6c-0.6-1.2-1.3-2.3-2.8-1.8c-4.8,1.6-9.9,2.1-14.3,4.7c-12,7-24.2,13.9-36.3,20.8
				c-4.9,2.8-10.3,4.8-14.6,8.2c-7,5.6-14.1,11.1-22.4,14.2c-15.3,5.6-27.8,16.1-42.5,22.8c-9.1,4.1-13.6,13.2-20.1,20.1
				c-9.2,9.9-18.7,19.5-28.7,28.7c-8.4,7.7-17.4,15.1-24,24.1c-12.9,17.5-25,35.5-35.3,54.7c-7.8,14.5-13.3,29.9-17.9,45.7
				c-4.1,14.2-7.4,28.5-8.6,43.2c-0.6,6.7-2.2,13.2-5.7,19.1c-8.7,14.4-17.6,28.6-26.2,43.1c-3.7,6.3-8.6,12-9.7,19.6
				c-1.3,9.4-4.1,18.3-9,26.6c-2.2,3.6-4.1,7.7-4.6,12.8c5.1-4.2,9.9-7.7,15.2-10.2c17.9-8.5,36.9-11.3,56.5-11.4
				c1.4,0,2.9,0,3.2,1.8c0.2,1.6-1.1,2.5-2.3,3c-4.1,1.8-8.3,3.6-12.8,4.1c-13.2,1.4-25,6.5-36.2,13.3
				c-10.6,6.4-18.3,15.9-25.6,25.6c-10.2,13.7-19.8,27.9-23.1,45.2c-2.8,15-6.2,29.9-10,44.7c-2.6,10.1-6.9,19.7-5.1,30.7
				c1.4,8.3,7.2,14.9,15.8,15.6c6.7,0.5,13.4,1.2,19.8,3c12,3.4,24,6,36.5,6c14.5,0.1,28.9,1.2,43.4,1.5c15.7,0.4,31.4,1.5,47.2,1.1
				c2.2-0.1,4.4-0.4,6.5-1c2.1-0.6,3.2-1.8,2.4-4.3c-0.8-2.5-1.1-5-1.3-7.6c-1.5-19,0.7-38,0.2-57c-0.2-6,0.3-12,0.8-18
				c1.6-17.2,3.7-34.4,7.4-51.3c2.2-10.1,4.1-20.4,9.9-29.3c7.5-11.7,17-21.6,26.7-31.5c6.2-6.4,11.3-13.4,12.4-22.5
				c0.5-4.2,0.8-8.4,1.5-12.6c0.6-3.1-0.3-3.9-3.1-2.9c-8.9,3.3-18.4,3.9-27.5,6.2c-16.6,4.2-33.8,7.3-46.7,20.2
				c-1,1-2.3,1.9-3.6,2.7c-2,1.3-4.4,2.5-6.1-0.1c-1.7-2.5,0-4.4,2-5.9c8-6.2,16.4-11.9,25.4-16.5c27.8-14.1,54.5-30.3,81.7-45.4
				c13.1-7.3,24.1-17,33.4-28.6c5.1-6.4,8.8-13.8,14.7-19.7c2.9-2.9,6-3.4,9.2-1.1c3.6,2.5,6,1.8,8-1.8c0.6-1,1.7-1.8,2.5-2.7
				c7.2-8.7,14.6-17.4,19.5-27.7c1.1-2.3,1.7-4.9,3.4-7c1.3-1.6,2.6-3.2,4.7-2.5c2.1,0.8,1.7,3.2,1.2,4.7c-2.8,10-2.3,20.6-5.6,30.5
				c-5.6,17.1-13.2,32-30.7,40.9c-18.3,9.3-34.9,21.3-47.6,38.1c-6.4,8.4-11.9,16.8-14,27.3c-2.9,14.9-4.5,29.9-6.3,44.9
				c-1.8,14.7-7.2,27.3-17.3,38c-9.6,10.1-15.5,22.2-19,35.7c-6.9,26.4-9.2,53.4-9.8,80.6c-0.1,7.1-1.3,14.2-0.8,21.3
				c0.2,3.3,1,4.8,4.9,5.3c5.7,0.7,11.4,0.8,17.1,1.2c14.1,1.1,28.4,1.3,42.5,1.8c11.9,0.4,23.8-0.1,35.7,0.7
				c15.1,1,30.3-0.2,45.5,0.9c13.2,0.9,26.5,0.1,39.8,0.7c17.2,0.8,34.4,1,51.6,1.7c13.4,0.6,26.7,1,40.1,1.6
				c11.2,0.5,22.3,1.1,33.5,1.6c16.2,0.8,32.4,1.7,48.6,2.5c14.3,0.6,28.7,0.9,43,1.7c11.3,0.6,22.7,0.6,34,0.7
				c29,0.2,58,0.6,87-0.3c19.8-0.6,39.7-1.1,59.5-1c12.7,0,25.4-1.3,38.1-0.9c2.8,0.1,5.7-0.7,8.5-1.1c5.7-0.9,9-4,10.8-9.7
				c3.4-10.7,7.6-21.2,14.4-30.2c4.2-5.5,5.6-11.2,5.3-17.9c-0.7-14.9,1.4-29.3,8.3-42.9c3.9-7.6,5.6-16.2,6.4-24.9
				c1-11,2.5-21.9,7.7-32c1.7-3.3,2.5-7.2,3-11c1.5-10.4,0.5-20.8,0.7-31.1c0.2-6.6,1.4-13,3.4-19.3c0.6-1.8,1-4.1,2.9-4.7
				c2.6-0.9,3.1-2.8,3.8-4.9c4.6-14.9,6.7-30.3,9.6-45.5c1.3-6.8,2-13.8,5.1-20.1c0.9-1.8,2-3.8,4.1-3.3c2.1,0.5,2.2,2.9,2.2,4.8
				c0.2,4.1-0.5,8.2,0.5,12.3c2.3,9.8,4.6,19.6,6.8,29.5c5.5,25,9.3,50.3,12.5,75.7c1.3,9.8,2.6,19.7,5.2,29.3
				c2.5,9.4,4.6,18.9,3.8,28.7c-1,12.2-2.2,24.4-3.1,36.6c-0.6,8.9-0.2,17.7-0.8,26.6c-0.6,8-0.2,16.2-0.1,24.2
				c0,2.4-0.6,4.6-1.2,6.8c-0.4,1.4-1.4,2.5-2.9,2.5c-1.4,0-2.1-1.2-2.4-2.4c-1.1-4-1.9-8-1.7-12.1c0.3-6,0.1-11.8-3.8-16.8
				c-0.7-0.9-0.8-2.3-1.1-3.5c-1.9-8.4-1.7-17.1-2.3-25.6c-1.1-15.9-3.2-31.7-6.1-47.4c-1.2-6.9-1.9-14.3-5.9-20.3
				C964.6,1347.3,961.2,1342.9,960.4,1336.3z M715.2,870.3c3.7-7.8,3-14.2-2-20c-8.3-9.5-13.1-20.8-17.3-32.4
				c-2.4-6.7,0-12.7,4.7-17.7c2.8-3,5.7-2.6,8.4,0.6c1.7,2,2.8,4.4,3.7,6.8c4.4,13.3,15,19.6,27.2,24.2c2.2,0.8,4.8,1.2,6.3-1.3
				c3.2-5.4,7.8-5.3,12.9-3.6c1.7,0.6,3.5,1.3,4.8-0.7c1.1-1.7,0.7-3.4-0.3-5c-9-13.6-18.7-26.6-30.8-37.7
				C714.2,766.8,696,750,678.9,732c-8.8-9.4-17.7-18.7-27.5-27.1c-6.4-5.5-13.4-10.7-17.8-18c-5.6-9.3-14.3-13.7-24-16.6
				c-8.2-2.4-16-1.7-22.7,4.2c-8.8,7.6-17.5,15.4-24.5,24.8c-9,12.2-16.2,25.7-25.2,38c-8.1,11.1-15.2,22.8-21.5,34.9
				c-3.9,7.5-8.9,9.1-16.2,5c-8.7-4.9-17.4-9.8-25.8-15.2c-5.6-3.6-10.8-5.9-17.9-4.9c-9.1,1.3-17.2,3.8-23.7,10.8
				c-7.8,8.5-14.6,17.8-21.6,26.8c-14.5,18.6-29.1,37.1-40.4,57.8c-8.3,15.3-16.3,30.7-26.7,44.7c-8.1,10.9-15.6,22.2-28,29
				c-5.8,3.2-7.3,9.4-8,15.5c-0.4,3.6,1.1,4.7,4.8,3.5c6-1.8,12.1-3.8,17.4-7.2c17.9-11.3,37.1-19.9,56.2-29
				c15.9-7.5,27.7-19.3,37.2-33.7c2-3.1,4.2-6.1,6.4-9c0.8-1.1,2-2.1,3.5-1.8c1.7,0.3,2.3,1.9,2.6,3.4c0.3,1,0.2,2.2,0.3,3.3
				c0.4,5.9-2,11.3-2.9,16.9c-0.6,4-0.9,7.9,0.7,11.7c1.7,4,3.3,4.4,6.9,2.2c3.7-2.3,5.7-5.9,7.2-9.8c2-5.2,5-9.7,8.4-14.1
				c4.6-5.9,9.5-11.7,14.3-17.5c2.9-3.5,4.6-7.3,3.7-12.1c-0.7-3.9,1.1-6.5,4.4-6.5c8.2,0,15.5-2.9,22.6-6.5
				c2.7-1.4,5.5-1.6,8.3-0.4c6.2,2.7,9.7,9.7,8.3,16.3c-0.6,2.6-1.7,5.2-2.6,7.8c-1.8,5.3-0.8,8.8,3.6,12.3c2.1,1.7,4.5,3.1,7.3,3.7
				c3.9,0.9,5.4,3.6,5.2,7.3c-0.2,3.3-0.8,6.5-1.2,9.8c-1.3,9.8-5.1,19-7.4,28.6c-1,4.1,0.4,6.9,3.8,9c3.8,2.3,6.3,1.9,10.3-1.7
				c11.1-10.2,16.3-23.5,19.2-37.8c1.4-6.9,1.5-14.1,2.3-21.2c1.4-11.9,1.7-23.8,0.7-35.7c-0.4-4.9-0.5-9.6,1.4-14.1
				c6.9-16,15.1-31.4,26.5-44.7c6.5-7.6,16.6-6.9,21.9,1.6c4.9,8,11.8,13.6,19.7,18.2c4.6,2.7,9,5.7,12.4,10
				c8.7,11,15.1,23.3,17.9,37c3,14.6,5,29.4,11.7,43c4.2,8.6,8.5,17.2,12.2,26c2.3,5.5,6.6,8.5,12.8,8.7c3.4,0.1,5.6-1.3,6.6-4.4
				c3.6-10.7,4.9-21.8,4.9-33.1c0-6.9-2.3-13.5-2.1-20.4c0.1-2.1,0.5-4.4,3-4.7c2.5-0.4,3.1,1.9,3.7,3.6
				C712.9,863.5,713.3,866.9,715.2,870.3z"/>
			<path class="st3" d="M960.4,1336.3c0.8,6.6,4.1,11,7.3,15.7c4,6,4.6,13.4,5.9,20.3c2.8,15.7,5,31.4,6.1,47.4
				c0.6,8.5,0.4,17.2,2.3,25.6c0.3,1.2,0.4,2.6,1.1,3.5c3.9,5,4.1,10.8,3.8,16.8c-0.2,4.1,0.6,8.1,1.7,12.1c0.3,1.2,1.1,2.4,2.4,2.4
				c1.5,0,2.6-1.1,2.9-2.5c0.6-2.2,1.2-4.5,1.2-6.8c-0.1-8.1-0.5-16.2,0.1-24.2c0.7-8.9,0.2-17.8,0.8-26.6
				c0.8-12.2,2.1-24.4,3.1-36.6c0.8-9.8-1.3-19.3-3.8-28.7c-2.6-9.7-3.9-19.5-5.2-29.3c-3.3-25.4-7.1-50.7-12.5-75.7
				c-2.2-9.8-4.5-19.7-6.8-29.5c-1-4.1-0.3-8.2-0.5-12.3c-0.1-2-0.1-4.3-2.2-4.8c-2.1-0.5-3.3,1.5-4.1,3.3
				c-3.1,6.4-3.8,13.3-5.1,20.1c-2.9,15.2-5.1,30.6-9.6,45.5c-0.6,2.1-1.2,4-3.8,4.9c-1.9,0.6-2.4,2.9-2.9,4.7
				c-2,6.3-3.3,12.7-3.4,19.3c-0.3,10.4,0.7,20.8-0.7,31.1c-0.5,3.8-1.3,7.7-3,11c-5.3,10.1-6.7,20.9-7.7,32
				c-0.8,8.6-2.5,17.2-6.4,24.9c-6.9,13.6-9.1,28-8.3,42.9c0.3,6.7-1.1,12.4-5.3,17.9c-6.8,9-11,19.5-14.4,30.2
				c-1.8,5.7-5.1,8.8-10.8,9.7c-2.8,0.4-5.7,1.2-8.5,1.1c-12.7-0.3-25.4,1-38.1,0.9c-19.8-0.1-39.7,0.4-59.5,1
				c-29,0.9-58,0.6-87,0.3c-11.3-0.1-22.7-0.1-34-0.7c-14.3-0.7-28.7-1.1-43-1.7c-16.2-0.7-32.4-1.6-48.6-2.5
				c-11.2-0.6-22.3-1.1-33.5-1.6c-13.4-0.6-26.7-1.1-40.1-1.6c-17.2-0.7-34.4-0.9-51.6-1.7c-13.3-0.6-26.6,0.2-39.8-0.7
				c-15.2-1.1-30.4,0.2-45.5-0.9c-11.9-0.8-23.8-0.3-35.7-0.7c-14.2-0.5-28.4-0.7-42.5-1.8c-5.7-0.4-11.4-0.5-17.1-1.2
				c-3.9-0.5-4.7-2.1-4.9-5.3c-0.5-7.1,0.7-14.2,0.8-21.3c0.5-27.2,2.9-54.1,9.8-80.6c3.5-13.5,9.4-25.6,19-35.7
				c10.2-10.7,15.6-23.3,17.3-38c1.8-15,3.4-30,6.3-44.9c2-10.6,7.6-18.9,14-27.3c12.7-16.8,29.4-28.8,47.6-38.1
				c17.5-8.9,25-23.8,30.7-40.9c3.3-9.9,2.8-20.5,5.6-30.5c0.4-1.6,0.9-3.9-1.2-4.7c-2.1-0.8-3.4,0.9-4.7,2.5
				c-1.6,2.1-2.3,4.7-3.4,7c-4.9,10.4-12.3,19-19.5,27.7c-0.8,0.9-1.9,1.7-2.5,2.7c-2.1,3.6-4.4,4.3-8,1.8c-3.2-2.2-6.2-1.7-9.2,1.1
				c-5.9,5.8-9.6,13.3-14.7,19.7c-9.3,11.6-20.3,21.4-33.4,28.6c-27.2,15.2-53.9,31.3-81.7,45.4c-9,4.6-17.4,10.3-25.4,16.5
				c-2,1.5-3.6,3.4-2,5.9c1.7,2.6,4.1,1.4,6.1,0.1c1.3-0.8,2.6-1.6,3.6-2.7c12.9-12.9,30.1-16,46.7-20.2c9.1-2.3,18.6-2.8,27.5-6.2
				c2.9-1.1,3.7-0.2,3.1,2.9c-0.8,4.1-1,8.4-1.5,12.6c-1.1,9.2-6.2,16.2-12.4,22.5c-9.6,9.9-19.1,19.9-26.7,31.5
				c-5.8,9-7.7,19.2-9.9,29.3c-3.6,16.9-5.8,34.1-7.4,51.3c-0.5,6-1,12-0.8,18c0.5,19-1.7,38-0.2,57c0.2,2.6,0.5,5.2,1.3,7.6
				c0.8,2.5-0.3,3.7-2.4,4.3c-2.1,0.6-4.2,0.9-6.5,1c-15.7,0.5-31.5-0.7-47.2-1.1c-14.5-0.4-28.9-1.4-43.4-1.5
				c-12.5-0.1-24.6-2.7-36.5-6c-6.4-1.8-13.1-2.4-19.8-3c-8.6-0.7-14.4-7.3-15.8-15.6c-1.8-11,2.5-20.7,5.1-30.7
				c3.8-14.8,7.2-29.6,10-44.7c3.2-17.3,12.9-31.5,23.1-45.2c7.3-9.8,15-19.2,25.6-25.6c11.2-6.7,23-11.9,36.2-13.3
				c4.5-0.5,8.7-2.3,12.8-4.1c1.3-0.6,2.5-1.4,2.3-3c-0.3-1.8-1.8-1.8-3.2-1.8c-19.6,0.2-38.6,2.9-56.5,11.4
				c-5.3,2.5-10.1,6-15.2,10.2c0.5-5.1,2.5-9.2,4.6-12.8c4.9-8.3,7.7-17.2,9-26.6c1.1-7.7,6-13.4,9.7-19.6
				c8.6-14.5,17.5-28.7,26.2-43.1c3.5-5.8,5.1-12.4,5.7-19.1c1.3-14.8,4.5-29,8.6-43.2c4.6-15.8,10.1-31.2,17.9-45.7
				c10.3-19.2,22.4-37.3,35.3-54.7c6.7-9,15.7-16.4,24-24.1c10-9.2,19.5-18.8,28.7-28.7c6.4-7,11-16,20.1-20.1
				c14.7-6.6,27.2-17.1,42.5-22.8c8.3-3.1,15.4-8.6,22.4-14.2c4.3-3.5,9.7-5.5,14.6-8.2c12.1-6.9,24.2-13.8,36.3-20.8
				c4.5-2.6,9.5-3.2,14.3-4.7c1.5-0.5,2.2,0.6,2.8,1.8c1.1,2.2,2.1,4.4,3.3,6.6c2.8,5.2,4.5,10.9,7.9,15.7
				c5.1,7.1,2.4,14.7,1.4,22.1c-1.8,14-5.4,27.8-4.8,42.2c0.3,7.5-2.5,14.7-4.2,22c-1.7,7.2-3,14.4-3,21.8c0,1.1-0.6,2.8,1.3,3
				c1.6,0.2,1.9-1.3,2.2-2.5c4.1-15.1,10.7-29.6,12-45.4c1.6-21.1,6.2-41.7,9.1-62.6c1.1-7.8,1.8-15.7,2.6-23.5
				c0.4-4.2,3.2-6.6,6.6-8.3c5.2-2.7,8.4-6.5,10.1-12.2c3-10.1,9.5-17.1,19.6-20.5c3.6-1.2,6.1-3.5,7.2-7.3c0.6-2.1,1.5-3.8,3.2-5.1
				c3.8-2.9,6.7-1.7,7.7,2.9c0.7,3.3,0.8,6.4,0.1,9.7c-1.1,4.9,1.2,8.5,5.2,11.1c3.1,2.1,6.2,4,9.3,5.9c2.7,1.7,3.7,3.9,2.8,7.3
				c-3.1,12.4-4.1,25-3.5,37.8c0.3,7.6,4.4,11.6,11.9,11.7c2.5,0,4.9-0.2,7.4,0.1c4.5,0.4,8.4-0.4,11.4-4.4
				c-2.3,5.6-4.6,11.2-6.9,16.7c-6.6,15.6-14,30.9-21.3,46.2c-4.4,9.3-8.8,18.5-14.5,27.1c-2.9,4.3-6.5,8-11.3,9.8
				c-8.8,3.3-14,9.7-18.2,17.8c-5,9.6-10.4,18.9-14.8,28.8c-3.5,8-2.2,11.6,6.1,14.9c5.6,2.2,11.6,3.5,17.5,3.8
				c12,0.5,24.4,2.6,35.5-4.4c4.6-2.9,8.9-6.3,13.9-8.6c1.6-0.8,3.1-2.1,3.7-3.8c3.8-10.4,12.8-15.8,21.1-21.6
				c15.2-10.7,31.8-19.1,47.3-29.5c1.6-1.1,3.1-2.2,4.6-3.4c1.6-1.3,2.6-3,1.6-5c-1.1-2-3-1.3-4.7-0.9c-8.5,2.2-16.5,5.7-24.7,8.6
				c-10.4,3.7-20.6,8.1-32.1,7.4c-6.3-0.4-11.9-2.6-16.8-6.7c-3.8-3.1-4.1-6.6-2.7-11c5.3-16.7,12.4-32.7,17.7-49.4
				c3.7-11.7,6.8-23.6,10.3-35.4c2.2-7.6,5.3-14.9,6.6-22.7c2.4-15.2,5.6-30.2,9.9-45.1c3-10.4,5.5-20.8,8.3-31.2
				c2.2-8.1,1.8-16.2-0.2-24.2c-1.4-5.5-0.1-10.2,2.5-14.9c2.1-3.7,4-7.4,6-11.2c3.5-6.7,7.5-7.5,12.7-2.1
				c9.6,9.8,19.6,19,31.1,26.5c6.3,4.1,9.2,10.4,9.6,18.1c0.8,13.9,4.2,27.4,7.7,40.9c4.4,16.7,11.2,32.1,21.7,46
				c8.2,10.8,22.3,13.1,32.6,8.3c5.2-2.4,7.1-6.6,7.7-11.7c1-8.5,0.9-17.1,2.5-25.6c0.4-2.4,0.3-5.1,3.9-5c0.9,0,1.5-0.7,1.8-1.5
				c4.2-9.8,7.9-19.8,4.7-30.5c-2.1-7.2-7.5-12.6-11.6-18.7c-0.9-1.4-2-2.6-3-3.9c-0.5-0.7-1.1-1.5-0.3-2.2c0.8-0.8,1.5,0.2,2.1,0.6
				c4.8,3.8,9.4,7.9,14.4,11.4c7.8,5.4,15.5,6.2,23.8,1.6c0.7-0.4,1.5-0.7,2.3-1c9.6-3.7,16.6,0.6,17.8,11.1
				c1,8.9,3.9,17.3,7.6,25.4c5.6,12.2,12.6,23.6,19,35.4c1.9,3.4,1.4,6.3-0.7,9.2c-4.5,6.3-10,11.5-17,15.1
				c-8,4.1-16.1,8.2-24.1,12.5c-2.8,1.5-6.2,3-5.3,6.9c1,4.2,4.8,2.9,7.6,2.7c6.6-0.5,12.8-3,18.7-5.9c4-2,8.1-3.3,12.4-3.7
				c10.2-1,20.3-2,30.5-2.6c15.9-1,30.6,3.8,44.3,11.3c20.4,11.3,37.2,26.8,50.2,46.2c5.1,7.6,7.4,16.7,11.1,25
				c3.6,8,6.3,16.4,10.1,24.2c3.6,7.6,7.7,15,11.2,22.6c5.8,12.8,8.2,26.5,11,40.1c4.3,20.4,4.1,41,4,61.6c0,3.3,0.7,6.5,1.5,9.7
				c0.5,1.9,1.5,4,3.7,3.8c1.7-0.2,2.6-2,3.1-3.9c1.2-4.3,0.9-8.7,1.3-13c0.6-5.5,1.5-11.1,1.9-16.6c0-0.6-0.1-1.5,0.7-1.7
				c1-0.3,1.3,0.6,1.8,1.3c3.7,5.1,6.3,10.9,8.8,16.6c3.5,8,7.1,16,11.1,23.8c3.7,7,5,14.7,5.2,22.1c0.4,14.1,5,26.7,11.6,38.8
				c5.7,10.4,11.1,21,17.3,31.2c7.9,12.9,13.7,26.8,19.4,40.7c5.6,13.6,12.3,26.5,19.7,39.2c9.1,15.6,16,32,20.3,49.5
				c0.6,2.4,1,4.8,1.9,7.1c4.7,11.9,3.2,23.6,0.1,35.6c-2.2,8.5-6.1,15.2-13.3,20.4c-3.4,2.4-7,3.3-10.7,3.5
				c-15.4,0.8-30.5,3.6-45.8,5.2c-17.6,1.8-35.2,3.5-52.9,4.9c-10.6,0.8-21.2,1.6-31.8,2.5c-7.4,0.6-14.7,1-22-0.1
				c-5.3-0.8-5.9-1.5-4.5-6.5c1.8-6.2,4.1-12.2,7.5-17.7c7-11.4,10.9-24.1,16.2-36.3c2.5-5.6,5.3-11.1,6.6-17.2
				c1.7-7.7,2.1-15.6,3.1-23.5c1.7-12.6,4.9-24.9,8.3-37.1c1.8-6.3,3.8-12.5,5.7-18.8C958.4,1339.4,958.8,1338.1,960.4,1336.3z
				 M827,971.5c-4.4,0.1-8.3,0.1-9.4,4.2c-1.1,4,1.5,6.6,4.7,8.6c1.5,1,3,1.8,4.8,2.3c3.9,1.2,7.7,2.6,11.6,3.9
				c7.5,2.3,12.2,7,12.7,15.2c0,0.5,0.3,1,0.4,1.6c3.4,14.2,6.6,28.4,7.8,42.9c0.4,4.3,1.1,8.6,2.2,12.9c0.8,3.3,2.5,3.6,4.8,1.2
				c1.8-1.9,3.4-3.9,5.1-5.9c3.7-4.4,6.1-9.3,6.8-15.1c1.3-10.3,1.8-20.6,0.7-30.9c-1.1-10.3-5-19-15.5-23.2c-2.4-1-4.8-2.3-6.5-4.2
				c-3.2-3.4-6.9-5.7-11.3-7.2C839.3,975.7,833.1,972.2,827,971.5z M445,1219.4c0-3.7-1.2-6.9-2.6-10c-1.4-3.1-3.7-3.3-5.1-0.5
				c-5.1,9.9-8.6,20.3-11,31.1c-1.2,5.6,0.3,11.5-2.3,16.9c-6.5,14-8.8,29.2-12.2,44c-1.5,6.5-1.9,12.9,1.3,19.2
				c1.3,2.6,2.9,4.7,6,4.9c3.3,0.2,5-2.2,6.2-4.6c7-14.2,11.1-29,8.6-45c-0.8-5.1-1.4-10.2,0.3-15.3c1.7-5.2,3.3-10.4,4.6-15.7
				C440.9,1236.1,442.9,1227.7,445,1219.4z M209.3,1145.3c0,1.7-0.1,2.8,0.9,3.2c1.2,0.4,2.1-0.4,2.9-1.1c3.7-3.8,5.6-8.7,7.7-13.4
				c6.1-13.6,12.7-26.9,24-37.2c12.6-11.5,22.1-25.6,31.9-39.3c1.7-2.4,2.8-5,3.2-7.9c0.2-1.3,0.3-2.9-1.2-3.6
				c-1.4-0.7-2.6-0.1-3.7,0.9c-1.4,1.5-3.1,2.8-4.3,4.4c-8.1,11.5-18.7,20.6-29.2,29.6c-9.8,8.4-17.1,18.1-20.9,30.6
				c-2.9,9.4-5.2,18.9-9,28C210.8,1141.6,209.9,1143.8,209.3,1145.3z"/>
			<path class="st2" d="M827,971.5c6.1,0.7,12.3,4.1,18.8,6.4c4.3,1.5,8.1,3.8,11.3,7.2c1.8,1.9,4.1,3.2,6.5,4.2
				c10.5,4.2,14.4,12.9,15.5,23.2c1.1,10.3,0.6,20.6-0.7,30.9c-0.7,5.8-3.1,10.7-6.8,15.1c-1.7,2-3.3,4-5.1,5.9
				c-2.3,2.4-4.1,2-4.8-1.2c-1-4.2-1.8-8.5-2.2-12.9c-1.2-14.6-4.4-28.8-7.8-42.9c-0.1-0.5-0.4-1-0.4-1.6
				c-0.5-8.2-5.1-12.9-12.7-15.2c-3.9-1.2-7.7-2.6-11.6-3.9c-1.7-0.5-3.2-1.3-4.8-2.3c-3.2-2.1-5.8-4.7-4.7-8.6
				C818.7,971.6,822.6,971.7,827,971.5z"/>
			<path class="st2" d="M445,1219.4c-2.1,8.3-4,16.6-6.2,24.9c-1.4,5.3-2.9,10.5-4.6,15.7c-1.7,5.1-1.1,10.2-0.3,15.3
				c2.5,16-1.6,30.8-8.6,45c-1.2,2.4-2.8,4.8-6.2,4.6c-3.1-0.2-4.7-2.3-6-4.9c-3.2-6.2-2.8-12.7-1.3-19.2c3.4-14.9,5.7-30,12.2-44
				c2.5-5.5,1-11.3,2.3-16.9c2.4-10.9,5.9-21.3,11-31.1c1.4-2.8,3.7-2.5,5.1,0.5C443.7,1212.5,444.9,1215.8,445,1219.4z"/>
			<path class="st4" d="M209.3,1145.3c0.6-1.5,1.4-3.7,2.3-5.8c3.8-9.1,6.1-18.6,9-28c3.8-12.4,11.1-22.2,20.9-30.6
				c10.6-9,21.1-18.1,29.2-29.6c1.2-1.7,2.8-3,4.3-4.4c1-1.1,2.2-1.7,3.7-0.9c1.5,0.8,1.4,2.3,1.2,3.6c-0.4,2.9-1.5,5.5-3.2,7.9
				c-9.8,13.8-19.3,27.8-31.9,39.3c-11.3,10.3-17.9,23.6-24,37.2c-2.1,4.7-4,9.6-7.7,13.4c-0.7,0.8-1.7,1.6-2.9,1.1
				C209.2,1148.1,209.3,1147,209.3,1145.3z"/>
		</g>
		<g>
		</g>
	</g>
	<circle class="st0" cx="555.6" cy="766.6" r="11.5"/>
	<circle class="st0" cx="510.1" cy="796.8" r="2.4"/>
	<ellipse transform="matrix(0.5 -0.866 0.866 0.5 -518.6744 927.0367)" class="st0" cx="543.5" cy="912.7" rx="18.3" ry="4.7"/>
	<circle class="st0" cx="574.5" cy="716.7" r="3.9"/>
</g>
<g id="Layer_2" class="st5">
	<g class="st6">
		<g>
			<path class="st7" d="M1201.8,919c0,217.9,0,435.8,0.1,653.8c0,3-0.5,3.8-3.7,3.8c-400.2-0.1-800.5-0.1-1200.7,0
				c-3.5,0-3.9-0.9-3.9-4.1c0.1-436,0.1-872,0-1308c0-3.2,0.5-4,3.9-4c400.1,0.1,800.2,0.1,1200.3,0c3.6,0,4.1,1,4.1,4.3
				C1201.8,482.9,1201.8,701,1201.8,919z"/>
			<path class="st2" d="M766,1517.2c-20.3,0-40.5,0.4-60.8-0.1c-24.5-0.6-48.9-2-73.4-3.2c-19-0.9-38-2.1-56.9-3.3
				c-23.3-1.4-46.7-2.5-70.1-3.4c-16.4-0.6-32.8-1.2-49.2-1.6c-52.9-1.5-105.7,0.1-158.6-0.7c-25.9-0.4-51.7-1-77.5-2.6
				c-17.5-1-34.8-3.7-52.1-5.9c-13.3-1.7-26.6-2.7-40-3.6c-23.7-1.6-47.5-2.9-71.3-4.2c-3.2-0.2-4-1.3-3.8-4.7
				c2-31.6,16.9-58.6,30.8-85.9c9.4-18.5,22.2-34.8,35.6-50.6c15.2-17.9,27.4-37.9,40-57.6c5.7-9,11.5-18,17.2-27
				c10.6-16.9,15.6-36.1,21.5-54.9c4.2-13.2,7.7-26.5,12.9-39.4c6.3-15.4,15.2-29.4,24-43.5c6.2-10,11-20.9,18.8-29.8
				c9.1-10.5,14.7-23.1,21.1-35.1c19.6-37.2,39-74.5,58.5-111.7c5-9.5,10.3-18.7,16.3-27.6c8.7-12.9,15.6-26.7,19.9-41.7
				c9.7-34.1,25.6-65.4,43.8-95.6c8-13.4,15.7-27,23.4-40.5c5.7-10.1,13-19,20.9-27.3c14.9-15.7,29.9-31.2,45.1-46.7
				c2.5-2.5,3.5-5.5,4.2-8.7c2.6-12,8.4-22.2,17-30.8c1.7-1.7,3.2-3.8,5.1-5.3c14.2-11.4,17.5-28.6,23.9-44.2
				c6.1-14.5,11.8-29.2,22.1-41.5c4-4.7,8.5-8.8,13.6-12.5c7.7-5.6,15.8-6.2,24.5-2.7c19.9,8,34.6,22,44.4,40.7
				c8.8,16.9,20,32,31.3,47.2c6,8,10.1,16.8,12.9,26.4c4.3,14.4,8.3,29.2,19,40.5c6.4,6.7,13.8,12.5,20.4,19
				c12.7,12.6,27.4,23.1,38.7,37.3c8.2,10.3,12.5,22.3,17.4,34.2c9.2,22.2,15.5,45.3,22.8,68c5.4,16.8,12.1,33.1,16.9,50.1
				c3.6,12.9,12.3,22.8,21.4,32.2c11.4,11.9,23.8,22.6,36.2,33.5c27.6,24.3,49.3,52.9,62.3,87.8c17.4,46.7,31.7,94.4,44.7,142.4
				c7.3,27.1,18.3,52.2,32.8,76.2c16.1,26.9,31.1,54.5,39.9,84.9c7.4,25.3,13,51.1,18.6,76.9c3.5,15.8,6.6,31.6,10.3,47.3
				c1.5,6.3-0.5,10.2-5.5,14c-12.7,9.7-27.4,13.2-42.6,15.7c-27.7,4.5-55.5,7.4-83.4,10c-23.5,2.2-47.1,4.2-70.7,5.8
				c-22.8,1.5-45.6,2.8-68.4,3.3c-22,0.5-44.1,1.1-66.1,1.6C766,1518,766,1517.6,766,1517.2z"/>
			<path class="st3" d="M605.8,681.9c2,3.6,4,7.1,6,10.6c1.7,3.1,3.4,6.2,5.1,9.4c2,3.6,4.3,4.7,8.1,2.8c4.5-2.2,9.1-3.7,13.8-5.2
				c2.9-0.9,5-3,6.4-5.5c3.6-6.2,6.7-12.6,5.9-20.1c-0.3-3.2-0.1-4.9,4.3-4.1c9.4,1.7,17.9,5.9,26.9,8.5c0.8,0.2,1.6,0.8,1.6,1.7
				c0.1,6.7,4.4,11.7,6.8,17.4c4.3,10.5,8.2,21.1,13.1,31.3c1,2.1,2,4.4,4.5,5.1c10.8,3.1,12.1,11.6,12.9,21.1
				c1.3,14.6,3.8,29,10.8,42.1c0.9,1.7,1.9,3.3,3.1,4.8c1.4,1.6,3.3,2.6,5.5,2c2.2-0.6,2.2-2.7,2.5-4.3c0.6-4.2-0.3-8.5-1.1-12.6
				c-3.5-18.6-7.3-37.1-11-55.7c-0.1-0.6,0-1.3,0-2.5c3.8,2.2,6.2,5.5,9.3,8c6,5,11.9,10,18.1,14.7c3.6,2.8,6.2,6.6,7.9,10.8
				c2.6,6.5,6.1,12.5,9.6,18.5c6.4,10.8,11.4,22.4,18.2,33c0.3,0.5,0.6,0.9,0.7,1.5c2.9,14.2,11.3,26.3,15.7,39.9
				c2.3,7.2,2.6,14.8,3.2,22.2c0.7,9.5,0.7,19.1,0.9,28.7c0.1,6.1,0.7,12.2,1.6,18.3c0.1,0.5,0.1,1.1,0.3,1.6
				c1.1,2.4,2.3,5.3,5.5,4.4c2.9-0.8,3.8-3.7,3.2-6.4c-1.4-5.2,0.3-9.9,1.3-15.8c1,3.3,1.6,5.6,2.3,7.9c1.7,5.3,4.4,9.9,8.5,13.8
				c12.8,12.3,23,26.6,33.1,41.1c10.1,14.6,18.8,29.8,26.4,45.8c4.8,10.1,11.3,19.1,18.7,27.3c12.8,14.1,22.9,29.7,28.9,48
				c6.2,19,12.8,37.7,17.8,57.1c3.1,12.2,3.4,24.8,6.3,37c2.3,9.6,4.1,19.3,3.1,29.2c-1.2,11.5-0.5,23-0.6,34.4
				c0,3.9,0.7,7.9,0.8,11.8c0.2,5.7,4.6,8.7,7.8,12.5c2,2.4,3.8,5,5.4,7.7c2.4,3.9,6,3.7,8.1-0.4c0.9-1.8,1.6-3.8,1.6-5.9
				c0-3.6-0.1-7.1,0.1-10.7c0.2-3.4,1-6.7,0.6-11c4.4,5,6.8,10.3,9.4,15.4c7.3,14.5,15.3,28.7,21,44.1c3.2,8.5,4.6,17.4,6.5,26.2
				c2.5,11.3,6.6,21.7,13.4,30.9c6.4,8.7,11,18.3,15.1,28.1c6.2,14.7,10.2,30.3,16.6,45c2.1,5,2.6,10.6,2.8,16
				c0.1,2.8-1.1,4.3-3.8,5c-10.5,2.4-20.9,5.1-31.6,6.3c-13,1.5-25.9,3.3-38.9,4.8c-11.4,1.3-22.8,2.3-34.1,3.5
				c-11.9,1.3-23.8,2.7-35.7,3.9c-9.1,1-18.2,1.8-27.2,2.6c-5.5,0.5-10.7,2.1-16,3.4c-16.1,4-32.5,6.8-49.1,8.3
				c-19.4,1.8-38.8,1.7-58.2,1.4c-15.9-0.3-31.9-1.3-47.8-2.4c-11.7-0.8-23.4-1.3-35.2-1.6c-14.1-0.3-28.1-0.7-42.1-1.7
				c-16.9-1.1-33.7-2.5-50.7-2.4c-24.6,0.1-49.2-0.8-73.8,0.4c-13.8,0.7-27.1-2.8-40.7-1.9c-16.2,1-32.4,1.4-48.5,3.1
				c-7.2,0.8-14.4-0.6-21.7-0.9c-7.3-0.3-14.6-1.8-21.9-2.1c-17.3-0.7-34.5-3.3-51.9-2.6c-5.7,0.2-8.2-2.3-7.7-6
				c0.2-1.5,1-2.3,2.1-3.2c4.7-3.7,9.8-6.9,14.1-11.2c4-4,6-8.8,6-14.3c0.1-6.7-0.3-13.4-0.6-20.1c-0.4-9.7,1.4-19.2,3.4-28.7
				c3-14.1,5-28.4,6.3-42.8c1.3-14.5,1.1-29.2,6.5-43.1c3.5-9,7.3-18,9.9-27.3c1.4-5,2.4-10.1,1-15.3c-0.7-2.6,0.3-5.1,0.6-7.7
				c0.2-2.3,0.6-4.9-1.9-6.2c-2.6-1.3-4.5,0.6-6.1,2.2c-6.5,6.2-11.7,13.3-15.8,21.3c-7.2,13.9-12.2,28.7-17.8,43.2
				c-6.1,15.8-11.9,31.7-17.2,47.8c-1.8,5.4-1.9,10.3-0.2,15.9c3.9,13,1.6,25-8.5,34.6c-7.7,7.4-15.3,14.6-21.4,23.5
				c-5.6,8.2-15.3,11.6-24.4,15.3c-3.2,1.3-6.4,2.3-9.8,2.8c-6.5,0.9-11.3,5.2-16.6,8.6c-2.1,1.3-4.1,2.7-6,4.3
				c-6.8,5.9-14.7,5.7-22.9,4.6c-5.7-0.8-11.4-0.6-17.1-1c-16-1.3-32.2-1.5-47.9-5.3c-17.6-4.2-35.7-5.5-53.2-9.7
				c-0.7-0.2-1.3-0.3-2-0.5c-8.5-2.6-8.7-2.8-8-11.5c0.6-8,1.3-16.1,4.2-23.7c3.5-9.2,7.7-18.1,12.3-26.8
				c4.5-8.6,8.3-17.5,12.6-26.3c7.5-15.4,16.6-29.7,30.2-40.9c7.4-6.1,14.5-12.4,23.2-16.7c0.1-0.1,0.2-0.1,0.4-0.2
				c10-4.9,10.9-4.6,15.9,5.3c1.8,3.5,4.2,4.9,8.1,5c3.8,0,5.3-2.2,6.7-5c3.2-6.8,3.9-14.2,4.8-21.4c1.4-10.8,1.2-21.8,1.9-32.7
				c0.8-12.8,2.4-25.5,4.2-38.1c2.3-16.6,5.7-33,10.4-49.1c6.3-21.3,15.1-41.3,28.5-59.1c12.7-16.8,28.7-29.8,46.5-40.8
				c3.9-2.4,7.7-5.2,11.5-7.8c4.7-3.3,6.6-8.3,7.1-13.8c1.5-14.2,3-28.5,6.7-42.3c2.6-9.7,6.3-19.2,8-29.2c2.1-11.8,4.3-23.6,8.3-35
				c4.7-13.6,12.2-25.3,23.2-34.6c3.3-2.8,7.3-4.4,11.2-5.9c8.1-3,11.7-8.9,12.4-17.1c0.6-7.6,1.2-15.2,1.7-22.8
				c1.8-23.5,6.2-46.1,19.1-66.5c7.9-12.4,14.5-25.7,23.5-37.4c3-3.9,6.3-7.5,10.1-10.7c9-7.5,15.1-17.6,23-26.1
				c4.4-4.7,9-9.2,14-13.2c2.6-2,5.6-2.4,8.8-0.9c8.6,4.1,20.6,17,19.9,29.8c-0.7,12.5-0.4,25.1-0.1,37.7
				c0.3,13.8,1.9,27.4,3.1,41.1c0.9,10.4,2.1,20.8,3.5,31.2c0.3,2.6,0.7,5.1,1.3,7.6c0.3,1.4,0.4,3.3,2.5,3.2c1.8-0.1,2-1.7,2.3-3
				c1.3-5.6,2.8-11.1,3.6-16.8c1.9-13.1,5.7-25.6,10.1-37.9c5.9-16.6,11.9-33.2,18.2-49.6c3.6-9.5,8-18.6,12.7-27.5
				c2-3.7,2.7-3.9,5.5-0.7c6.5,7.3,15.1,10.1,24.3,11.5c4.9,0.7,8.3-2.2,9.1-7.3c1.2-7.4,0.2-14.7-1.5-21.8
				c-2.7-11.5-4.5-23-4.3-34.8C605.1,684,604.7,683,605.8,681.9z"/>
			<path class="st7" d="M689.7,641c-0.2,3.1-0.3,7.4-0.7,11.8c-0.2,1.9-0.7,3.8-1.5,5.5c-3,6.7-7,8-13.2,4.3
				c-0.6-0.4-1.3-0.6-1.7-1.2c-5-6.9-13.1-8.9-20-12.8c-3-1.7-5.8-1.7-8.2,0.8c-5.1,5.2-9.5,10.5-8.9,18.6c0.4,5.1-0.4,10.1-1.6,15
				c-0.4,1.9-1.2,3.6-2.4,5.2c-3,3.8-4.4,3.6-6.3-0.8c-1.1-2.5-3-4.2-5-5.9c-8.1-7-10.9-15.8-8.8-26.1c1.2-5.8,2.5-11.5,3.8-17.2
				c0.3-1.2,0.6-2.5-0.7-3.3c-1.5-0.9-2.7,0-3.6,1c-6.8,7-15.1,12.1-23.1,17.7c-6.2,4.4-9.7,10.8-11.5,18
				c-3.9,15.7-8.4,31.2-14.1,46.3c-3.6,9.5-10.8,16.8-18.1,23.6c-3.9,3.6-6.8,2.6-8.6-2.5c-2.5-7.2-3.3-14.7-3.7-22.2
				c-0.4-9.5-2.4-18.2-9.7-24.8c-0.2-0.2-0.4-0.4-0.5-0.6c-12.6-16.2-12.6-25.9,0.2-45.3c5.7-8.6,12.5-16.3,20.8-22.6
				c5-3.8,8.3-8.5,10-14.6c4.8-16.8,11-32.9,19.1-48.4c5.3-10.1,12-18.5,22.1-24.7c8.6-5.2,22.2-2.5,28,4.6c4,4.8,6.9,10.2,8.7,16.2
				c2.9,9.5,7.9,18,12.9,26.5c4.4,7.5,10.3,13.2,18,17.5c10.5,5.8,18.7,14.1,25.3,24.1C690,629.2,689.5,634.5,689.7,641z"/>
			<path class="st2" d="M641.2,970.6c0.5,3.8-0.4,8.1-0.8,12.4c-0.7,10.2,0.8,20.1,2.5,30.1c2.3,13.4,0,26.4-5,38.9
				c-4.1,10.1-7.1,20.5-6.5,31.4c0.8,13.6,1.4,27.3,7.3,40c4.9,10.3,11.5,19.4,20.2,27c11.4,9.8,23.5,18.7,33.9,29.6
				c9.1,9.4,16.9,19.6,20.8,32.4c1.4,4.7,4.3,8.8,6.8,13.1c0.8,1.3,2.1,2.7,0.5,3.9c-1.5,1.1-2.8-0.3-3.9-1.4
				c-7.1-7.1-14.8-13.3-23.3-18.6c-6.9-4.2-14.7-4.7-22.1-6.8c-15.8-4.6-31.1-10.6-45.7-18c-7.5-3.8-11.6-10.9-16.1-17.6
				c-6.7-10-8.1-21.6-10.5-32.9c-0.6-2.8-1.3-5.6-2.2-8.3c-2.8-8.4-8.2-10.3-15.6-5.3c-6.2,4.2-12.9,7.1-20.2,8.6
				c-4,0.8-8,0.9-11.3-1.9c-15.7-12.9-27.5-8.1-38.1,6.8c-6.2,8.8-11.2,18.3-14.3,28.5c-5.2,17.6-15.7,30.9-30.6,41.2
				c-5.5,3.8-10.3,8.5-15,13.4c-1.7,1.8-3.7,3.3-5.9,4.5c-3.8,2-6.7,0.3-6.3-4c0.4-5.2,1.5-10.3,3.8-15c3.7-7.7,6.2-15.7,8.9-23.8
				c1.6-5,4.3-8.8,8.9-11.7c13.8-8.9,21.8-22.2,27.2-37.3c1.5-4.3-0.6-7.7-2.7-11.1c-3.4-5.7-7.6-10.7-11.8-15.7
				c-7.1-8.3-14.1-16.8-24.6-21.1c-6.4-2.6-12.9-5.3-19.5-7.4c-7.6-2.4-12.5-6.3-13.7-15.1c-1-7.6-4.4-14.9-6.6-22.3
				c-2.2-7.4-3.8-14.8-1.9-22.5c0.6-2.5,1.8-4.7,4.3-5.6c2.7-1,4.4,0.9,6.4,2.6c8.1,6.8,12.4,15.3,13.4,25.8
				c0.5,4.8,2.5,9.1,6.5,12.4c4.5,3.7,8.5,8.1,13.2,11.7c7.3,5.6,16.4,6.4,24.9,8.9c8.4,2.6,17.3,2.2,25.9,3.4
				c7.5,1.1,15.1,2.2,22.5,3.9c6.3,1.4,10.1,5.9,11.2,12.2c0.7,4.2,3.6,5.3,6.7,4.9c6.2-0.9,12.4-2.4,17.9-5.4
				c5-2.7,5.1-4.4,1.2-8.3c-3.3-3.3-6.4-6.8-8.6-10.9c-5-8.9-13.6-14.6-19.2-22.8c-8.9-12.9-15.4-26.7-17.1-42.8
				c-1.6-15.2-1.7-30.3-1.2-45.4c0.4-10.8,1.5-21.7,2.8-32.5c0.8-7.3,1.1-14.7,3.6-21.7c0.9-2.5,1.6-5.2,3.8-7.2
				c2.7-2.3,5.8-1.9,7.4,1.3c1.6,3.2,1.5,6.9,1.9,10.4c1.3,14.2,2,28.5,5.8,42.4c3.3,12.4,6.5,24.9,12.1,36.5
				c3.8,7.9,8.9,15.1,14.2,22c7.1,9.2,13.3,19,21.3,27.5c6.8,7.3,15.3,6.4,20.9-2.2c6.1-9.4,9.4-20,12.1-30.7
				c4-15.3,5.5-31.1,9.1-46.5c0.4-1.8,0.9-3.7,1.7-5.4c0.7-1.6,1.8-3.4,3.9-3.1c1.8,0.3,3,1.9,3.4,3.7
				C640.9,958.8,641.4,964.4,641.2,970.6z"/>
			<path class="st2" d="M813.8,995.5c-0.4-11.3,1.9-22.6,3.2-33.9c0.3-2.4-0.1-4.9,0.8-7.3c0.7-1.7,1.5-3.5,3.4-3.7
				c1.8-0.2,3.1,1.3,4.1,2.9c2.2,3.7,3.5,7.8,2.3,11.8c-4.3,14.3-2.9,28.2,1.3,42.1c0.8,2.7,0.6,5.5,0.5,8.1
				c-0.5,8.5,2.2,16,7.7,22.2c9.3,10.5,13.8,23,16.1,36.5c2,11.6,5.1,22.9,10.9,33.3c3.9,7,4.2,14.9,5.5,22.5
				c1.1,6.9,1.1,13.9,0.9,20.8c-0.2,8.7-3.9,13.3-11.8,14.7c-3.3,0.6-5.9-0.4-7.5-3.5c-5.3-10.1-8.4-21-9.5-32.4
				c-0.8-7.9-3.3-15.4-4.8-23.2c-3.9-20.3-7.7-40.6-11.6-60.9c-1.3-6.7-3.1-13.2-6.2-19.4C816.1,1020.3,813.3,1011.1,813.8,995.5z"
				/>
			<path class="st2" d="M814,1438.1c0.4,5.5-1.8,10.2-4.5,14.7c-2.9,4.8-7.1,4.7-10.2-0.1c-2.7-4.1-4.9-8.5-6.6-13.2
				c-4.3-11.8-8.7-23.6-10.5-36.1c-1.4-9.3-1.7-18.7-3.5-27.9c-2.3-11.6-5.5-23-7.1-34.8c-0.5-3.5-0.9-7-1.2-10.5
				c-0.2-1.9-0.4-4.2,1.8-5c2.2-0.8,3.4,1,4.6,2.5c4.7,6,6.8,13.1,8.1,20.3c2.9,16.1,8.8,31.3,15.6,46c5.8,12.6,10.4,25.5,13.1,39.1
				C813.9,1434.8,813.9,1436.5,814,1438.1z"/>
			<path class="st2" d="M653.7,830c-0.7,4.1-1.5,7.9-3.5,11.1c-1.5,2.3-3.3,5-6.3,4.5c-3.5-0.5-6.1-2.8-7.4-6.3
				c-2.9-7.7-5.5-15.5-6.3-23.6c-1.2-12.4-4.5-24.3-7.2-36.4c-0.7-2.9,0-5.1,2.5-6.1c2.7-1.1,4.8,0.7,5.7,3.2
				c4.1,11.4,9.1,22.5,14.2,33.5c2.4,5.3,4.9,10.7,7.2,16C653.1,827.2,653.4,828.7,653.7,830z"/>
			<path class="st8" d="M675.8,705.4c0,0.3,0,0.5,0,0.8c-0.4,4-1.6,8.1-5.5,9.4c-3.8,1.3-5.7-2.9-8.1-5c-1.6-1.4-2.7-2.9-4.7-4.1
				c-3.7-2.1-2.5-6.6-2.7-10c-0.1-2.9,1.2-5.8,1.9-8.7c0.9-3.9,3.8-5.2,7.3-5.3c3.5-0.2,6.9,1.1,7.9,4.6c1.8,6,2.9,12.2,4.2,18.3
				C676,705.3,675.9,705.3,675.8,705.4z"/>
			<path class="st9" d="M755.4,1281.9c0,1.1,0.1,2.2,0,3.3c-0.1,0.9-0.5,1.5-1.4,1.8c-1.1,0.4-1.9-0.2-2.4-1.1
				c-0.6-0.9-1-1.9-1.5-2.9c-4.6-9.4-9.4-18.8-15-27.7c-1.2-1.8-3.2-4.3-1-6.2c2-1.7,4.2,0.4,5.8,1.8
				C749.5,1258.9,755.2,1269.1,755.4,1281.9z"/>
			<path class="st7" d="M672.7,704.2c-0.1,2,0,2.8-0.2,3.6c-0.4,1.9-1,4.4-2.9,4.5c-2.1,0-1.7-2.7-2-4.3c-0.5-3.2-1.7-5.7-4.9-6.9
				c-2.4-0.9-2.8-2.7-2.4-5c0.3-2,0.5-4.1,0.9-6.1c0.4-2,1.1-3.7,3.6-3.7c2.3,0,4.2,0.7,4.8,3C670.7,694.7,671.8,700,672.7,704.2z"
				/>
		</g>
	</g>
</g>
<g id="Layer_3" class="st5">
	<g class="st6">
		<g>
			<path class="st7" d="M1201.8,919c0,217.9,0,435.9,0.1,653.8c0,3.1-0.7,3.8-3.8,3.8c-400.3-0.1-800.5-0.1-1200.8,0
				c-3.1,0-3.8-0.7-3.8-3.8c0.1-436.2,0.1-872.3,0-1308.5c0-3.1,0.7-3.8,3.8-3.8c400.3,0.1,800.5,0.1,1200.8,0
				c3.1,0,3.8,0.7,3.8,3.8C1201.8,482.6,1201.8,700.8,1201.8,919z"/>
			<path class="st2" d="M1100.9,1500.8c-18.1,0-36.2,0.6-54.2-0.1c-34.5-1.4-69-2-103.5-1.1c-31,0.8-62,2.8-92.8,6.9
				c-22.4,3-44.8,5-67.4,6.2c-22.2,1.1-44.3,1.8-66.5,1.2c-27.8-0.8-55.5-2.1-83.3-3.1c-20.1-0.7-40.2-1.1-60.3-1.8
				c-20.2-0.7-40.5-1.1-60.7-1.6c-28.2-0.6-56.4-0.4-84.6-1c-34.6-0.7-69.3-0.1-103.9-0.8c-39.9-0.7-79.7-0.2-119.6-0.9
				c-30-0.5-60-0.3-90-0.7c-23.1-0.4-46.3-1-69.4-1.6c-1.6,0-3.2-0.5-4.9-0.6c-3.3-0.2-4.8-2-5.4-5.1c-1.2-5.7,0.3-11.2,1.6-16.6
				c8-34.7,18.8-68.6,32.3-101.6c8.5-20.9,16.9-41.9,27-62.1c2.7-5.3,3.6-11.1,4.7-16.9c3.4-17.4,8.9-34.1,14.5-50.9
				c8.5-25.7,14.5-52.2,22.9-77.9c8.7-26.6,20.5-51.6,36.1-74.8c11.8-17.5,20.3-36.6,28.8-55.7c8.3-18.6,16-37.5,24.4-56.1
				c4.9-10.9,11.5-20.8,18.6-30.4c6.9-9.3,13.8-18.8,20.4-28.3c8.8-12.7,20.6-22.3,32.5-31.7c12.6-9.9,25.6-19.3,37.5-30
				c13.2-11.8,22.8-25.9,27.9-43.2c2-6.9,5.2-13.5,7.9-20.3c2.2-5.5,5.7-10.1,10.1-13.8c3-2.5,3.8-5.4,4-8.9
				c0.4-6.7,0.2-13.4,0.6-20.1c0.7-10.7,4.7-20.1,11.5-28c13.5-15.9,24.7-33.5,37.4-49.9c10.4-13.6,20.6-27.3,32.6-39.6
				c4.3-4.4,9.2-7.7,15.1-9.4c17.7-5,30.7-15.7,38.6-32.4c3.6-7.7,9.4-13.8,15.7-19.4c12.8-11.3,26-22.2,39.9-32.3
				c6.1-4.4,12.7-7.9,19.8-10.7c13.4-5.3,31.1-3.3,41.5,11c5.7,7.9,12.1,15.2,19.8,21.3c5.3,4.2,8.4,10.4,13.3,15
				c7.7,7.2,15.2,14.7,22.9,21.8c12.3,11.4,20,25.6,25.4,41.2c7.7,22.3,22,39.4,42.5,50.8c16.2,9,29.6,20.9,42.1,34.3
				c6.1,6.6,7.6,15,9.6,23.2c1.6,6.6,3.2,13.3,5,19.9c0.4,1.4,1.1,2.8,2,4c12.1,16.6,21,35,28.2,54.1c5.9,15.5,15.5,28.9,23.8,43
				c9.7,16.5,19.1,33.2,30.7,48.6c6,7.9,13.1,14.8,19.3,22.3c11.7,14.1,18.9,30.4,23.2,48c4.5,18,11.5,34.6,23.6,49.1
				c8,9.5,14.5,20.2,21.2,30.7c11.1,17.6,17.2,37.1,22.6,57c6.4,23.4,9.1,47.2,10.1,71.3c0.5,12.5,0.3,25.2,3,37.6
				c1.7,7.6,6,14,9.1,21c11.3,26.3,19.8,53.6,28.8,80.8c2.9,8.8,5.6,17.8,10.4,25.9c3.9,6.6,8.9,12.4,12.9,19
				c11.6,19,20.9,39.1,30.4,59.2c4.6,9.6,9.4,19.2,11.6,29.7c1.6,7.6,1.2,15.2,1.3,22.9c0,2.8-1.8,3.3-4.2,3.3c-8.6,0-17.3,0-25.9,0
				C1100.9,1501.5,1100.9,1501.1,1100.9,1500.8z"/>
			<path class="st3" d="M655.2,709.7c0,18.3,0.3,35.9-0.2,53.5c-0.2,6-0.4,12-0.6,18c-0.4,16-1.2,32-0.9,48
				c0.2,12.8,2.4,25.5,3.2,38.3c0.9,15.1,3.3,30,6,44.9c2.1,12.1,4.6,24.1,6.9,36.1c0.3,1.5,0.4,3,0.5,4.5c0.1,1.7-0.1,3.9,1.9,4
				c2.1,0.1,1.9-2.4,2.1-3.8c1-5.9,1.5-11.9,2.7-17.8c3.2-16.8,3.7-33.8,5.8-50.7c0.9-7.5,2.4-15,3.6-22.8c1.7,1.5,1.6,3.5,2.1,5.2
				c3.3,13.1,10.5,24.2,17.3,35.6c8.4,14.1,15.8,28.7,25,42.4c5.3,7.9,10,16.3,16.6,23.3c3.5,3.8,7.9,5.8,12.9,4.7
				c6-1.2,11,1,15.9,3.7c2,1.1,3.9,2,6.1,1.7c5.9-0.9,7.9-5.3,4.5-10.3c-4.9-7-11.7-11.7-19.1-15.8c-8.9-4.9-17.7-10-23.6-18.6
				c-3.7-5.4-6.5-11.4-8.6-17.6c-8.6-25.1-15-50.7-19.1-76.9c-1.2-7.4-2.8-14.8-9-20.2c-0.5-0.4-0.9-1.2-1.5-1.4
				c-8.2-2.7-8-9.7-8.2-16.4c-0.1-2.5-0.7-4.9-0.8-7.3c0-1-0.3-2.6,1.6-2c8.2,2.7,16.2,0.6,24.2-1.1c5.8-1.2,5.9-0.8,5.7,5.1
				c-0.2,5.7-2.3,11.3-0.2,17.1c0.7,2.1,1.3,4.5,4,4.6c2.6,0.1,3.7-2.1,4.6-4.1c3.3-7.3,2.5-15.1,1.7-22.6c-1.1-10,1.9-18,9.4-24.4
				c2.5-2.2,5.7-2.7,8.9-2.1c4.8,0.9,9.6,1.9,14.3,3.2c4.5,1.2,7.8,4,10.8,7.7c7,8.7,13.9,17.5,21.8,25.5c5.9,6,7.3,6.1,13.8,0.7
				c1.7,9.4,3.6,18.5,5,27.8c2.3,14.6,5.9,28.8,9.3,43.1c3.6,15.4,6.2,30.9,7.5,46.7c1.1,13.7,2,27.5,2.5,41.2
				c0.8,20.1,4.8,39.7,12.3,58.5c4.4,11.2,8.2,22.6,13.5,33.4c5.3,11,15.5,13.8,26.1,16c2.3,0.5,4.9-0.4,6-2.6
				c1.1-2.2-0.7-3.9-2.3-5.2c-9-7.3-13-17.6-17.1-28c-4-10.2-8.9-20-12.4-30.3c-3.4-10.1-4.7-20.2-3.6-31
				c1.3-12.2-0.1-24.5-1.7-36.7c-1.8-13.3-5.9-26-8.4-39.1c-0.2-1.3-0.7-2.6,0.4-4.3c2.9,4.4,5.7,8.6,8.3,12.8
				c7,11.3,15.5,21.4,24.3,31.3c12.2,13.9,25,27.5,33.6,44.2c5.1,9.8,6.7,20.7,8,31.5c1.5,12.4,0.6,24.9,0.8,37.3
				c0.2,9,3.6,14.2,12.1,17.5c5,1.9,10,3.7,15.1,5.2c15.9,4.9,25.1,16.2,29.3,31.5c5.7,20.9,9,42.3,12.6,63.7
				c2.3,14,5.3,27.8,7,41.9c1,8.6,0.8,17.6,0,26.2c-0.6,6.4-0.8,12.8-1,19.2c-0.7,19.9-1.9,39.9-0.9,59.9
				c0.8,16.3,1.8,32.6,3.8,48.9c1.4,11.3,2.3,22.8,3.5,34.1c0.5,5.1,1,10.3,2.7,15.2c0.6,1.8,1.5,3.8,3.9,3.6
				c2.5-0.2,2.9-2.2,3.2-4.2c0.9-5.6,1.9-11.3,1.6-17.1c-0.7-15.7,0.9-31.4,1.9-47.1c0.7-11,0.1-21.9,0.7-32.8
				c0.3-6.1,0.6-12.3,2.3-18.2c0.3-1-0.1-2.5,1.4-2.6c1.1-0.1,1.3,1.3,1.7,2.1c4.3,8.9,6.9,18.4,10,27.7c8.9,26.1,19.1,51.8,29,77.5
				c7,18.4,13.7,36.9,20.5,55.3c0.5,1.4,1,2.8,1.5,4.2c2.7,6.5,2.5,7.1-4.3,8.3c-8.2,1.4-16.5,2-24.8,2.6c-12.9,1-25.8,2.3-38.7,3.1
				c-8.4,0.5-16.9,1.2-25.3,1.7c-14.4,0.8-28.8,2-43.2,3.2c-12.4,1-24.7,2.2-37,3.5c-12.8,1.4-25.6,3.4-38.4,5.1
				c-12.8,1.8-25.6,3.6-38.4,5.5c-12.7,1.8-25.3,3.7-38,5.4c-5.8,0.8-11.6,1.5-17.5,1.9c-25.4,1.8-50.7,3.2-76.2,2.3
				c-11.6-0.4-23.3,0-34.8-0.7c-13.1-0.8-26.2-0.9-39.3-1.6c-15.8-0.9-31.6-1.6-47.4-2.5c-14.2-0.8-28.4-1-42.6-1.7
				c-21.1-1.1-42.2-0.9-63.2-0.4c-16.8,0.4-33.6,0.6-50.5,0.5c-13-0.1-25.9-0.6-38.8-1.7c-17.6-1.5-35.2-3.8-52.8-5.5
				c-12.2-1.1-24.5-1.6-36.7-2.6c-19-1.6-38-1.1-56.9-1.8c-12.2-0.5-24.3-0.3-36.5-0.5c-13.9-0.3-27.9-1.6-41.8-0.8
				c-26.4,1.5-52.8,0.4-79.2,0.7c-4.2,0.1-8.4-0.5-12.6-0.8c-2.1-0.1-2.9-1-2.3-3.2c6.2-26.1,10.4-52.8,21-77.7
				c5.7-13.4,11-27.1,19.7-39.1c5.3-7.3,7.5-15.9,8.1-24.6c2.5-32.3,6.8-64.2,15.7-95.4c6.1-21.3,11.3-42.8,19.6-63.3
				c3.5-8.7,8.9-16,15.2-22.7c21.4-22.9,44.1-44.6,66-67c5-5.2,10.3-10.2,14.2-16.4c0.6-1,1.4-2.1,1.7-3.2c0.3-1.4,0.7-3.1-0.7-4.2
				c-1.3-1.1-2.6,0-3.8,0.5c-3.5,1.4-6.2,4-9.1,6.2c-6.6,5.1-13.8,9.3-21,13.5c-7.4,4.2-14,9.5-20.3,15.5c2-3.5,4-6.9,5.9-10.4
				c6.6-11.6,11.8-24.1,18.9-35.4c17.7-28.2,32.5-58,47.6-87.5c5.2-10.2,10.9-20.2,19-28.5c5.7-5.9,12.9-9.6,20-13.5
				c13.1-7.1,25.4-15,34.6-27c1.9-2.4,4.1-4.8,7.4-6c0,3.8-2.2,6.8-3.5,10c-3.9,9.4-7,18.9-9,28.9c-0.4,2-1.4,4.4,0.9,5.5
				c2.6,1.3,4.1-1.2,5.3-2.8c7.2-9.6,14.2-19.4,21.3-29c17.8-24.1,30.3-50.9,40.9-78.7c1.2-3.1,2.3-6.2,2.7-9.4
				c1.4-9.5,6.5-16.4,13.7-22.3c3.6-3,8-4,11.7-6.5c12.1-8.4,25-15.8,35-26.9c6.4-7,10.5-15.6,15.8-23.4c6.7-9.8,14.2-19.1,19.1-30
				c0.5-1.1,1.1-1.5,2.1-0.5c6.4,6,13.5,5.4,21,2.6c1.1-0.4,2.4-1.5,3.4-0.5c1.1,1,0.1,2.3-0.3,3.4c-2.2,6.9-4.4,13.8-6.6,20.7
				c-1.4,4.3-1.3,8.4,0.9,12.7c3.8,7.5,5.1,15.8,6.4,24c1.6,9.9,8.8,14.1,18.2,10.4c1.1-0.4,2.2-1,4.2-1.9
				c-0.8,5.3-1.4,10.1-2.2,14.7c-4,21.6-12.1,41.9-20.3,62.2c-8.4,20.6-19.1,39.9-31.4,58.4c-11.7,17.5-27,31.3-43.8,43.8
				c-13.7,10.2-27.8,19.7-41.9,29.4c-7.8,5.3-12.7,13-18.1,20.4c-11.2,15.1-23,29.8-35.2,44.1c-11.3,13.3-23,26.3-34.9,39.1
				c-14.2,15.4-30.2,28.9-45.5,43c-14.4,13.3-30.2,24.7-45.9,36.2c-2,1.4-3.6,3.3-5.4,5c-1.2,1.2-2.4,2.4-1.5,4.3
				c0.9,1.9,2.6,0.6,4.3,0.8c-1.4,5.2-4.7,9.3-6.6,14c-7.7,19-14,38.5-21.1,57.7c-4.3,11.5-7.7,23.3-10.1,35.4
				c-0.7,3.5-0.9,7-1.3,10.5c-0.1,1.2-0.2,2.8,1.2,3.2c1.7,0.5,2.4-1.1,2.9-2.3c2.4-6,4.5-12,5.9-18.2c4.6-19.8,13.1-38.2,20.7-56.9
				c5.2-12.9,11.3-25.5,16.6-38.4c5.1-12.5,14.2-21.5,24.9-29.2c19.1-13.9,38.5-27.3,57.2-41.7c10.3-7.9,18.8-17.5,27.3-27.1
				c5.2-5.8,10.2-11.8,15.4-17.5c6.9-7.6,13.8-15.2,20.9-22.5c13.4-13.9,28.7-25.7,43.7-37.6c4.8-3.8,9.5-7.8,14.4-11.5
				c4.2-3.1,8.9-4.5,14.3-4.2c5.3,0.4,6.6,1.2,7.3,6.2c2.3,15.6,5,31.2,6,47c0.7,11.2,1.2,22.3,1.6,33.5c0.5,11.6,1,23.2,1.6,34.7
				c0.5,10.3-3.8,18.1-10.1,25.5c-11.1,13-23.5,24.7-34.1,38.1c-6.4,8.1-8.8,17.8-11,27.5c-5.2,22.7-7,46-13.1,68.6
				c-3.1,11.5-7.8,22.5-11.1,33.9c-1.7,5.7-4,11.3-5,17.3c-0.2,1.2-0.4,2.5-0.2,3.6c0.6,3.8,3.6,4.8,6.5,2.3
				c3.1-2.7,5.1-6.2,6.6-9.8c6.7-16.6,18.2-29.7,30.6-42.2c9.8-9.9,20.1-19.4,29.2-30c9.7-11.4,16.8-24.3,22.1-38.2
				c11.2-29.2,21.6-58.7,28.3-89.3c4.1-18.9,8.3-37.8,10.6-57c1.4-11.1,2.1-22.2,2.5-33.4c0.6-16.1,1.4-32.2,2.5-48.2
				c0.4-5.9,2.4-11.5,4.4-17c10.6-30.2,17.1-61.4,23.5-92.7c3.7-18.3,6.3-36.8,8.9-55.2c2.8-19.9,5.1-39.9,7.6-59.9
				c0.1-0.4,0.1-0.8,0.2-1.2c0.9-4.8,1-5,5.7-3.2c5.8,2.3,10.6-0.4,15.6-2.6c10-4.4,15.9-12.5,19.8-22.4c2.3-5.9,4.4-7.2,12.5-6.2
				c11.1,1.5,18.2-3.7,23.3-12.8c0.3-0.6,0.7-1.2,1-1.8C654.4,710.4,654.5,710.4,655.2,709.7z"/>
			<path class="st7" d="M678.4,669.7c-1.3,4.2-0.8,8.5-1.7,12.6c-2.1,9.8-5,11.9-14.8,10c-7.9-1.5-12.4,0.9-15.7,8.5
				c-1.8,4-3.9,7.8-6.9,11.1c-1.6,1.8-3.4,2.6-5.8,1.8c-2.3-0.7-4.8-1.1-7.2-1.7c-7.4-1.8-13.7,1-17,7.9c-2.2,4.7-4,9.6-6,14.4
				c-3.4,8.3-11.1,10.3-18.8,10.5c-3.4,0.1-4.2-2.6-4.8-5.2c-0.9-3.6-0.3-7.3-0.3-11c0.1-3.3,0.1-6.6,0.1-9.9c0-1.7-0.2-3.6-2.1-4.1
				c-2-0.5-2.9,1.2-3.5,2.7c-2.6,6.2-5.3,12.3-7.5,18.6c-3,8.8-5.9,17.6-10.3,25.9c-1.6,2.9-3.2,5.8-6.3,7.3c-3.9,1.9-7.1,0.6-7-3.6
				c0.1-6.5-2.6-12.2-4-18.3c-1.4-6.2,0.2-12.5,0.7-18.8c1.3-14.7,5.3-28.4,12.8-41.2c0.4-0.7,0.6-1.5,0.9-2.3
				c0.1-0.2-0.1-0.5-0.3-1.3c-3.6,1.7-7.2,2.9-9.7,6.2c-3.7,4.6-8,8.7-12.8,12.1c-7.8,5.5-14.6,3-16.4-6.4c-0.8-4.1-3.2-6.8-5.6-9.7
				c-0.8-1-1.5-1.2-2.1,0.1c-0.1,0.2-0.3,0.5-0.4,0.7c-3.5,15.2-14.4,25.9-23,38c-4.8,6.7-8.8,13.9-13.1,20.9
				c-4.3,7-9.7,13.1-15.8,18.7c-5.9,5.3-10.8,11.6-17.5,16.1c-5.1,3.4-10.7,6.1-15.4,10.1c-5.3,4.6-9.4,9.9-12.9,15.8
				c-1.8,2.9-3.5,5.9-5.9,8.4c-2,2-4.3,3.1-7.1,2c-2.7-1-3.9-3.4-4-6.2c-0.3-6.3,0.4-12.6,1.8-18.7c2.7-11.8,2.9-23.8,4.9-35.7
				c1.5-9,5.6-16.2,12.2-22.6c9.8-9.7,19.5-19.5,26.8-31.4c8.5-13.7,19.6-25.2,30-37.4c5-5.9,9.7-12.2,14.8-18.1
				c4.7-5.4,10.4-9.2,17.6-10.6c6.9-1.3,11.5-5.7,15.4-11.3c6.3-9.3,13-18.3,19.4-27.5c8.6-12.5,19.4-22.6,32.9-29.7
				c6-3.1,11.4-7,16.5-11.4c7.5-6.4,16.7-8.3,25.9-9.1c5.9-0.5,11.5,2.8,16.7,6.2c8.2,5.4,15.1,12.3,20.7,20.3
				c7.2,10.5,15.7,19.7,24.7,28.5c7.8,7.5,15.4,15.1,22.7,23.2c8.4,9.3,13.5,20.2,17.1,32c5.1,16.7,12,32.3,24.7,44.8
				c3.9,3.9,8.4,6.3,13.7,7.8c24.4,6.9,41.5,22.4,52.4,45.2c3.2,6.6,3.6,13.3,0.2,20.1c-1.8,3.7-4.8,3.9-7.1,0.5
				c-0.3-0.4-0.6-0.9-0.8-1.4c-3.1-9.9-10.8-14.3-20-17.1c-8-2.4-15.9-5.1-24.1-6.6c-5.1-1-8.8,0.8-11.1,5.5
				c-2,4.1-3.5,8.3-5.5,12.4c-2.8,5.8-7.2,9.7-13.6,10.8c-5.4,0.9-10.5,3.1-16.1,2.9c-6.5-0.3-8.9-2.4-9.2-8.8
				c-0.8-13-3.3-25.7-6.2-38.4c-1.1-4.8-1.8-9.7-1.8-14.6c0.2-12.6-3.3-24.9-3-37.6C683.7,678,680.9,673.8,678.4,669.7z"/>
			<path class="st2" d="M778.4,1310.4c-0.1,5.5-0.2,11.1-0.4,16.7c-0.4,9.5,0.7,19,1.2,28.6c0.6,11.2,2.5,22.3,1.7,33.5
				c-0.2,3,0.3,7.2-3.9,8.1c-4.2,0.9-5.9-2.6-7.5-5.7c-7.2-13.7-10.3-28.7-13.1-43.7c-4.6-24.9-9.3-49.7-13.8-74.6
				c-4.3-23.6-8-47.2-14.1-70.4c-1.4-5.4-3-10.7-3.8-16.3c-0.4-2.6,0.2-4.8,0.7-7.2c0.2-1.1,0.8-2.1,2.2-2.1c1.3,0,2.1,0.6,2.6,1.7
				c0.9,2,1.9,3.9,2.6,6c6.1,17.1,10.9,34.7,17.8,51.5c3.5,8.6,7.6,17,13,24.6C774.1,1275.8,780.6,1291.7,778.4,1310.4z"/>
			<path class="st2" d="M516.2,1464.8c-8.2-0.1-15.1-4.2-21.6-8.3c-14.4-9.1-30.4-13.5-46.4-18.1c-7.1-2-14.2-4-21.3-5.7
				c-10.2-2.4-20,0-29.9,2.3c-10.7,2.6-20.4,7.6-30.4,12c-2.5,1.1-5.6,3.9-8.1,0.5c-2.4-3.3,1-5.4,2.9-7.5
				c9.9-11.2,22.1-19.5,35-26.7c1.1-0.6,2.1-1.3,3.1-1.9c1.6-0.9,1.7-1.6,0-2.5c-2.4-1.3-5.7-2.7-4.2-5.9c1.5-3.1,4.8-1.5,7.3-0.9
				c25.5,6,49.8,15.2,74.1,24.8c10.5,4.2,21.3,7.9,31.3,13.3c5.1,2.8,10.4,5.6,13.6,10.8c1.1,1.9,2,3.8,2.1,6.1
				C523.9,1463.5,522.7,1464.8,516.2,1464.8z"/>
		</g>
	</g>
</g>
</svg>
